{"glyphs":{"0":{"ha":608,"x_min":0,"x_max":0,"o":"m 347 87 l 347 694 l 174 694 l 174 87 z m 87 0 l 87 87 l 0 87 l 0 694 l 87 694 l 87 781 l 434 781 l 434 694 l 521 694 l 521 87 l 434 87 l 434 0 z "},"1":{"ha":608,"x_min":0,"x_max":0,"o":"m 0 0 l 0 87 l 174 87 l 174 608 l 0 608 l 0 694 l 174 694 l 174 781 l 347 781 l 347 87 l 521 87 l 521 0 z "},"2":{"ha":608,"x_min":0,"x_max":0,"o":"m 0 0 l 0 174 l 87 174 l 87 260 l 174 260 l 174 347 l 260 347 l 260 434 l 347 434 l 347 694 l 174 694 l 174 521 l 0 521 l 0 694 l 87 694 l 87 781 l 434 781 l 434 694 l 521 694 l 521 434 l 434 434 l 434 347 l 347 347 l 347 260 l 260 260 l 260 174 l 174 174 l 174 87 l 521 87 l 521 0 z "},"3":{"ha":608,"x_min":0,"x_max":0,"o":"m 0 87 l 0 174 l 87 174 l 87 87 z m 0 608 l 0 694 l 87 694 l 87 608 z m 87 0 l 87 87 l 347 87 l 347 347 l 174 347 l 174 434 l 347 434 l 347 694 l 87 694 l 87 781 l 434 781 l 434 694 l 521 694 l 521 434 l 434 434 l 434 347 l 521 347 l 521 87 l 434 87 l 434 0 z "},"4":{"ha":694,"x_min":0,"x_max":0,"o":"m 347 260 l 347 521 l 260 521 l 260 347 l 174 347 l 174 260 z m 174 0 l 174 87 l 347 87 l 347 174 l 0 174 l 0 260 l 87 260 l 87 434 l 174 434 l 174 608 l 260 608 l 260 781 l 521 781 l 521 260 l 608 260 l 608 174 l 521 174 l 521 87 l 608 87 l 608 0 z "},"5":{"ha":608,"x_min":0,"x_max":0,"o":"m 0 87 l 0 174 l 87 174 l 87 87 z m 87 0 l 87 87 l 347 87 l 347 434 l 174 434 l 174 347 l 87 347 l 87 781 l 521 781 l 521 694 l 260 694 l 260 521 l 434 521 l 434 434 l 521 434 l 521 87 l 434 87 l 434 0 z "},"6":{"ha":608,"x_min":0,"x_max":0,"o":"m 87 0 l 87 87 l 0 87 l 0 608 l 87 608 l 87 694 l 174 694 l 174 781 l 521 781 l 521 694 l 260 694 l 260 608 l 174 608 l 174 434 l 260 434 l 260 347 l 174 347 l 174 87 l 347 87 l 347 434 l 260 434 l 260 521 l 434 521 l 434 434 l 521 434 l 521 87 l 434 87 l 434 0 z "},"7":{"ha":608,"x_min":0,"x_max":0,"o":"m 174 0 l 174 260 l 260 260 l 260 608 l 347 608 l 347 694 l 87 694 l 87 608 l 0 608 l 0 781 l 521 781 l 521 521 l 434 521 l 434 174 l 347 174 l 347 0 z "},"8":{"ha":608,"x_min":0,"x_max":0,"o":"m 347 87 l 347 347 l 174 347 l 174 87 z m 347 434 l 347 694 l 174 694 l 174 434 z m 87 0 l 87 87 l 0 87 l 0 347 l 87 347 l 87 434 l 0 434 l 0 694 l 87 694 l 87 781 l 434 781 l 434 694 l 521 694 l 521 434 l 434 434 l 434 347 l 521 347 l 521 87 l 434 87 l 434 0 z "},"9":{"ha":608,"x_min":0,"x_max":0,"o":"m 0 0 l 0 87 l 260 87 l 260 174 l 347 174 l 347 347 l 260 347 l 260 434 l 347 434 l 347 694 l 174 694 l 174 347 l 260 347 l 260 260 l 87 260 l 87 347 l 0 347 l 0 694 l 87 694 l 87 781 l 434 781 l 434 694 l 521 694 l 521 174 l 434 174 l 434 87 l 347 87 l 347 0 z "}," ":{"ha":434,"x_min":0,"x_max":0,"o":""},"!":{"ha":260,"x_min":0,"x_max":0,"o":"m 0 0 l 0 87 l 174 87 l 174 0 z m 0 174 l 0 694 l 174 694 l 174 174 z "},"\"":{"ha":347,"x_min":0,"x_max":0,"o":"m 0 347 l 0 694 l 87 694 l 87 347 z m 174 347 l 174 694 l 260 694 l 260 347 z "},"#":{"ha":694,"x_min":0,"x_max":0,"o":"m 347 347 l 347 434 l 260 434 l 260 347 z m 87 0 l 87 260 l 0 260 l 0 347 l 87 347 l 87 434 l 0 434 l 0 521 l 87 521 l 87 781 l 260 781 l 260 521 l 347 521 l 347 781 l 521 781 l 521 521 l 608 521 l 608 434 l 521 434 l 521 347 l 608 347 l 608 260 l 521 260 l 521 0 l 347 0 l 347 260 l 260 260 l 260 0 z "},"$":{"ha":608,"x_min":0,"x_max":0,"o":"m 174 -174 l 174 0 l 0 0 l 0 260 l 174 260 l 174 87 l 347 87 l 347 260 l 174 260 l 174 347 l 0 347 l 0 608 l 87 608 l 87 694 l 260 694 l 260 781 l 347 781 l 347 694 l 521 694 l 521 521 l 347 521 l 347 608 l 174 608 l 174 434 l 434 434 l 434 347 l 521 347 l 521 87 l 434 87 l 434 0 l 260 0 l 260 -174 z "},"%":{"ha":608,"x_min":0,"x_max":0,"o":"m 260 0 l 260 87 l 434 87 l 434 0 z m 174 87 l 174 260 l 260 260 l 260 87 z m 434 87 l 434 260 l 521 260 l 521 87 z m 0 260 l 0 347 l 174 347 l 174 260 z m 260 260 l 260 347 l 174 347 l 174 434 l 87 434 l 87 521 l 260 521 l 260 434 l 347 434 l 347 347 l 434 347 l 434 260 z m 347 434 l 347 521 l 521 521 l 521 434 z m 0 521 l 0 694 l 87 694 l 87 521 z m 260 521 l 260 694 l 347 694 l 347 521 z m 87 694 l 87 781 l 260 781 l 260 694 z "},"&":{"ha":694,"x_min":0,"x_max":0,"o":"m 347 87 l 347 174 l 260 174 l 260 260 l 174 260 l 174 87 z m 87 0 l 87 87 l 0 87 l 0 347 l 87 347 l 87 608 l 174 608 l 174 694 l 521 694 l 521 608 l 260 608 l 260 347 l 347 347 l 347 260 l 434 260 l 434 347 l 608 347 l 608 260 l 521 260 l 521 87 l 608 87 l 608 0 z "},"'":{"ha":174,"x_min":0,"x_max":0,"o":"m 0 347 l 0 694 l 87 694 l 87 347 z "},"(":{"ha":347,"x_min":0,"x_max":0,"o":"m 174 -174 l 174 -87 l 87 -87 l 87 87 l 0 87 l 0 521 l 87 521 l 87 694 l 174 694 l 174 781 l 260 781 l 260 608 l 174 608 l 174 0 l 260 0 l 260 -174 z "},")":{"ha":347,"x_min":0,"x_max":0,"o":"m 0 -174 l 0 0 l 87 0 l 87 608 l 0 608 l 0 781 l 87 781 l 87 694 l 174 694 l 174 521 l 260 521 l 260 87 l 174 87 l 174 -87 l 87 -87 l 87 -174 z "},"*":{"ha":608,"x_min":0,"x_max":0,"o":"m 87 260 l 87 521 l 0 521 l 0 608 l 174 608 l 174 781 l 347 781 l 347 608 l 521 608 l 521 521 l 434 521 l 434 260 l 347 260 l 347 347 l 174 347 l 174 260 z "},"+":{"ha":694,"x_min":0,"x_max":0,"o":"m 260 0 l 260 260 l 0 260 l 0 347 l 260 347 l 260 608 l 347 608 l 347 347 l 608 347 l 608 260 l 347 260 l 347 0 z "},",":{"ha":347,"x_min":0,"x_max":0,"o":"m 0 -174 l 0 0 l 87 0 l 87 174 l 260 174 l 260 87 l 174 87 l 174 -87 l 87 -87 l 87 -174 z "},"-":{"ha":608,"x_min":0,"x_max":0,"o":"m 0 260 l 0 347 l 521 347 l 521 260 z "},".":{"ha":260,"x_min":0,"x_max":0,"o":"m 0 0 l 0 174 l 174 174 l 174 0 z "},"/":{"ha":608,"x_min":0,"x_max":0,"o":"m 0 -174 l 0 0 l 87 0 l 87 260 l 174 260 l 174 434 l 260 434 l 260 694 l 347 694 l 347 868 l 521 868 l 521 694 l 434 694 l 434 434 l 347 434 l 347 260 l 260 260 l 260 0 l 174 0 l 174 -174 z "},":":{"ha":260,"x_min":0,"x_max":0,"o":"m 0 0 l 0 174 l 174 174 l 174 0 z m 0 347 l 0 521 l 174 521 l 174 347 z "},";":{"ha":347,"x_min":0,"x_max":0,"o":"m 0 -174 l 0 0 l 87 0 l 87 -174 z m 87 0 l 87 174 l 260 174 l 260 87 l 174 87 l 174 0 z m 87 347 l 87 521 l 260 521 l 260 347 z "},"<":{"ha":781,"x_min":0,"x_max":0,"o":"m 521 0 l 521 87 l 694 87 l 694 0 z m 347 87 l 347 174 l 521 174 l 521 87 z m 174 174 l 174 260 l 347 260 l 347 174 z m 0 260 l 0 347 l 174 347 l 174 260 z m 174 347 l 174 434 l 347 434 l 347 347 z m 347 434 l 347 521 l 521 521 l 521 434 z m 521 521 l 521 608 l 694 608 l 694 521 z "},"=":{"ha":694,"x_min":0,"x_max":0,"o":"m 0 174 l 0 260 l 608 260 l 608 174 z m 0 347 l 0 434 l 608 434 l 608 347 z "},">":{"ha":781,"x_min":0,"x_max":0,"o":"m 0 0 l 0 87 l 174 87 l 174 0 z m 174 87 l 174 174 l 347 174 l 347 87 z m 347 174 l 347 260 l 521 260 l 521 174 z m 521 260 l 521 347 l 694 347 l 694 260 z m 347 347 l 347 434 l 521 434 l 521 347 z m 174 434 l 174 521 l 347 521 l 347 434 z m 0 521 l 0 608 l 174 608 l 174 521 z "},"?":{"ha":521,"x_min":0,"x_max":0,"o":"m 87 0 l 87 87 l 260 87 l 260 0 z m 87 174 l 87 347 l 174 347 l 174 434 l 260 434 l 260 608 l 174 608 l 174 521 l 0 521 l 0 608 l 87 608 l 87 694 l 347 694 l 347 608 l 434 608 l 434 347 l 347 347 l 347 260 l 260 260 l 260 174 z "},"@":{"ha":608,"x_min":0,"x_max":0,"o":"m 174 -87 l 174 0 l 434 0 l 434 -87 z m 87 0 l 87 87 l 174 87 l 174 0 z m 434 0 l 434 87 l 521 87 l 521 0 z m 174 260 l 174 434 l 260 434 l 260 260 z m 0 87 l 0 608 l 87 608 l 87 87 z m 87 608 l 87 694 l 174 694 l 174 608 z m 260 174 l 260 260 l 434 260 l 434 434 l 260 434 l 260 521 l 434 521 l 434 694 l 521 694 l 521 174 z m 174 694 l 174 781 l 434 781 l 434 694 z "},"A":{"ha":868,"x_min":0,"x_max":0,"o":"m 434 260 l 434 521 l 347 521 l 347 260 z m 0 0 l 0 87 l 87 87 l 87 260 l 174 260 l 174 521 l 260 521 l 260 608 l 87 608 l 87 694 l 521 694 l 521 521 l 608 521 l 608 260 l 694 260 l 694 87 l 781 87 l 781 0 l 434 0 l 434 87 l 521 87 l 521 174 l 260 174 l 260 87 l 347 87 l 347 0 z "},"B":{"ha":694,"x_min":0,"x_max":0,"o":"m 434 87 l 434 347 l 260 347 l 260 87 z m 434 434 l 434 608 l 260 608 l 260 434 z m 0 0 l 0 87 l 87 87 l 87 608 l 0 608 l 0 694 l 521 694 l 521 608 l 608 608 l 608 434 l 521 434 l 521 347 l 608 347 l 608 87 l 521 87 l 521 0 z "},"C":{"ha":608,"x_min":0,"x_max":0,"o":"m 434 87 l 434 174 l 521 174 l 521 87 z m 174 0 l 174 87 l 87 87 l 87 174 l 0 174 l 0 521 l 87 521 l 87 608 l 174 608 l 174 694 l 521 694 l 521 521 l 434 521 l 434 608 l 260 608 l 260 521 l 174 521 l 174 174 l 260 174 l 260 87 l 434 87 l 434 0 z "},"D":{"ha":694,"x_min":0,"x_max":0,"o":"m 347 87 l 347 174 l 434 174 l 434 521 l 347 521 l 347 608 l 260 608 l 260 87 z m 0 0 l 0 87 l 87 87 l 87 608 l 0 608 l 0 694 l 434 694 l 434 608 l 521 608 l 521 521 l 608 521 l 608 174 l 521 174 l 521 87 l 434 87 l 434 0 z "},"E":{"ha":694,"x_min":0,"x_max":0,"o":"m 0 0 l 0 87 l 87 87 l 87 608 l 0 608 l 0 694 l 608 694 l 608 434 l 521 434 l 521 608 l 260 608 l 260 434 l 347 434 l 347 521 l 434 521 l 434 260 l 347 260 l 347 347 l 260 347 l 260 87 l 521 87 l 521 260 l 608 260 l 608 0 z "},"F":{"ha":694,"x_min":0,"x_max":0,"o":"m 0 0 l 0 87 l 87 87 l 87 608 l 0 608 l 0 694 l 608 694 l 608 434 l 521 434 l 521 608 l 260 608 l 260 434 l 347 434 l 347 521 l 434 521 l 434 260 l 347 260 l 347 347 l 260 347 l 260 87 l 434 87 l 434 0 z "},"G":{"ha":694,"x_min":0,"x_max":0,"o":"m 87 0 l 87 87 l 0 87 l 0 608 l 87 608 l 87 694 l 521 694 l 521 434 l 434 434 l 434 608 l 174 608 l 174 87 l 347 87 l 347 260 l 260 260 l 260 347 l 608 347 l 608 260 l 521 260 l 521 87 l 434 87 l 434 0 z "},"H":{"ha":781,"x_min":0,"x_max":0,"o":"m 0 0 l 0 87 l 87 87 l 87 608 l 0 608 l 0 694 l 260 694 l 260 434 l 434 434 l 434 694 l 694 694 l 694 608 l 608 608 l 608 87 l 694 87 l 694 0 l 434 0 l 434 347 l 260 347 l 260 0 z "},"I":{"ha":608,"x_min":0,"x_max":0,"o":"m 0 0 l 0 87 l 174 87 l 174 608 l 0 608 l 0 694 l 521 694 l 521 608 l 347 608 l 347 87 l 521 87 l 521 0 z "},"J":{"ha":781,"x_min":0,"x_max":0,"o":"m 0 0 l 0 347 l 174 347 l 174 87 l 347 87 l 347 608 l 87 608 l 87 694 l 694 694 l 694 608 l 521 608 l 521 87 l 434 87 l 434 0 z "},"K":{"ha":781,"x_min":0,"x_max":0,"o":"m 0 0 l 0 87 l 87 87 l 87 608 l 0 608 l 0 694 l 347 694 l 347 608 l 260 608 l 260 434 l 347 434 l 347 521 l 434 521 l 434 694 l 694 694 l 694 608 l 608 608 l 608 521 l 521 521 l 521 434 l 434 434 l 434 347 l 521 347 l 521 260 l 608 260 l 608 87 l 694 87 l 694 0 l 521 0 l 521 87 l 434 87 l 434 260 l 260 260 l 260 87 l 347 87 l 347 0 z "},"L":{"ha":694,"x_min":0,"x_max":0,"o":"m 0 0 l 0 87 l 87 87 l 87 608 l 0 608 l 0 694 l 347 694 l 347 608 l 260 608 l 260 87 l 521 87 l 521 174 l 608 174 l 608 0 z "},"M":{"ha":868,"x_min":0,"x_max":0,"o":"m 347 174 l 347 347 l 434 347 l 434 174 z m 0 0 l 0 87 l 87 87 l 87 608 l 0 608 l 0 694 l 260 694 l 260 608 l 347 608 l 347 347 l 260 347 l 260 87 l 347 87 l 347 0 z m 434 0 l 434 87 l 521 87 l 521 347 l 434 347 l 434 608 l 521 608 l 521 694 l 781 694 l 781 608 l 694 608 l 694 87 l 781 87 l 781 0 z "},"N":{"ha":781,"x_min":0,"x_max":0,"o":"m 0 0 l 0 87 l 87 87 l 87 608 l 0 608 l 0 694 l 260 694 l 260 521 l 347 521 l 347 347 l 260 347 l 260 87 l 347 87 l 347 0 z m 434 0 l 434 174 l 347 174 l 347 347 l 434 347 l 434 608 l 347 608 l 347 694 l 694 694 l 694 608 l 608 608 l 608 0 z "},"O":{"ha":608,"x_min":0,"x_max":0,"o":"m 347 87 l 347 608 l 174 608 l 174 87 z m 87 0 l 87 87 l 0 87 l 0 608 l 87 608 l 87 694 l 434 694 l 434 608 l 521 608 l 521 87 l 434 87 l 434 0 z "},"P":{"ha":694,"x_min":0,"x_max":0,"o":"m 434 347 l 434 608 l 260 608 l 260 347 z m 0 0 l 0 87 l 87 87 l 87 608 l 0 608 l 0 694 l 521 694 l 521 608 l 608 608 l 608 347 l 521 347 l 521 260 l 260 260 l 260 87 l 434 87 l 434 0 z "},"Q":{"ha":608,"x_min":0,"x_max":0,"o":"m 434 -87 l 434 0 l 521 0 l 521 -87 z m 347 87 l 347 608 l 174 608 l 174 87 z m 174 -174 l 174 0 l 87 0 l 87 87 l 0 87 l 0 608 l 87 608 l 87 694 l 434 694 l 434 608 l 521 608 l 521 87 l 434 87 l 434 0 l 347 0 l 347 -87 l 434 -87 l 434 -174 z "},"R":{"ha":781,"x_min":0,"x_max":0,"o":"m 434 347 l 434 608 l 260 608 l 260 347 z m 0 0 l 0 87 l 87 87 l 87 608 l 0 608 l 0 694 l 521 694 l 521 608 l 608 608 l 608 347 l 521 347 l 521 174 l 608 174 l 608 87 l 694 87 l 694 0 l 521 0 l 521 87 l 434 87 l 434 174 l 347 174 l 347 260 l 260 260 l 260 87 l 347 87 l 347 0 z "},"S":{"ha":608,"x_min":0,"x_max":0,"o":"m 0 0 l 0 174 l 174 174 l 174 87 l 347 87 l 347 260 l 174 260 l 174 347 l 87 347 l 87 434 l 0 434 l 0 608 l 87 608 l 87 694 l 521 694 l 521 521 l 347 521 l 347 608 l 174 608 l 174 434 l 347 434 l 347 347 l 434 347 l 434 260 l 521 260 l 521 87 l 434 87 l 434 0 z "},"T":{"ha":608,"x_min":0,"x_max":0,"o":"m 87 0 l 87 87 l 174 87 l 174 608 l 87 608 l 87 434 l 0 434 l 0 694 l 521 694 l 521 434 l 434 434 l 434 608 l 347 608 l 347 87 l 434 87 l 434 0 z "},"U":{"ha":781,"x_min":0,"x_max":0,"o":"m 174 0 l 174 87 l 87 87 l 87 608 l 0 608 l 0 694 l 260 694 l 260 87 l 434 87 l 434 694 l 694 694 l 694 608 l 608 608 l 608 87 l 521 87 l 521 0 z "},"V":{"ha":868,"x_min":0,"x_max":0,"o":"m 260 0 l 260 174 l 174 174 l 174 434 l 87 434 l 87 608 l 0 608 l 0 694 l 347 694 l 347 608 l 260 608 l 260 434 l 347 434 l 347 174 l 434 174 l 434 434 l 521 434 l 521 608 l 434 608 l 434 694 l 781 694 l 781 608 l 694 608 l 694 434 l 608 434 l 608 174 l 521 174 l 521 0 z "},"W":{"ha":868,"x_min":0,"x_max":0,"o":"m 174 0 l 174 260 l 87 260 l 87 608 l 0 608 l 0 694 l 347 694 l 347 608 l 260 608 l 260 434 l 347 434 l 347 521 l 434 521 l 434 434 l 521 434 l 521 608 l 434 608 l 434 694 l 781 694 l 781 608 l 694 608 l 694 260 l 608 260 l 608 0 l 434 0 l 434 347 l 347 347 l 347 0 z "},"X":{"ha":781,"x_min":0,"x_max":0,"o":"m 0 0 l 0 87 l 87 87 l 87 174 l 174 174 l 174 260 l 260 260 l 260 434 l 174 434 l 174 521 l 87 521 l 87 608 l 0 608 l 0 694 l 260 694 l 260 521 l 434 521 l 434 608 l 347 608 l 347 694 l 694 694 l 694 608 l 608 608 l 608 521 l 521 521 l 521 434 l 434 434 l 434 260 l 521 260 l 521 174 l 608 174 l 608 87 l 694 87 l 694 0 l 434 0 l 434 174 l 260 174 l 260 87 l 347 87 l 347 0 z "},"Y":{"ha":781,"x_min":0,"x_max":0,"o":"m 87 0 l 87 87 l 260 87 l 260 347 l 174 347 l 174 521 l 87 521 l 87 608 l 0 608 l 0 694 l 260 694 l 260 434 l 434 434 l 434 608 l 347 608 l 347 694 l 694 694 l 694 608 l 608 608 l 608 521 l 521 521 l 521 347 l 434 347 l 434 87 l 608 87 l 608 0 z "},"Z":{"ha":608,"x_min":0,"x_max":0,"o":"m 0 0 l 0 174 l 87 174 l 87 260 l 174 260 l 174 434 l 260 434 l 260 521 l 347 521 l 347 608 l 87 608 l 87 434 l 0 434 l 0 694 l 521 694 l 521 521 l 434 521 l 434 434 l 347 434 l 347 260 l 260 260 l 260 174 l 174 174 l 174 87 l 434 87 l 434 260 l 521 260 l 521 0 z "},"[":{"ha":434,"x_min":0,"x_max":0,"o":"m 0 -174 l 0 781 l 347 781 l 347 694 l 174 694 l 174 -87 l 347 -87 l 347 -174 z "},"\\":{"ha":608,"x_min":0,"x_max":0,"o":"m 347 -174 l 347 0 l 260 0 l 260 260 l 174 260 l 174 434 l 87 434 l 87 694 l 0 694 l 0 868 l 174 868 l 174 694 l 260 694 l 260 434 l 347 434 l 347 260 l 434 260 l 434 0 l 521 0 l 521 -174 z "},"]":{"ha":434,"x_min":0,"x_max":0,"o":"m 0 -174 l 0 -87 l 174 -87 l 174 694 l 0 694 l 0 781 l 347 781 l 347 -174 z "},"^":{"ha":521,"x_min":0,"x_max":0,"o":"m 0 434 l 0 521 l 87 521 l 87 434 z m 347 434 l 347 521 l 434 521 l 434 434 z m 87 521 l 87 694 l 174 694 l 174 521 z m 260 521 l 260 694 l 347 694 l 347 521 z m 174 694 l 174 781 l 260 781 l 260 694 z "},"_":{"ha":868,"x_min":0,"x_max":0,"o":"m 0 -347 l 0 -260 l 781 -260 l 781 -347 z "},"`":{"ha":260,"x_min":0,"x_max":0,"o":"m 87 608 l 87 694 l 174 694 l 174 608 z m 0 694 l 0 781 l 87 781 l 87 694 z "},"a":{"ha":694,"x_min":0,"x_max":0,"o":"m 347 87 l 347 260 l 174 260 l 174 87 z m 87 0 l 87 87 l 0 87 l 0 260 l 87 260 l 87 347 l 347 347 l 347 434 l 87 434 l 87 521 l 434 521 l 434 434 l 521 434 l 521 87 l 608 87 l 608 0 z "},"b":{"ha":694,"x_min":0,"x_max":0,"o":"m 347 0 l 347 87 l 434 87 l 434 434 l 347 434 l 347 521 l 521 521 l 521 434 l 608 434 l 608 87 l 521 87 l 521 0 z m 0 0 l 0 87 l 87 87 l 87 694 l 0 694 l 0 781 l 260 781 l 260 434 l 347 434 l 347 347 l 260 347 l 260 174 l 347 174 l 347 87 l 260 87 l 260 0 z "},"c":{"ha":608,"x_min":0,"x_max":0,"o":"m 434 87 l 434 174 l 521 174 l 521 87 z m 87 0 l 87 87 l 0 87 l 0 434 l 87 434 l 87 521 l 521 521 l 521 260 l 434 260 l 434 434 l 174 434 l 174 87 l 434 87 l 434 0 z "},"d":{"ha":694,"x_min":0,"x_max":0,"o":"m 87 0 l 87 87 l 0 87 l 0 434 l 87 434 l 87 521 l 260 521 l 260 434 l 174 434 l 174 87 l 260 87 l 260 0 z m 347 0 l 347 87 l 260 87 l 260 174 l 347 174 l 347 347 l 260 347 l 260 434 l 347 434 l 347 694 l 260 694 l 260 781 l 521 781 l 521 87 l 608 87 l 608 0 z "},"e":{"ha":608,"x_min":0,"x_max":0,"o":"m 434 87 l 434 174 l 521 174 l 521 87 z m 347 347 l 347 434 l 174 434 l 174 347 z m 87 0 l 87 87 l 0 87 l 0 434 l 87 434 l 87 521 l 434 521 l 434 434 l 521 434 l 521 260 l 174 260 l 174 87 l 434 87 l 434 0 z "},"f":{"ha":781,"x_min":0,"x_max":0,"o":"m 0 0 l 0 87 l 174 87 l 174 434 l 0 434 l 0 521 l 174 521 l 174 694 l 260 694 l 260 781 l 694 781 l 694 694 l 347 694 l 347 521 l 608 521 l 608 434 l 347 434 l 347 87 l 608 87 l 608 0 z "},"g":{"ha":694,"x_min":0,"x_max":0,"o":"m 87 0 l 87 87 l 0 87 l 0 434 l 87 434 l 87 521 l 260 521 l 260 434 l 174 434 l 174 87 l 260 87 l 260 0 z m 87 -260 l 87 -174 l 347 -174 l 347 87 l 260 87 l 260 174 l 347 174 l 347 347 l 260 347 l 260 434 l 347 434 l 347 521 l 608 521 l 608 434 l 521 434 l 521 -174 l 434 -174 l 434 -260 z "},"h":{"ha":781,"x_min":0,"x_max":0,"o":"m 0 0 l 0 87 l 87 87 l 87 694 l 0 694 l 0 781 l 260 781 l 260 521 l 521 521 l 521 434 l 608 434 l 608 87 l 694 87 l 694 0 l 434 0 l 434 434 l 260 434 l 260 0 z "},"i":{"ha":608,"x_min":0,"x_max":0,"o":"m 0 0 l 0 87 l 174 87 l 174 434 l 0 434 l 0 521 l 347 521 l 347 87 l 521 87 l 521 0 z m 174 608 l 174 781 l 347 781 l 347 608 z "},"j":{"ha":608,"x_min":0,"x_max":0,"o":"m 0 -260 l 0 -174 l 347 -174 l 347 434 l 0 434 l 0 521 l 521 521 l 521 -174 l 434 -174 l 434 -260 z m 260 608 l 260 781 l 434 781 l 434 608 z "},"k":{"ha":781,"x_min":0,"x_max":0,"o":"m 0 0 l 0 87 l 87 87 l 87 694 l 0 694 l 0 781 l 260 781 l 260 347 l 347 347 l 347 521 l 608 521 l 608 434 l 521 434 l 521 347 l 434 347 l 434 260 l 521 260 l 521 174 l 608 174 l 608 87 l 694 87 l 694 0 l 347 0 l 347 87 l 434 87 l 434 174 l 260 174 l 260 0 z "},"l":{"ha":781,"x_min":0,"x_max":0,"o":"m 0 0 l 0 87 l 260 87 l 260 694 l 87 694 l 87 781 l 434 781 l 434 87 l 694 87 l 694 0 z "},"m":{"ha":955,"x_min":0,"x_max":0,"o":"m 0 0 l 0 87 l 87 87 l 87 434 l 0 434 l 0 521 l 694 521 l 694 434 l 781 434 l 781 87 l 868 87 l 868 0 l 608 0 l 608 434 l 521 434 l 521 0 l 347 0 l 347 434 l 260 434 l 260 0 z "},"n":{"ha":781,"x_min":0,"x_max":0,"o":"m 0 0 l 0 87 l 87 87 l 87 434 l 0 434 l 0 521 l 521 521 l 521 434 l 608 434 l 608 87 l 694 87 l 694 0 l 434 0 l 434 434 l 260 434 l 260 0 z "},"o":{"ha":608,"x_min":0,"x_max":0,"o":"m 347 87 l 347 434 l 174 434 l 174 87 z m 87 0 l 87 87 l 0 87 l 0 434 l 87 434 l 87 521 l 434 521 l 434 434 l 521 434 l 521 87 l 434 87 l 434 0 z "},"p":{"ha":694,"x_min":0,"x_max":0,"o":"m 0 -260 l 0 -174 l 87 -174 l 87 434 l 0 434 l 0 521 l 260 521 l 260 434 l 347 434 l 347 347 l 260 347 l 260 174 l 347 174 l 347 87 l 260 87 l 260 -174 l 434 -174 l 434 -260 z m 347 0 l 347 87 l 434 87 l 434 434 l 347 434 l 347 521 l 521 521 l 521 434 l 608 434 l 608 87 l 521 87 l 521 0 z "},"q":{"ha":694,"x_min":0,"x_max":0,"o":"m 87 0 l 87 87 l 0 87 l 0 434 l 87 434 l 87 521 l 260 521 l 260 434 l 174 434 l 174 87 l 260 87 l 260 0 z m 174 -260 l 174 -174 l 347 -174 l 347 87 l 260 87 l 260 174 l 347 174 l 347 347 l 260 347 l 260 434 l 347 434 l 347 521 l 608 521 l 608 434 l 521 434 l 521 -174 l 608 -174 l 608 -260 z "},"r":{"ha":694,"x_min":0,"x_max":0,"o":"m 0 0 l 0 87 l 174 87 l 174 434 l 0 434 l 0 521 l 347 521 l 347 434 l 434 434 l 434 347 l 347 347 l 347 87 l 608 87 l 608 0 z m 521 347 l 521 434 l 434 434 l 434 521 l 608 521 l 608 347 z "},"s":{"ha":608,"x_min":0,"x_max":0,"o":"m 0 0 l 0 174 l 174 174 l 174 87 l 347 87 l 347 174 l 174 174 l 174 260 l 0 260 l 0 434 l 87 434 l 87 521 l 521 521 l 521 347 l 347 347 l 347 434 l 174 434 l 174 347 l 347 347 l 347 260 l 521 260 l 521 87 l 434 87 l 434 0 z "},"t":{"ha":608,"x_min":0,"x_max":0,"o":"m 434 87 l 434 174 l 521 174 l 521 87 z m 174 0 l 174 87 l 87 87 l 87 434 l 0 434 l 0 521 l 87 521 l 87 694 l 260 694 l 260 521 l 434 521 l 434 434 l 260 434 l 260 87 l 434 87 l 434 0 z "},"u":{"ha":781,"x_min":0,"x_max":0,"o":"m 174 0 l 174 87 l 87 87 l 87 434 l 0 434 l 0 521 l 260 521 l 260 87 l 434 87 l 434 434 l 347 434 l 347 521 l 608 521 l 608 87 l 694 87 l 694 0 z "},"v":{"ha":694,"x_min":0,"x_max":0,"o":"m 174 0 l 174 260 l 87 260 l 87 434 l 0 434 l 0 521 l 260 521 l 260 174 l 347 174 l 347 521 l 608 521 l 608 434 l 521 434 l 521 260 l 434 260 l 434 0 z "},"w":{"ha":868,"x_min":0,"x_max":0,"o":"m 174 0 l 174 260 l 87 260 l 87 434 l 0 434 l 0 521 l 260 521 l 260 347 l 347 347 l 347 434 l 434 434 l 434 347 l 521 347 l 521 521 l 781 521 l 781 434 l 694 434 l 694 260 l 608 260 l 608 0 l 521 0 l 521 87 l 434 87 l 434 260 l 347 260 l 347 87 l 260 87 l 260 0 z "},"x":{"ha":781,"x_min":0,"x_max":0,"o":"m 0 0 l 0 87 l 87 87 l 87 174 l 174 174 l 174 347 l 87 347 l 87 434 l 0 434 l 0 521 l 260 521 l 260 347 l 434 347 l 434 521 l 694 521 l 694 434 l 608 434 l 608 347 l 521 347 l 521 174 l 608 174 l 608 87 l 694 87 l 694 0 l 434 0 l 434 174 l 260 174 l 260 0 z "},"y":{"ha":781,"x_min":0,"x_max":0,"o":"m 0 -260 l 0 -174 l 174 -174 l 174 0 l 260 0 l 260 87 l 174 87 l 174 260 l 87 260 l 87 434 l 0 434 l 0 521 l 347 521 l 347 434 l 260 434 l 260 174 l 347 174 l 347 347 l 434 347 l 434 521 l 694 521 l 694 434 l 608 434 l 608 347 l 521 347 l 521 174 l 434 174 l 434 0 l 347 0 l 347 -174 l 434 -174 l 434 -260 z "},"z":{"ha":608,"x_min":0,"x_max":0,"o":"m 0 0 l 0 174 l 87 174 l 87 260 l 174 260 l 174 347 l 260 347 l 260 434 l 87 434 l 87 347 l 0 347 l 0 521 l 521 521 l 521 434 l 434 434 l 434 347 l 347 347 l 347 260 l 260 260 l 260 174 l 174 174 l 174 87 l 434 87 l 434 174 l 521 174 l 521 0 z "},"{":{"ha":434,"x_min":0,"x_max":0,"o":"m 174 -174 l 174 -87 l 87 -87 l 87 260 l 0 260 l 0 347 l 87 347 l 87 694 l 174 694 l 174 781 l 347 781 l 347 694 l 260 694 l 260 347 l 174 347 l 174 260 l 260 260 l 260 -87 l 347 -87 l 347 -174 z "},"|":{"ha":260,"x_min":0,"x_max":0,"o":"m 0 -174 l 0 694 l 174 694 l 174 -174 z "},"}":{"ha":434,"x_min":0,"x_max":0,"o":"m 0 -174 l 0 -87 l 87 -87 l 87 260 l 174 260 l 174 347 l 87 347 l 87 694 l 0 694 l 0 781 l 174 781 l 174 694 l 260 694 l 260 347 l 347 347 l 347 260 l 260 260 l 260 -87 l 174 -87 l 174 -174 z "},"~":{"ha":521,"x_min":0,"x_max":0,"o":"m 260 174 l 260 260 l 347 260 l 347 174 z m 0 260 l 0 347 l 87 347 l 87 260 z m 174 260 l 174 347 l 260 347 l 260 260 z m 347 260 l 347 347 l 434 347 l 434 260 z m 87 347 l 87 434 l 174 434 l 174 347 z "}," ":{"ha":87,"x_min":0,"x_max":0,"o":""},"¡":{"ha":260,"x_min":0,"x_max":0,"o":"m 0 -260 l 0 347 l 174 347 l 174 -260 z m 0 434 l 0 521 l 174 521 l 174 434 z "},"¢":{"ha":608,"x_min":0,"x_max":0,"o":"m 434 174 l 434 260 l 521 260 l 521 174 z m 260 -87 l 260 87 l 174 87 l 174 174 l 87 174 l 87 260 l 0 260 l 0 521 l 87 521 l 87 608 l 174 608 l 174 694 l 260 694 l 260 868 l 347 868 l 347 694 l 521 694 l 521 434 l 434 434 l 434 608 l 260 608 l 260 521 l 174 521 l 174 260 l 260 260 l 260 174 l 434 174 l 434 87 l 347 87 l 347 -87 z "},"£":{"ha":694,"x_min":0,"x_max":0,"o":"m 434 521 l 434 608 l 521 608 l 521 521 z m 0 0 l 0 87 l 87 87 l 87 174 l 174 174 l 174 347 l 0 347 l 0 434 l 87 434 l 87 608 l 174 608 l 174 694 l 434 694 l 434 608 l 260 608 l 260 434 l 434 434 l 434 347 l 347 347 l 347 174 l 260 174 l 260 87 l 434 87 l 434 174 l 608 174 l 608 0 z "},"¤":{"ha":781,"x_min":0,"x_max":0,"o":"m 434 174 l 434 434 l 260 434 l 260 174 z m 0 0 l 0 174 l 87 174 l 87 434 l 0 434 l 0 608 l 174 608 l 174 521 l 521 521 l 521 608 l 694 608 l 694 434 l 608 434 l 608 174 l 694 174 l 694 0 l 521 0 l 521 87 l 174 87 l 174 0 z "},"¥":{"ha":781,"x_min":0,"x_max":0,"o":"m 87 0 l 87 87 l 260 87 l 260 174 l 87 174 l 87 260 l 260 260 l 260 347 l 87 347 l 87 434 l 174 434 l 174 521 l 87 521 l 87 608 l 0 608 l 0 694 l 347 694 l 347 608 l 260 608 l 260 521 l 347 521 l 347 434 l 434 434 l 434 694 l 694 694 l 694 608 l 608 608 l 608 521 l 521 521 l 521 434 l 608 434 l 608 347 l 434 347 l 434 260 l 608 260 l 608 174 l 434 174 l 434 87 l 608 87 l 608 0 z "},"¦":{"ha":260,"x_min":0,"x_max":0,"o":"m 0 -174 l 0 260 l 174 260 l 174 -174 z m 0 347 l 0 781 l 174 781 l 174 347 z "},"§":{"ha":608,"x_min":0,"x_max":0,"o":"m 87 -87 l 87 174 l 174 174 l 174 0 l 347 0 l 347 -87 z m 260 174 l 260 260 l 347 260 l 347 174 z m 87 260 l 87 347 l 260 347 l 260 260 z m 347 0 l 347 174 l 434 174 l 434 347 l 521 347 l 521 87 l 434 87 l 434 0 z m 260 347 l 260 434 l 434 434 l 434 347 z m 174 434 l 174 521 l 260 521 l 260 434 z m 0 347 l 0 608 l 87 608 l 87 694 l 174 694 l 174 521 l 87 521 l 87 347 z m 347 521 l 347 694 l 174 694 l 174 781 l 434 781 l 434 521 z "},"¨":{"ha":434,"x_min":0,"x_max":0,"o":"m 0 608 l 0 694 l 87 694 l 87 608 z m 260 608 l 260 694 l 347 694 l 347 608 z "},"©":{"ha":781,"x_min":0,"x_max":0,"o":"m 174 0 l 174 87 l 521 87 l 521 0 z m 87 87 l 87 174 l 174 174 l 174 87 z m 521 87 l 521 174 l 608 174 l 608 87 z m 260 174 l 260 260 l 521 260 l 521 174 z m 174 260 l 174 434 l 260 434 l 260 260 z m 0 174 l 0 521 l 87 521 l 87 174 z m 434 347 l 434 434 l 260 434 l 260 521 l 521 521 l 521 347 z m 608 174 l 608 521 l 694 521 l 694 174 z m 87 521 l 87 608 l 174 608 l 174 521 z m 521 521 l 521 608 l 608 608 l 608 521 z m 174 608 l 174 694 l 521 694 l 521 608 z "},"ª":{"ha":521,"x_min":0,"x_max":0,"o":"m 0 521 l 0 608 l 87 608 l 87 521 z m 87 434 l 87 521 l 260 521 l 260 608 l 87 608 l 87 694 l 0 694 l 0 781 l 260 781 l 260 694 l 347 694 l 347 521 l 434 521 l 434 434 z "},"«":{"ha":694,"x_min":0,"x_max":0,"o":"m 174 0 l 174 87 l 260 87 l 260 0 z m 521 0 l 521 87 l 608 87 l 608 0 z m 87 87 l 87 174 l 174 174 l 174 87 z m 434 87 l 434 174 l 521 174 l 521 87 z m 0 174 l 0 347 l 87 347 l 87 174 z m 347 174 l 347 347 l 434 347 l 434 174 z m 87 347 l 87 434 l 174 434 l 174 347 z m 434 347 l 434 434 l 521 434 l 521 347 z m 174 434 l 174 521 l 260 521 l 260 434 z m 521 434 l 521 521 l 608 521 l 608 434 z "},"¬":{"ha":694,"x_min":0,"x_max":0,"o":"m 521 0 l 521 260 l 0 260 l 0 347 l 608 347 l 608 0 z "},"­":{"ha":608,"x_min":0,"x_max":0,"o":"m 0 260 l 0 347 l 521 347 l 521 260 z "},"®":{"ha":781,"x_min":0,"x_max":0,"o":"m 174 0 l 174 87 l 521 87 l 521 0 z m 87 87 l 87 174 l 174 174 l 174 87 z m 521 87 l 521 174 l 608 174 l 608 87 z m 434 174 l 434 260 l 521 260 l 521 174 z m 0 174 l 0 521 l 87 521 l 87 174 z m 174 174 l 174 260 l 260 260 l 260 434 l 174 434 l 174 521 l 521 521 l 521 347 l 434 347 l 434 434 l 347 434 l 347 347 l 434 347 l 434 260 l 347 260 l 347 174 z m 608 174 l 608 521 l 694 521 l 694 174 z m 87 521 l 87 608 l 174 608 l 174 521 z m 521 521 l 521 608 l 608 608 l 608 521 z m 174 608 l 174 694 l 521 694 l 521 608 z "},"¯":{"ha":868,"x_min":0,"x_max":0,"o":"m 0 781 l 0 868 l 781 868 l 781 781 z "},"°":{"ha":434,"x_min":0,"x_max":0,"o":"m 87 434 l 87 521 l 260 521 l 260 434 z m 0 521 l 0 694 l 87 694 l 87 521 z m 260 521 l 260 694 l 347 694 l 347 521 z m 87 694 l 87 781 l 260 781 l 260 694 z "},"±":{"ha":694,"x_min":0,"x_max":0,"o":"m 0 0 l 0 87 l 608 87 l 608 0 z m 260 174 l 260 434 l 0 434 l 0 521 l 260 521 l 260 781 l 347 781 l 347 521 l 608 521 l 608 434 l 347 434 l 347 174 z "},"²":{"ha":347,"x_min":0,"x_max":0,"o":"m 0 347 l 0 434 l 87 434 l 87 521 l 174 521 l 174 434 l 260 434 l 260 347 z m 174 521 l 174 694 l 0 694 l 0 781 l 260 781 l 260 521 z "},"³":{"ha":434,"x_min":0,"x_max":0,"o":"m 0 347 l 0 434 l 260 434 l 260 521 l 347 521 l 347 347 z m 87 521 l 87 608 l 260 608 l 260 521 z m 260 608 l 260 694 l 0 694 l 0 781 l 347 781 l 347 608 z "},"´":{"ha":260,"x_min":0,"x_max":0,"o":"m 0 608 l 0 694 l 87 694 l 87 608 z m 87 694 l 87 781 l 174 781 l 174 694 z "},"µ":{"ha":781,"x_min":0,"x_max":0,"o":"m 87 -260 l 87 434 l 0 434 l 0 521 l 260 521 l 260 87 l 434 87 l 434 434 l 347 434 l 347 521 l 608 521 l 608 87 l 694 87 l 694 0 l 260 0 l 260 -260 z "},"¶":{"ha":694,"x_min":0,"x_max":0,"o":"m 260 434 l 260 694 l 174 694 l 174 434 z m 434 0 l 434 694 l 347 694 l 347 0 z m 87 -87 l 87 0 l 260 0 l 260 347 l 87 347 l 87 434 l 0 434 l 0 694 l 87 694 l 87 781 l 608 781 l 608 694 l 521 694 l 521 0 l 608 0 l 608 -87 z "},"·":{"ha":260,"x_min":0,"x_max":0,"o":"m 0 260 l 0 434 l 174 434 l 174 260 z "},"¸":{"ha":347,"x_min":0,"x_max":0,"o":"m 0 -347 l 0 -260 l 174 -260 l 174 -174 l 87 -174 l 87 87 l 174 87 l 174 -87 l 260 -87 l 260 -347 z "},"¹":{"ha":347,"x_min":0,"x_max":0,"o":"m 0 347 l 0 434 l 87 434 l 87 694 l 0 694 l 0 781 l 174 781 l 174 434 l 260 434 l 260 347 z "},"º":{"ha":521,"x_min":0,"x_max":0,"o":"m 87 434 l 87 521 l 347 521 l 347 434 z m 0 521 l 0 694 l 87 694 l 87 521 z m 347 521 l 347 694 l 434 694 l 434 521 z m 87 694 l 87 781 l 347 781 l 347 694 z "},"»":{"ha":694,"x_min":0,"x_max":0,"o":"m 0 0 l 0 87 l 87 87 l 87 0 z m 347 0 l 347 87 l 434 87 l 434 0 z m 87 87 l 87 174 l 174 174 l 174 87 z m 434 87 l 434 174 l 521 174 l 521 87 z m 174 174 l 174 347 l 260 347 l 260 174 z m 521 174 l 521 347 l 608 347 l 608 174 z m 87 347 l 87 434 l 174 434 l 174 347 z m 434 347 l 434 434 l 521 434 l 521 347 z m 0 434 l 0 521 l 87 521 l 87 434 z m 347 434 l 347 521 l 434 521 l 434 434 z "},"¼":{"ha":781,"x_min":0,"x_max":0,"o":"m 174 174 l 174 260 l 260 260 l 260 174 z m 260 260 l 260 347 l 347 347 l 347 260 z m 434 0 l 434 87 l 521 87 l 521 174 l 347 174 l 347 260 l 434 260 l 434 347 l 347 347 l 347 521 l 434 521 l 434 434 l 608 434 l 608 260 l 694 260 l 694 174 l 608 174 l 608 87 l 694 87 l 694 0 z m 434 521 l 434 608 l 521 608 l 521 521 z m 521 608 l 521 694 l 608 694 l 608 608 z m 0 347 l 0 434 l 87 434 l 87 694 l 0 694 l 0 781 l 174 781 l 174 434 l 260 434 l 260 347 z "},"½":{"ha":781,"x_min":0,"x_max":0,"o":"m 347 0 l 347 87 l 434 87 l 434 174 l 521 174 l 521 87 l 694 87 l 694 0 z m 87 174 l 87 260 l 174 260 l 174 174 z m 521 174 l 521 260 l 608 260 l 608 174 z m 521 521 l 521 608 l 608 608 l 608 521 z m 174 260 l 174 347 l 0 347 l 0 434 l 87 434 l 87 694 l 0 694 l 0 781 l 174 781 l 174 434 l 347 434 l 347 521 l 521 521 l 521 434 l 694 434 l 694 260 l 608 260 l 608 347 l 260 347 l 260 260 z "},"¾":{"ha":781,"x_min":0,"x_max":0,"o":"m 87 174 l 87 260 l 174 260 l 174 174 z m 434 0 l 434 87 l 521 87 l 521 174 l 347 174 l 347 260 l 434 260 l 434 434 l 347 434 l 347 347 l 260 347 l 260 260 l 174 260 l 174 347 l 0 347 l 0 434 l 260 434 l 260 521 l 521 521 l 521 434 l 608 434 l 608 260 l 694 260 l 694 174 l 608 174 l 608 87 l 694 87 l 694 0 z m 87 521 l 87 608 l 260 608 l 260 521 z m 521 521 l 521 608 l 608 608 l 608 521 z m 260 608 l 260 694 l 0 694 l 0 781 l 347 781 l 347 608 z "},"¿":{"ha":521,"x_min":0,"x_max":0,"o":"m 87 -260 l 87 -174 l 0 -174 l 0 174 l 87 174 l 87 347 l 260 347 l 260 87 l 174 87 l 174 -174 l 260 -174 l 260 -87 l 434 -87 l 434 -174 l 347 -174 l 347 -260 z m 87 434 l 87 521 l 260 521 l 260 434 z "},"À":{"ha":868,"x_min":0,"x_max":0,"o":"m 434 260 l 434 521 l 347 521 l 347 260 z m 0 0 l 0 87 l 87 87 l 87 260 l 174 260 l 174 521 l 260 521 l 260 608 l 87 608 l 87 694 l 521 694 l 521 521 l 608 521 l 608 260 l 694 260 l 694 87 l 781 87 l 781 0 l 434 0 l 434 87 l 521 87 l 521 174 l 260 174 l 260 87 l 347 87 l 347 0 z m 347 781 l 347 868 l 434 868 l 434 781 z m 260 868 l 260 955 l 347 955 l 347 868 z "},"Á":{"ha":868,"x_min":0,"x_max":0,"o":"m 434 260 l 434 521 l 347 521 l 347 260 z m 0 0 l 0 87 l 87 87 l 87 260 l 174 260 l 174 521 l 260 521 l 260 608 l 87 608 l 87 694 l 521 694 l 521 521 l 608 521 l 608 260 l 694 260 l 694 87 l 781 87 l 781 0 l 434 0 l 434 87 l 521 87 l 521 174 l 260 174 l 260 87 l 347 87 l 347 0 z m 260 781 l 260 868 l 347 868 l 347 781 z m 347 868 l 347 955 l 434 955 l 434 868 z "},"Â":{"ha":868,"x_min":0,"x_max":0,"o":"m 434 260 l 434 521 l 347 521 l 347 260 z m 0 0 l 0 87 l 87 87 l 87 260 l 174 260 l 174 521 l 260 521 l 260 608 l 87 608 l 87 694 l 521 694 l 521 521 l 608 521 l 608 260 l 694 260 l 694 87 l 781 87 l 781 0 l 434 0 l 434 87 l 521 87 l 521 174 l 260 174 l 260 87 l 347 87 l 347 0 z m 174 781 l 174 868 l 260 868 l 260 781 z m 434 781 l 434 868 l 521 868 l 521 781 z m 260 868 l 260 955 l 434 955 l 434 868 z "},"Ã":{"ha":868,"x_min":0,"x_max":0,"o":"m 434 260 l 434 521 l 347 521 l 347 260 z m 0 0 l 0 87 l 87 87 l 87 260 l 174 260 l 174 521 l 260 521 l 260 608 l 87 608 l 87 694 l 521 694 l 521 521 l 608 521 l 608 260 l 694 260 l 694 87 l 781 87 l 781 0 l 434 0 l 434 87 l 521 87 l 521 174 l 260 174 l 260 87 l 347 87 l 347 0 z m 174 781 l 174 955 l 347 955 l 347 868 l 260 868 l 260 781 z m 347 781 l 347 868 l 434 868 l 434 955 l 521 955 l 521 781 z "},"Ä":{"ha":868,"x_min":0,"x_max":0,"o":"m 434 260 l 434 521 l 347 521 l 347 260 z m 0 0 l 0 87 l 87 87 l 87 260 l 174 260 l 174 521 l 260 521 l 260 608 l 87 608 l 87 694 l 521 694 l 521 521 l 608 521 l 608 260 l 694 260 l 694 87 l 781 87 l 781 0 l 434 0 l 434 87 l 521 87 l 521 174 l 260 174 l 260 87 l 347 87 l 347 0 z m 174 781 l 174 868 l 260 868 l 260 781 z m 434 781 l 434 868 l 521 868 l 521 781 z "},"Å":{"ha":868,"x_min":0,"x_max":0,"o":"m 434 260 l 434 521 l 347 521 l 347 260 z m 0 0 l 0 87 l 87 87 l 87 260 l 174 260 l 174 521 l 260 521 l 260 608 l 87 608 l 87 694 l 521 694 l 521 521 l 608 521 l 608 260 l 694 260 l 694 87 l 781 87 l 781 0 l 434 0 l 434 87 l 521 87 l 521 174 l 260 174 l 260 87 l 347 87 l 347 0 z m 434 868 l 434 955 l 347 955 l 347 868 z m 260 781 l 260 1042 l 521 1042 l 521 781 z "},"Æ":{"ha":955,"x_min":0,"x_max":0,"o":"m 347 87 l 347 174 l 174 174 l 174 87 z m 0 0 l 0 87 l 87 87 l 87 260 l 174 260 l 174 521 l 260 521 l 260 260 l 347 260 l 347 521 l 260 521 l 260 608 l 174 608 l 174 694 l 868 694 l 868 434 l 781 434 l 781 608 l 521 608 l 521 434 l 608 434 l 608 521 l 694 521 l 694 260 l 608 260 l 608 347 l 521 347 l 521 87 l 781 87 l 781 260 l 868 260 l 868 0 z "},"Ç":{"ha":608,"x_min":0,"x_max":0,"o":"m 434 87 l 434 174 l 521 174 l 521 87 z m 174 -347 l 174 -260 l 347 -260 l 347 -174 l 260 -174 l 260 0 l 174 0 l 174 87 l 87 87 l 87 174 l 0 174 l 0 521 l 87 521 l 87 608 l 174 608 l 174 694 l 521 694 l 521 521 l 434 521 l 434 608 l 260 608 l 260 521 l 174 521 l 174 174 l 260 174 l 260 87 l 434 87 l 434 0 l 347 0 l 347 -87 l 434 -87 l 434 -347 z "},"È":{"ha":694,"x_min":0,"x_max":0,"o":"m 0 0 l 0 87 l 87 87 l 87 608 l 0 608 l 0 694 l 608 694 l 608 434 l 521 434 l 521 608 l 260 608 l 260 434 l 347 434 l 347 521 l 434 521 l 434 260 l 347 260 l 347 347 l 260 347 l 260 87 l 521 87 l 521 260 l 608 260 l 608 0 z m 347 781 l 347 868 l 434 868 l 434 781 z m 260 868 l 260 955 l 347 955 l 347 868 z "},"É":{"ha":694,"x_min":0,"x_max":0,"o":"m 0 0 l 0 87 l 87 87 l 87 608 l 0 608 l 0 694 l 608 694 l 608 434 l 521 434 l 521 608 l 260 608 l 260 434 l 347 434 l 347 521 l 434 521 l 434 260 l 347 260 l 347 347 l 260 347 l 260 87 l 521 87 l 521 260 l 608 260 l 608 0 z m 260 781 l 260 868 l 347 868 l 347 781 z m 347 868 l 347 955 l 434 955 l 434 868 z "},"Ê":{"ha":694,"x_min":0,"x_max":0,"o":"m 0 0 l 0 87 l 87 87 l 87 608 l 0 608 l 0 694 l 608 694 l 608 434 l 521 434 l 521 608 l 260 608 l 260 434 l 347 434 l 347 521 l 434 521 l 434 260 l 347 260 l 347 347 l 260 347 l 260 87 l 521 87 l 521 260 l 608 260 l 608 0 z m 260 781 l 260 868 l 347 868 l 347 781 z m 434 781 l 434 868 l 521 868 l 521 781 z m 347 868 l 347 955 l 434 955 l 434 868 z "},"Ë":{"ha":694,"x_min":0,"x_max":0,"o":"m 0 0 l 0 87 l 87 87 l 87 608 l 0 608 l 0 694 l 608 694 l 608 434 l 521 434 l 521 608 l 260 608 l 260 434 l 347 434 l 347 521 l 434 521 l 434 260 l 347 260 l 347 347 l 260 347 l 260 87 l 521 87 l 521 260 l 608 260 l 608 0 z m 174 781 l 174 868 l 260 868 l 260 781 z m 434 781 l 434 868 l 521 868 l 521 781 z "},"Ì":{"ha":608,"x_min":0,"x_max":0,"o":"m 0 0 l 0 87 l 174 87 l 174 608 l 0 608 l 0 694 l 521 694 l 521 608 l 347 608 l 347 87 l 521 87 l 521 0 z m 260 781 l 260 868 l 347 868 l 347 781 z m 174 868 l 174 955 l 260 955 l 260 868 z "},"Í":{"ha":608,"x_min":0,"x_max":0,"o":"m 0 0 l 0 87 l 174 87 l 174 608 l 0 608 l 0 694 l 521 694 l 521 608 l 347 608 l 347 87 l 521 87 l 521 0 z m 174 781 l 174 868 l 260 868 l 260 781 z m 260 868 l 260 955 l 347 955 l 347 868 z "},"Î":{"ha":608,"x_min":0,"x_max":0,"o":"m 0 0 l 0 87 l 174 87 l 174 608 l 0 608 l 0 694 l 521 694 l 521 608 l 347 608 l 347 87 l 521 87 l 521 0 z m 174 781 l 174 868 l 260 868 l 260 781 z m 347 781 l 347 868 l 434 868 l 434 781 z m 260 868 l 260 955 l 347 955 l 347 868 z "},"Ï":{"ha":608,"x_min":0,"x_max":0,"o":"m 0 0 l 0 87 l 174 87 l 174 608 l 0 608 l 0 694 l 521 694 l 521 608 l 347 608 l 347 87 l 521 87 l 521 0 z m 87 781 l 87 868 l 174 868 l 174 781 z m 347 781 l 347 868 l 434 868 l 434 781 z "},"Ð":{"ha":694,"x_min":0,"x_max":0,"o":"m 347 87 l 347 174 l 434 174 l 434 521 l 347 521 l 347 608 l 260 608 l 260 434 l 347 434 l 347 347 l 260 347 l 260 87 z m 0 0 l 0 87 l 87 87 l 87 347 l 0 347 l 0 434 l 87 434 l 87 608 l 0 608 l 0 694 l 434 694 l 434 608 l 521 608 l 521 521 l 608 521 l 608 174 l 521 174 l 521 87 l 434 87 l 434 0 z "},"Ñ":{"ha":781,"x_min":0,"x_max":0,"o":"m 0 0 l 0 87 l 87 87 l 87 608 l 0 608 l 0 694 l 260 694 l 260 521 l 347 521 l 347 347 l 260 347 l 260 87 l 347 87 l 347 0 z m 434 0 l 434 174 l 347 174 l 347 347 l 434 347 l 434 608 l 347 608 l 347 694 l 694 694 l 694 608 l 608 608 l 608 0 z m 174 781 l 174 955 l 347 955 l 347 868 l 260 868 l 260 781 z m 347 781 l 347 868 l 434 868 l 434 955 l 521 955 l 521 781 z "},"Ò":{"ha":608,"x_min":0,"x_max":0,"o":"m 347 87 l 347 608 l 174 608 l 174 87 z m 87 0 l 87 87 l 0 87 l 0 608 l 87 608 l 87 694 l 434 694 l 434 608 l 521 608 l 521 87 l 434 87 l 434 0 z m 260 781 l 260 868 l 347 868 l 347 781 z m 174 868 l 174 955 l 260 955 l 260 868 z "},"Ó":{"ha":608,"x_min":0,"x_max":0,"o":"m 347 87 l 347 608 l 174 608 l 174 87 z m 87 0 l 87 87 l 0 87 l 0 608 l 87 608 l 87 694 l 434 694 l 434 608 l 521 608 l 521 87 l 434 87 l 434 0 z m 174 781 l 174 868 l 260 868 l 260 781 z m 260 868 l 260 955 l 347 955 l 347 868 z "},"Ô":{"ha":608,"x_min":0,"x_max":0,"o":"m 347 87 l 347 608 l 174 608 l 174 87 z m 87 0 l 87 87 l 0 87 l 0 608 l 87 608 l 87 694 l 434 694 l 434 608 l 521 608 l 521 87 l 434 87 l 434 0 z m 174 781 l 174 868 l 260 868 l 260 781 z m 347 781 l 347 868 l 434 868 l 434 781 z m 260 868 l 260 955 l 347 955 l 347 868 z "},"Õ":{"ha":608,"x_min":0,"x_max":0,"o":"m 347 87 l 347 608 l 174 608 l 174 87 z m 87 0 l 87 87 l 0 87 l 0 608 l 87 608 l 87 694 l 434 694 l 434 608 l 521 608 l 521 87 l 434 87 l 434 0 z m 87 781 l 87 955 l 260 955 l 260 868 l 174 868 l 174 781 z m 260 781 l 260 868 l 347 868 l 347 955 l 434 955 l 434 781 z "},"Ö":{"ha":608,"x_min":0,"x_max":0,"o":"m 347 87 l 347 608 l 174 608 l 174 87 z m 87 0 l 87 87 l 0 87 l 0 608 l 87 608 l 87 694 l 434 694 l 434 608 l 521 608 l 521 87 l 434 87 l 434 0 z m 87 781 l 87 868 l 174 868 l 174 781 z m 347 781 l 347 868 l 434 868 l 434 781 z "},"×":{"ha":694,"x_min":0,"x_max":0,"o":"m 87 87 l 87 174 l 174 174 l 174 87 z m 521 87 l 521 174 l 608 174 l 608 87 z m 174 174 l 174 260 l 260 260 l 260 174 z m 434 174 l 434 260 l 521 260 l 521 174 z m 260 260 l 260 434 l 434 434 l 434 260 z m 174 434 l 174 521 l 260 521 l 260 434 z m 434 434 l 434 521 l 521 521 l 521 434 z m 87 521 l 87 608 l 174 608 l 174 521 z m 521 521 l 521 608 l 608 608 l 608 521 z "},"Ø":{"ha":608,"x_min":0,"x_max":0,"o":"m 347 87 l 347 260 l 260 260 l 260 87 z m 260 434 l 260 608 l 174 608 l 174 434 z m 0 -87 l 0 87 l 87 87 l 87 174 l 0 174 l 0 608 l 87 608 l 87 694 l 347 694 l 347 781 l 521 781 l 521 608 l 434 608 l 434 521 l 521 521 l 521 87 l 434 87 l 434 0 l 174 0 l 174 -87 z "},"Ù":{"ha":781,"x_min":0,"x_max":0,"o":"m 174 0 l 174 87 l 87 87 l 87 608 l 0 608 l 0 694 l 260 694 l 260 87 l 434 87 l 434 694 l 694 694 l 694 608 l 608 608 l 608 87 l 521 87 l 521 0 z m 347 781 l 347 868 l 434 868 l 434 781 z m 260 868 l 260 955 l 347 955 l 347 868 z "},"Ú":{"ha":781,"x_min":0,"x_max":0,"o":"m 174 0 l 174 87 l 87 87 l 87 608 l 0 608 l 0 694 l 260 694 l 260 87 l 434 87 l 434 694 l 694 694 l 694 608 l 608 608 l 608 87 l 521 87 l 521 0 z m 260 781 l 260 868 l 347 868 l 347 781 z m 347 868 l 347 955 l 434 955 l 434 868 z "},"Û":{"ha":781,"x_min":0,"x_max":0,"o":"m 174 0 l 174 87 l 87 87 l 87 608 l 0 608 l 0 694 l 260 694 l 260 87 l 434 87 l 434 694 l 694 694 l 694 608 l 608 608 l 608 87 l 521 87 l 521 0 z m 260 781 l 260 868 l 347 868 l 347 781 z m 434 781 l 434 868 l 521 868 l 521 781 z m 347 868 l 347 955 l 434 955 l 434 868 z "},"Ü":{"ha":781,"x_min":0,"x_max":0,"o":"m 174 0 l 174 87 l 87 87 l 87 608 l 0 608 l 0 694 l 260 694 l 260 87 l 434 87 l 434 694 l 694 694 l 694 608 l 608 608 l 608 87 l 521 87 l 521 0 z m 174 781 l 174 868 l 260 868 l 260 781 z m 434 781 l 434 868 l 521 868 l 521 781 z "},"Ý":{"ha":781,"x_min":0,"x_max":0,"o":"m 87 0 l 87 87 l 260 87 l 260 347 l 174 347 l 174 521 l 87 521 l 87 608 l 0 608 l 0 694 l 260 694 l 260 434 l 434 434 l 434 608 l 347 608 l 347 694 l 694 694 l 694 608 l 608 608 l 608 521 l 521 521 l 521 347 l 434 347 l 434 87 l 608 87 l 608 0 z m 260 781 l 260 868 l 347 868 l 347 781 z m 347 868 l 347 955 l 434 955 l 434 868 z "},"Þ":{"ha":781,"x_min":0,"x_max":0,"o":"m 521 260 l 521 434 l 260 434 l 260 260 z m 0 0 l 0 87 l 87 87 l 87 608 l 0 608 l 0 694 l 521 694 l 521 608 l 260 608 l 260 521 l 608 521 l 608 434 l 694 434 l 694 260 l 608 260 l 608 174 l 260 174 l 260 87 l 521 87 l 521 0 z "},"ß":{"ha":694,"x_min":0,"x_max":0,"o":"m 0 0 l 0 87 l 87 87 l 87 694 l 174 694 l 174 781 l 521 781 l 521 694 l 608 694 l 608 521 l 521 521 l 521 434 l 608 434 l 608 87 l 521 87 l 521 0 l 347 0 l 347 87 l 434 87 l 434 434 l 347 434 l 347 521 l 434 521 l 434 694 l 260 694 l 260 0 z "},"à":{"ha":694,"x_min":0,"x_max":0,"o":"m 347 87 l 347 260 l 174 260 l 174 87 z m 87 0 l 87 87 l 0 87 l 0 260 l 87 260 l 87 347 l 347 347 l 347 434 l 87 434 l 87 521 l 434 521 l 434 434 l 521 434 l 521 87 l 608 87 l 608 0 z m 260 608 l 260 694 l 347 694 l 347 608 z m 174 694 l 174 781 l 260 781 l 260 694 z "},"á":{"ha":694,"x_min":0,"x_max":0,"o":"m 347 87 l 347 260 l 174 260 l 174 87 z m 87 0 l 87 87 l 0 87 l 0 260 l 87 260 l 87 347 l 347 347 l 347 434 l 87 434 l 87 521 l 434 521 l 434 434 l 521 434 l 521 87 l 608 87 l 608 0 z m 174 608 l 174 694 l 260 694 l 260 608 z m 260 694 l 260 781 l 347 781 l 347 694 z "},"â":{"ha":694,"x_min":0,"x_max":0,"o":"m 347 87 l 347 260 l 174 260 l 174 87 z m 87 0 l 87 87 l 0 87 l 0 260 l 87 260 l 87 347 l 347 347 l 347 434 l 87 434 l 87 521 l 434 521 l 434 434 l 521 434 l 521 87 l 608 87 l 608 0 z m 174 608 l 174 694 l 260 694 l 260 608 z m 347 608 l 347 694 l 434 694 l 434 608 z m 260 694 l 260 781 l 347 781 l 347 694 z "},"ã":{"ha":694,"x_min":0,"x_max":0,"o":"m 347 87 l 347 260 l 174 260 l 174 87 z m 87 0 l 87 87 l 0 87 l 0 260 l 87 260 l 87 347 l 347 347 l 347 434 l 87 434 l 87 521 l 434 521 l 434 434 l 521 434 l 521 87 l 608 87 l 608 0 z m 87 608 l 87 781 l 260 781 l 260 694 l 174 694 l 174 608 z m 260 608 l 260 694 l 347 694 l 347 781 l 434 781 l 434 608 z "},"ä":{"ha":694,"x_min":0,"x_max":0,"o":"m 347 87 l 347 260 l 174 260 l 174 87 z m 87 0 l 87 87 l 0 87 l 0 260 l 87 260 l 87 347 l 347 347 l 347 434 l 87 434 l 87 521 l 434 521 l 434 434 l 521 434 l 521 87 l 608 87 l 608 0 z m 87 608 l 87 694 l 174 694 l 174 608 z m 347 608 l 347 694 l 434 694 l 434 608 z "},"å":{"ha":694,"x_min":0,"x_max":0,"o":"m 347 87 l 347 260 l 174 260 l 174 87 z m 87 0 l 87 87 l 0 87 l 0 260 l 87 260 l 87 347 l 347 347 l 347 434 l 87 434 l 87 521 l 434 521 l 434 434 l 521 434 l 521 87 l 608 87 l 608 0 z m 260 694 l 260 781 l 174 781 l 174 694 z m 87 608 l 87 868 l 347 868 l 347 608 z "},"æ":{"ha":781,"x_min":0,"x_max":0,"o":"m 608 87 l 608 174 l 694 174 l 694 87 z m 260 87 l 260 260 l 174 260 l 174 87 z m 521 347 l 521 434 l 434 434 l 434 347 z m 87 0 l 87 87 l 0 87 l 0 260 l 87 260 l 87 347 l 260 347 l 260 434 l 87 434 l 87 521 l 608 521 l 608 434 l 694 434 l 694 260 l 434 260 l 434 87 l 608 87 l 608 0 z "},"ç":{"ha":608,"x_min":0,"x_max":0,"o":"m 434 87 l 434 174 l 521 174 l 521 87 z m 174 -347 l 174 -260 l 347 -260 l 347 -174 l 260 -174 l 260 0 l 87 0 l 87 87 l 0 87 l 0 434 l 87 434 l 87 521 l 521 521 l 521 260 l 434 260 l 434 434 l 174 434 l 174 87 l 434 87 l 434 0 l 347 0 l 347 -87 l 434 -87 l 434 -347 z "},"è":{"ha":608,"x_min":0,"x_max":0,"o":"m 434 87 l 434 174 l 521 174 l 521 87 z m 347 347 l 347 434 l 174 434 l 174 347 z m 87 0 l 87 87 l 0 87 l 0 434 l 87 434 l 87 521 l 434 521 l 434 434 l 521 434 l 521 260 l 174 260 l 174 87 l 434 87 l 434 0 z m 260 608 l 260 694 l 347 694 l 347 608 z m 174 694 l 174 781 l 260 781 l 260 694 z "},"é":{"ha":608,"x_min":0,"x_max":0,"o":"m 434 87 l 434 174 l 521 174 l 521 87 z m 347 347 l 347 434 l 174 434 l 174 347 z m 87 0 l 87 87 l 0 87 l 0 434 l 87 434 l 87 521 l 434 521 l 434 434 l 521 434 l 521 260 l 174 260 l 174 87 l 434 87 l 434 0 z m 174 608 l 174 694 l 260 694 l 260 608 z m 260 694 l 260 781 l 347 781 l 347 694 z "},"ê":{"ha":608,"x_min":0,"x_max":0,"o":"m 434 87 l 434 174 l 521 174 l 521 87 z m 347 347 l 347 434 l 174 434 l 174 347 z m 87 0 l 87 87 l 0 87 l 0 434 l 87 434 l 87 521 l 434 521 l 434 434 l 521 434 l 521 260 l 174 260 l 174 87 l 434 87 l 434 0 z m 174 608 l 174 694 l 260 694 l 260 608 z m 347 608 l 347 694 l 434 694 l 434 608 z m 260 694 l 260 781 l 347 781 l 347 694 z "},"ë":{"ha":608,"x_min":0,"x_max":0,"o":"m 434 87 l 434 174 l 521 174 l 521 87 z m 347 347 l 347 434 l 174 434 l 174 347 z m 87 0 l 87 87 l 0 87 l 0 434 l 87 434 l 87 521 l 434 521 l 434 434 l 521 434 l 521 260 l 174 260 l 174 87 l 434 87 l 434 0 z m 87 608 l 87 694 l 174 694 l 174 608 z m 347 608 l 347 694 l 434 694 l 434 608 z "},"ì":{"ha":608,"x_min":0,"x_max":0,"o":"m 0 0 l 0 87 l 174 87 l 174 434 l 0 434 l 0 521 l 347 521 l 347 87 l 521 87 l 521 0 z m 260 608 l 260 694 l 347 694 l 347 608 z m 174 694 l 174 781 l 260 781 l 260 694 z "},"í":{"ha":608,"x_min":0,"x_max":0,"o":"m 0 0 l 0 87 l 174 87 l 174 434 l 0 434 l 0 521 l 347 521 l 347 87 l 521 87 l 521 0 z m 174 608 l 174 694 l 260 694 l 260 608 z m 260 694 l 260 781 l 347 781 l 347 694 z "},"î":{"ha":608,"x_min":0,"x_max":0,"o":"m 0 0 l 0 87 l 174 87 l 174 434 l 0 434 l 0 521 l 347 521 l 347 87 l 521 87 l 521 0 z m 87 608 l 87 694 l 174 694 l 174 608 z m 260 608 l 260 694 l 347 694 l 347 608 z m 174 694 l 174 781 l 260 781 l 260 694 z "},"ï":{"ha":608,"x_min":0,"x_max":0,"o":"m 0 0 l 0 87 l 174 87 l 174 434 l 0 434 l 0 521 l 347 521 l 347 87 l 521 87 l 521 0 z m 87 608 l 87 694 l 174 694 l 174 608 z m 347 608 l 347 694 l 434 694 l 434 608 z "},"ð":{"ha":608,"x_min":0,"x_max":0,"o":"m 347 87 l 347 434 l 174 434 l 174 87 z m 87 0 l 87 87 l 0 87 l 0 434 l 87 434 l 87 521 l 174 521 l 174 608 l 260 608 l 260 521 l 347 521 l 347 608 l 260 608 l 260 694 l 174 694 l 174 781 l 347 781 l 347 694 l 434 694 l 434 608 l 521 608 l 521 87 l 434 87 l 434 0 z m 434 694 l 434 781 l 521 781 l 521 694 z "},"ñ":{"ha":781,"x_min":0,"x_max":0,"o":"m 0 0 l 0 87 l 87 87 l 87 434 l 0 434 l 0 521 l 521 521 l 521 434 l 608 434 l 608 87 l 694 87 l 694 0 l 434 0 l 434 434 l 260 434 l 260 0 z m 174 608 l 174 781 l 347 781 l 347 694 l 260 694 l 260 608 z m 347 608 l 347 694 l 434 694 l 434 781 l 521 781 l 521 608 z "},"ò":{"ha":608,"x_min":0,"x_max":0,"o":"m 347 87 l 347 434 l 174 434 l 174 87 z m 87 0 l 87 87 l 0 87 l 0 434 l 87 434 l 87 521 l 434 521 l 434 434 l 521 434 l 521 87 l 434 87 l 434 0 z m 260 608 l 260 694 l 347 694 l 347 608 z m 174 694 l 174 781 l 260 781 l 260 694 z "},"ó":{"ha":608,"x_min":0,"x_max":0,"o":"m 347 87 l 347 434 l 174 434 l 174 87 z m 87 0 l 87 87 l 0 87 l 0 434 l 87 434 l 87 521 l 434 521 l 434 434 l 521 434 l 521 87 l 434 87 l 434 0 z m 174 608 l 174 694 l 260 694 l 260 608 z m 260 694 l 260 781 l 347 781 l 347 694 z "},"ô":{"ha":608,"x_min":0,"x_max":0,"o":"m 347 87 l 347 434 l 174 434 l 174 87 z m 87 0 l 87 87 l 0 87 l 0 434 l 87 434 l 87 521 l 434 521 l 434 434 l 521 434 l 521 87 l 434 87 l 434 0 z m 174 608 l 174 694 l 260 694 l 260 608 z m 347 608 l 347 694 l 434 694 l 434 608 z m 260 694 l 260 781 l 347 781 l 347 694 z "},"õ":{"ha":608,"x_min":0,"x_max":0,"o":"m 347 87 l 347 434 l 174 434 l 174 87 z m 87 0 l 87 87 l 0 87 l 0 434 l 87 434 l 87 521 l 434 521 l 434 434 l 521 434 l 521 87 l 434 87 l 434 0 z m 87 608 l 87 781 l 174 781 l 174 694 l 260 694 l 260 608 z m 347 608 l 347 694 l 260 694 l 260 781 l 434 781 l 434 608 z "},"ö":{"ha":608,"x_min":0,"x_max":0,"o":"m 347 87 l 347 434 l 174 434 l 174 87 z m 87 0 l 87 87 l 0 87 l 0 434 l 87 434 l 87 521 l 434 521 l 434 434 l 521 434 l 521 87 l 434 87 l 434 0 z m 87 608 l 87 694 l 174 694 l 174 608 z m 347 608 l 347 694 l 434 694 l 434 608 z "},"÷":{"ha":781,"x_min":0,"x_max":0,"o":"m 260 0 l 260 87 l 434 87 l 434 0 z m 0 260 l 0 347 l 694 347 l 694 260 z m 260 521 l 260 608 l 434 608 l 434 521 z "},"ø":{"ha":608,"x_min":0,"x_max":0,"o":"m 347 87 l 347 260 l 260 260 l 260 434 l 174 434 l 174 260 l 260 260 l 260 174 l 174 174 l 174 87 z m 0 -87 l 0 87 l 87 87 l 87 174 l 0 174 l 0 434 l 87 434 l 87 521 l 434 521 l 434 347 l 521 347 l 521 87 l 434 87 l 434 0 l 87 0 l 87 -87 z m 434 521 l 434 608 l 521 608 l 521 521 z "},"ù":{"ha":781,"x_min":0,"x_max":0,"o":"m 174 0 l 174 87 l 87 87 l 87 434 l 0 434 l 0 521 l 260 521 l 260 87 l 434 87 l 434 434 l 347 434 l 347 521 l 608 521 l 608 87 l 694 87 l 694 0 z m 347 608 l 347 694 l 434 694 l 434 608 z m 260 694 l 260 781 l 347 781 l 347 694 z "},"ú":{"ha":781,"x_min":0,"x_max":0,"o":"m 174 0 l 174 87 l 87 87 l 87 434 l 0 434 l 0 521 l 260 521 l 260 87 l 434 87 l 434 434 l 347 434 l 347 521 l 608 521 l 608 87 l 694 87 l 694 0 z m 260 608 l 260 694 l 347 694 l 347 608 z m 347 694 l 347 781 l 434 781 l 434 694 z "},"û":{"ha":781,"x_min":0,"x_max":0,"o":"m 174 0 l 174 87 l 87 87 l 87 434 l 0 434 l 0 521 l 260 521 l 260 87 l 434 87 l 434 434 l 347 434 l 347 521 l 608 521 l 608 87 l 694 87 l 694 0 z m 174 608 l 174 694 l 260 694 l 260 608 z m 347 608 l 347 694 l 434 694 l 434 608 z m 260 694 l 260 781 l 347 781 l 347 694 z "},"ü":{"ha":781,"x_min":0,"x_max":0,"o":"m 174 0 l 174 87 l 87 87 l 87 434 l 0 434 l 0 521 l 260 521 l 260 87 l 434 87 l 434 434 l 347 434 l 347 521 l 608 521 l 608 87 l 694 87 l 694 0 z m 174 608 l 174 694 l 260 694 l 260 608 z m 434 608 l 434 694 l 521 694 l 521 608 z "},"ý":{"ha":781,"x_min":0,"x_max":0,"o":"m 0 -260 l 0 -174 l 174 -174 l 174 0 l 260 0 l 260 87 l 174 87 l 174 260 l 87 260 l 87 434 l 0 434 l 0 521 l 347 521 l 347 434 l 260 434 l 260 174 l 347 174 l 347 347 l 434 347 l 434 521 l 694 521 l 694 434 l 608 434 l 608 347 l 521 347 l 521 174 l 434 174 l 434 0 l 347 0 l 347 -174 l 434 -174 l 434 -260 z m 260 608 l 260 694 l 347 694 l 347 608 z m 347 694 l 347 781 l 434 781 l 434 694 z "},"þ":{"ha":694,"x_min":0,"x_max":0,"o":"m 347 0 l 347 87 l 434 87 l 434 434 l 347 434 l 347 521 l 521 521 l 521 434 l 608 434 l 608 87 l 521 87 l 521 0 z m 0 -260 l 0 -174 l 87 -174 l 87 694 l 0 694 l 0 781 l 260 781 l 260 434 l 347 434 l 347 347 l 260 347 l 260 174 l 347 174 l 347 87 l 260 87 l 260 -174 l 434 -174 l 434 -260 z "},"ÿ":{"ha":781,"x_min":0,"x_max":0,"o":"m 0 -260 l 0 -174 l 174 -174 l 174 0 l 260 0 l 260 87 l 174 87 l 174 260 l 87 260 l 87 434 l 0 434 l 0 521 l 347 521 l 347 434 l 260 434 l 260 174 l 347 174 l 347 347 l 434 347 l 434 521 l 694 521 l 694 434 l 608 434 l 608 347 l 521 347 l 521 174 l 434 174 l 434 0 l 347 0 l 347 -174 l 434 -174 l 434 -260 z m 174 608 l 174 694 l 260 694 l 260 608 z m 434 608 l 434 694 l 521 694 l 521 608 z "},"Ā":{"ha":868,"x_min":0,"x_max":0,"o":"m 434 260 l 434 521 l 347 521 l 347 260 z m 0 0 l 0 87 l 87 87 l 87 260 l 174 260 l 174 521 l 260 521 l 260 608 l 87 608 l 87 694 l 521 694 l 521 521 l 608 521 l 608 260 l 694 260 l 694 87 l 781 87 l 781 0 l 434 0 l 434 87 l 521 87 l 521 174 l 260 174 l 260 87 l 347 87 l 347 0 z m 174 781 l 174 868 l 521 868 l 521 781 z "},"ā":{"ha":694,"x_min":0,"x_max":0,"o":"m 347 87 l 347 260 l 174 260 l 174 87 z m 87 0 l 87 87 l 0 87 l 0 260 l 87 260 l 87 347 l 347 347 l 347 434 l 87 434 l 87 521 l 434 521 l 434 434 l 521 434 l 521 87 l 608 87 l 608 0 z m 87 608 l 87 694 l 434 694 l 434 608 z "},"Ă":{"ha":868,"x_min":0,"x_max":0,"o":"m 434 260 l 434 521 l 347 521 l 347 260 z m 0 0 l 0 87 l 87 87 l 87 260 l 174 260 l 174 521 l 260 521 l 260 608 l 87 608 l 87 694 l 521 694 l 521 521 l 608 521 l 608 260 l 694 260 l 694 87 l 781 87 l 781 0 l 434 0 l 434 87 l 521 87 l 521 174 l 260 174 l 260 87 l 347 87 l 347 0 z m 260 781 l 260 868 l 434 868 l 434 781 z m 174 868 l 174 955 l 260 955 l 260 868 z m 434 868 l 434 955 l 521 955 l 521 868 z "},"ă":{"ha":694,"x_min":0,"x_max":0,"o":"m 347 87 l 347 260 l 174 260 l 174 87 z m 87 0 l 87 87 l 0 87 l 0 260 l 87 260 l 87 347 l 347 347 l 347 434 l 87 434 l 87 521 l 434 521 l 434 434 l 521 434 l 521 87 l 608 87 l 608 0 z m 174 608 l 174 694 l 347 694 l 347 608 z m 87 694 l 87 781 l 174 781 l 174 694 z m 347 694 l 347 781 l 434 781 l 434 694 z "},"Ą":{"ha":955,"x_min":0,"x_max":0,"o":"m 434 260 l 434 521 l 347 521 l 347 260 z m 608 -174 l 608 0 l 434 0 l 434 87 l 521 87 l 521 174 l 260 174 l 260 87 l 347 87 l 347 0 l 0 0 l 0 87 l 87 87 l 87 260 l 174 260 l 174 521 l 260 521 l 260 608 l 87 608 l 87 694 l 521 694 l 521 521 l 608 521 l 608 260 l 694 260 l 694 87 l 781 87 l 781 0 l 694 0 l 694 -87 l 868 -87 l 868 -174 z "},"ą":{"ha":781,"x_min":0,"x_max":0,"o":"m 347 87 l 347 260 l 174 260 l 174 87 z m 434 -174 l 434 0 l 87 0 l 87 87 l 0 87 l 0 260 l 87 260 l 87 347 l 347 347 l 347 434 l 87 434 l 87 521 l 434 521 l 434 434 l 521 434 l 521 87 l 608 87 l 608 0 l 521 0 l 521 -87 l 694 -87 l 694 -174 z "},"Ć":{"ha":608,"x_min":0,"x_max":0,"o":"m 434 87 l 434 174 l 521 174 l 521 87 z m 174 0 l 174 87 l 87 87 l 87 174 l 0 174 l 0 521 l 87 521 l 87 608 l 174 608 l 174 694 l 521 694 l 521 521 l 434 521 l 434 608 l 260 608 l 260 521 l 174 521 l 174 174 l 260 174 l 260 87 l 434 87 l 434 0 z m 260 781 l 260 868 l 347 868 l 347 781 z m 347 868 l 347 955 l 434 955 l 434 868 z "},"ć":{"ha":608,"x_min":0,"x_max":0,"o":"m 434 87 l 434 174 l 521 174 l 521 87 z m 87 0 l 87 87 l 0 87 l 0 434 l 87 434 l 87 521 l 521 521 l 521 260 l 434 260 l 434 434 l 174 434 l 174 87 l 434 87 l 434 0 z m 260 608 l 260 694 l 347 694 l 347 608 z m 347 694 l 347 781 l 434 781 l 434 694 z "},"Ĉ":{"ha":608,"x_min":0,"x_max":0,"o":"m 434 87 l 434 174 l 521 174 l 521 87 z m 174 0 l 174 87 l 87 87 l 87 174 l 0 174 l 0 521 l 87 521 l 87 608 l 174 608 l 174 694 l 521 694 l 521 521 l 434 521 l 434 608 l 260 608 l 260 521 l 174 521 l 174 174 l 260 174 l 260 87 l 434 87 l 434 0 z m 174 781 l 174 868 l 260 868 l 260 781 z m 347 781 l 347 868 l 434 868 l 434 781 z m 260 868 l 260 955 l 347 955 l 347 868 z "},"ĉ":{"ha":608,"x_min":0,"x_max":0,"o":"m 434 87 l 434 174 l 521 174 l 521 87 z m 87 0 l 87 87 l 0 87 l 0 434 l 87 434 l 87 521 l 521 521 l 521 260 l 434 260 l 434 434 l 174 434 l 174 87 l 434 87 l 434 0 z m 174 608 l 174 694 l 260 694 l 260 608 z m 347 608 l 347 694 l 434 694 l 434 608 z m 260 694 l 260 781 l 347 781 l 347 694 z "},"Ċ":{"ha":608,"x_min":0,"x_max":0,"o":"m 434 87 l 434 174 l 521 174 l 521 87 z m 174 0 l 174 87 l 87 87 l 87 174 l 0 174 l 0 521 l 87 521 l 87 608 l 174 608 l 174 694 l 521 694 l 521 521 l 434 521 l 434 608 l 260 608 l 260 521 l 174 521 l 174 174 l 260 174 l 260 87 l 434 87 l 434 0 z m 260 781 l 260 955 l 434 955 l 434 781 z "},"ċ":{"ha":608,"x_min":0,"x_max":0,"o":"m 434 87 l 434 174 l 521 174 l 521 87 z m 87 0 l 87 87 l 0 87 l 0 434 l 87 434 l 87 521 l 521 521 l 521 260 l 434 260 l 434 434 l 174 434 l 174 87 l 434 87 l 434 0 z m 260 608 l 260 781 l 434 781 l 434 608 z "},"Č":{"ha":608,"x_min":0,"x_max":0,"o":"m 434 87 l 434 174 l 521 174 l 521 87 z m 174 0 l 174 87 l 87 87 l 87 174 l 0 174 l 0 521 l 87 521 l 87 608 l 174 608 l 174 694 l 521 694 l 521 521 l 434 521 l 434 608 l 260 608 l 260 521 l 174 521 l 174 174 l 260 174 l 260 87 l 434 87 l 434 0 z m 260 781 l 260 868 l 347 868 l 347 781 z m 174 868 l 174 955 l 260 955 l 260 868 z m 347 868 l 347 955 l 434 955 l 434 868 z "},"č":{"ha":608,"x_min":0,"x_max":0,"o":"m 434 87 l 434 174 l 521 174 l 521 87 z m 87 0 l 87 87 l 0 87 l 0 434 l 87 434 l 87 521 l 521 521 l 521 260 l 434 260 l 434 434 l 174 434 l 174 87 l 434 87 l 434 0 z m 260 608 l 260 694 l 347 694 l 347 608 z m 174 694 l 174 781 l 260 781 l 260 694 z m 347 694 l 347 781 l 434 781 l 434 694 z "},"Ď":{"ha":694,"x_min":0,"x_max":0,"o":"m 347 87 l 347 174 l 434 174 l 434 521 l 347 521 l 347 608 l 260 608 l 260 87 z m 0 0 l 0 87 l 87 87 l 87 608 l 0 608 l 0 694 l 434 694 l 434 608 l 521 608 l 521 521 l 608 521 l 608 174 l 521 174 l 521 87 l 434 87 l 434 0 z m 260 781 l 260 868 l 347 868 l 347 781 z m 174 868 l 174 955 l 260 955 l 260 868 z m 347 868 l 347 955 l 434 955 l 434 868 z "},"ď":{"ha":868,"x_min":0,"x_max":0,"o":"m 87 0 l 87 87 l 0 87 l 0 434 l 87 434 l 87 521 l 260 521 l 260 434 l 174 434 l 174 87 l 260 87 l 260 0 z m 608 521 l 608 608 l 694 608 l 694 521 z m 347 0 l 347 87 l 260 87 l 260 174 l 347 174 l 347 347 l 260 347 l 260 434 l 347 434 l 347 694 l 260 694 l 260 781 l 521 781 l 521 87 l 608 87 l 608 0 z m 694 608 l 694 694 l 608 694 l 608 781 l 781 781 l 781 608 z "},"Đ":{"ha":694,"x_min":0,"x_max":0,"o":"m 347 87 l 347 174 l 434 174 l 434 521 l 347 521 l 347 608 l 260 608 l 260 434 l 347 434 l 347 347 l 260 347 l 260 87 z m 0 0 l 0 87 l 87 87 l 87 347 l 0 347 l 0 434 l 87 434 l 87 608 l 0 608 l 0 694 l 434 694 l 434 608 l 521 608 l 521 521 l 608 521 l 608 174 l 521 174 l 521 87 l 434 87 l 434 0 z "},"đ":{"ha":781,"x_min":0,"x_max":0,"o":"m 347 87 l 347 347 l 174 347 l 174 87 z m 87 0 l 87 87 l 0 87 l 0 347 l 87 347 l 87 434 l 347 434 l 347 521 l 174 521 l 174 608 l 347 608 l 347 694 l 260 694 l 260 781 l 521 781 l 521 608 l 694 608 l 694 521 l 521 521 l 521 87 l 608 87 l 608 0 z "},"Ē":{"ha":694,"x_min":0,"x_max":0,"o":"m 0 0 l 0 87 l 87 87 l 87 608 l 0 608 l 0 694 l 608 694 l 608 434 l 521 434 l 521 608 l 260 608 l 260 434 l 347 434 l 347 521 l 434 521 l 434 260 l 347 260 l 347 347 l 260 347 l 260 87 l 521 87 l 521 260 l 608 260 l 608 0 z m 174 781 l 174 868 l 521 868 l 521 781 z "},"ē":{"ha":608,"x_min":0,"x_max":0,"o":"m 434 87 l 434 174 l 521 174 l 521 87 z m 347 347 l 347 434 l 174 434 l 174 347 z m 87 0 l 87 87 l 0 87 l 0 434 l 87 434 l 87 521 l 434 521 l 434 434 l 521 434 l 521 260 l 174 260 l 174 87 l 434 87 l 434 0 z m 87 608 l 87 694 l 434 694 l 434 608 z "},"Ĕ":{"ha":694,"x_min":0,"x_max":0,"o":"m 0 0 l 0 87 l 87 87 l 87 608 l 0 608 l 0 694 l 608 694 l 608 434 l 521 434 l 521 608 l 260 608 l 260 434 l 347 434 l 347 521 l 434 521 l 434 260 l 347 260 l 347 347 l 260 347 l 260 87 l 521 87 l 521 260 l 608 260 l 608 0 z m 260 781 l 260 868 l 434 868 l 434 781 z m 174 868 l 174 955 l 260 955 l 260 868 z m 434 868 l 434 955 l 521 955 l 521 868 z "},"ĕ":{"ha":608,"x_min":0,"x_max":0,"o":"m 434 87 l 434 174 l 521 174 l 521 87 z m 347 347 l 347 434 l 174 434 l 174 347 z m 87 0 l 87 87 l 0 87 l 0 434 l 87 434 l 87 521 l 434 521 l 434 434 l 521 434 l 521 260 l 174 260 l 174 87 l 434 87 l 434 0 z m 174 608 l 174 694 l 347 694 l 347 608 z m 87 694 l 87 781 l 174 781 l 174 694 z m 347 694 l 347 781 l 434 781 l 434 694 z "},"Ė":{"ha":694,"x_min":0,"x_max":0,"o":"m 0 0 l 0 87 l 87 87 l 87 608 l 0 608 l 0 694 l 608 694 l 608 434 l 521 434 l 521 608 l 260 608 l 260 434 l 347 434 l 347 521 l 434 521 l 434 260 l 347 260 l 347 347 l 260 347 l 260 87 l 521 87 l 521 260 l 608 260 l 608 0 z m 260 781 l 260 955 l 434 955 l 434 781 z "},"ė":{"ha":608,"x_min":0,"x_max":0,"o":"m 434 87 l 434 174 l 521 174 l 521 87 z m 347 347 l 347 434 l 174 434 l 174 347 z m 87 0 l 87 87 l 0 87 l 0 434 l 87 434 l 87 521 l 434 521 l 434 434 l 521 434 l 521 260 l 174 260 l 174 87 l 434 87 l 434 0 z m 174 608 l 174 781 l 347 781 l 347 608 z "},"Ę":{"ha":781,"x_min":0,"x_max":0,"o":"m 434 -174 l 434 0 l 0 0 l 0 87 l 87 87 l 87 608 l 0 608 l 0 694 l 608 694 l 608 434 l 521 434 l 521 608 l 260 608 l 260 434 l 347 434 l 347 521 l 434 521 l 434 260 l 347 260 l 347 347 l 260 347 l 260 87 l 521 87 l 521 260 l 608 260 l 608 0 l 521 0 l 521 -87 l 694 -87 l 694 -174 z "},"ę":{"ha":608,"x_min":0,"x_max":0,"o":"m 434 87 l 434 174 l 521 174 l 521 87 z m 347 347 l 347 434 l 174 434 l 174 347 z m 174 -174 l 174 0 l 87 0 l 87 87 l 0 87 l 0 434 l 87 434 l 87 521 l 434 521 l 434 434 l 521 434 l 521 260 l 174 260 l 174 87 l 434 87 l 434 0 l 260 0 l 260 -87 l 434 -87 l 434 -174 z "},"Ě":{"ha":694,"x_min":0,"x_max":0,"o":"m 0 0 l 0 87 l 87 87 l 87 608 l 0 608 l 0 694 l 608 694 l 608 434 l 521 434 l 521 608 l 260 608 l 260 434 l 347 434 l 347 521 l 434 521 l 434 260 l 347 260 l 347 347 l 260 347 l 260 87 l 521 87 l 521 260 l 608 260 l 608 0 z m 347 781 l 347 868 l 434 868 l 434 781 z m 260 868 l 260 955 l 347 955 l 347 868 z m 434 868 l 434 955 l 521 955 l 521 868 z "},"ě":{"ha":608,"x_min":0,"x_max":0,"o":"m 434 87 l 434 174 l 521 174 l 521 87 z m 347 347 l 347 434 l 174 434 l 174 347 z m 87 0 l 87 87 l 0 87 l 0 434 l 87 434 l 87 521 l 434 521 l 434 434 l 521 434 l 521 260 l 174 260 l 174 87 l 434 87 l 434 0 z m 260 608 l 260 694 l 347 694 l 347 608 z m 174 694 l 174 781 l 260 781 l 260 694 z m 347 694 l 347 781 l 434 781 l 434 694 z "},"Ĝ":{"ha":694,"x_min":0,"x_max":0,"o":"m 87 0 l 87 87 l 0 87 l 0 608 l 87 608 l 87 694 l 521 694 l 521 434 l 434 434 l 434 608 l 174 608 l 174 87 l 347 87 l 347 260 l 260 260 l 260 347 l 608 347 l 608 260 l 521 260 l 521 87 l 434 87 l 434 0 z m 174 781 l 174 868 l 260 868 l 260 781 z m 347 781 l 347 868 l 434 868 l 434 781 z m 260 868 l 260 955 l 347 955 l 347 868 z "},"ĝ":{"ha":694,"x_min":0,"x_max":0,"o":"m 87 0 l 87 87 l 0 87 l 0 434 l 87 434 l 87 521 l 260 521 l 260 434 l 174 434 l 174 87 l 260 87 l 260 0 z m 87 -260 l 87 -174 l 347 -174 l 347 87 l 260 87 l 260 174 l 347 174 l 347 347 l 260 347 l 260 434 l 347 434 l 347 521 l 608 521 l 608 434 l 521 434 l 521 -174 l 434 -174 l 434 -260 z m 174 608 l 174 694 l 260 694 l 260 608 z m 347 608 l 347 694 l 434 694 l 434 608 z m 260 694 l 260 781 l 347 781 l 347 694 z "},"Ğ":{"ha":694,"x_min":0,"x_max":0,"o":"m 87 0 l 87 87 l 0 87 l 0 608 l 87 608 l 87 694 l 521 694 l 521 434 l 434 434 l 434 608 l 174 608 l 174 87 l 347 87 l 347 260 l 260 260 l 260 347 l 608 347 l 608 260 l 521 260 l 521 87 l 434 87 l 434 0 z m 174 781 l 174 868 l 347 868 l 347 781 z m 87 868 l 87 955 l 174 955 l 174 868 z m 347 868 l 347 955 l 434 955 l 434 868 z "},"ğ":{"ha":694,"x_min":0,"x_max":0,"o":"m 87 0 l 87 87 l 0 87 l 0 434 l 87 434 l 87 521 l 260 521 l 260 434 l 174 434 l 174 87 l 260 87 l 260 0 z m 87 -260 l 87 -174 l 347 -174 l 347 87 l 260 87 l 260 174 l 347 174 l 347 347 l 260 347 l 260 434 l 347 434 l 347 521 l 608 521 l 608 434 l 521 434 l 521 -174 l 434 -174 l 434 -260 z m 174 608 l 174 694 l 347 694 l 347 608 z m 87 694 l 87 781 l 174 781 l 174 694 z m 347 694 l 347 781 l 434 781 l 434 694 z "},"Ġ":{"ha":694,"x_min":0,"x_max":0,"o":"m 87 0 l 87 87 l 0 87 l 0 608 l 87 608 l 87 694 l 521 694 l 521 434 l 434 434 l 434 608 l 174 608 l 174 87 l 347 87 l 347 260 l 260 260 l 260 347 l 608 347 l 608 260 l 521 260 l 521 87 l 434 87 l 434 0 z m 174 781 l 174 955 l 347 955 l 347 781 z "},"ġ":{"ha":694,"x_min":0,"x_max":0,"o":"m 87 0 l 87 87 l 0 87 l 0 434 l 87 434 l 87 521 l 260 521 l 260 434 l 174 434 l 174 87 l 260 87 l 260 0 z m 87 -260 l 87 -174 l 347 -174 l 347 87 l 260 87 l 260 174 l 347 174 l 347 347 l 260 347 l 260 434 l 347 434 l 347 521 l 608 521 l 608 434 l 521 434 l 521 -174 l 434 -174 l 434 -260 z m 174 608 l 174 781 l 347 781 l 347 608 z "},"Ģ":{"ha":694,"x_min":0,"x_max":0,"o":"m 174 -260 l 174 -174 l 260 -174 l 260 -87 l 347 -87 l 347 -260 z m 87 0 l 87 87 l 0 87 l 0 608 l 87 608 l 87 694 l 521 694 l 521 434 l 434 434 l 434 608 l 174 608 l 174 87 l 347 87 l 347 260 l 260 260 l 260 347 l 608 347 l 608 260 l 521 260 l 521 87 l 434 87 l 434 0 z "},"ģ":{"ha":694,"x_min":0,"x_max":0,"o":"m 87 0 l 87 87 l 0 87 l 0 434 l 87 434 l 87 521 l 260 521 l 260 434 l 174 434 l 174 87 l 260 87 l 260 0 z m 87 -260 l 87 -174 l 347 -174 l 347 87 l 260 87 l 260 174 l 347 174 l 347 347 l 260 347 l 260 434 l 347 434 l 347 521 l 608 521 l 608 434 l 521 434 l 521 -174 l 434 -174 l 434 -260 z m 174 608 l 174 781 l 260 781 l 260 694 l 347 694 l 347 608 z m 260 781 l 260 868 l 347 868 l 347 781 z "},"Ĥ":{"ha":781,"x_min":0,"x_max":0,"o":"m 0 0 l 0 87 l 87 87 l 87 608 l 0 608 l 0 694 l 260 694 l 260 434 l 434 434 l 434 694 l 694 694 l 694 608 l 608 608 l 608 87 l 694 87 l 694 0 l 434 0 l 434 347 l 260 347 l 260 0 z m 260 781 l 260 868 l 347 868 l 347 781 z m 434 781 l 434 868 l 521 868 l 521 781 z m 347 868 l 347 955 l 434 955 l 434 868 z "},"ĥ":{"ha":781,"x_min":0,"x_max":0,"o":"m 0 0 l 0 87 l 87 87 l 87 694 l 0 694 l 0 781 l 260 781 l 260 521 l 521 521 l 521 434 l 608 434 l 608 87 l 694 87 l 694 0 l 434 0 l 434 434 l 260 434 l 260 0 z m 174 868 l 174 955 l 260 955 l 260 868 z m 347 868 l 347 955 l 434 955 l 434 868 z m 260 955 l 260 1042 l 347 1042 l 347 955 z "},"Ħ":{"ha":781,"x_min":0,"x_max":0,"o":"m 434 347 l 434 434 l 260 434 l 260 347 z m 0 0 l 0 87 l 87 87 l 87 434 l 0 434 l 0 521 l 87 521 l 87 608 l 0 608 l 0 694 l 260 694 l 260 521 l 434 521 l 434 694 l 694 694 l 694 608 l 608 608 l 608 521 l 694 521 l 694 434 l 608 434 l 608 87 l 694 87 l 694 0 l 434 0 l 434 260 l 260 260 l 260 0 z "},"ħ":{"ha":781,"x_min":0,"x_max":0,"o":"m 0 0 l 0 87 l 87 87 l 87 608 l 0 608 l 0 694 l 87 694 l 87 781 l 260 781 l 260 694 l 434 694 l 434 608 l 260 608 l 260 521 l 521 521 l 521 434 l 608 434 l 608 87 l 694 87 l 694 0 l 434 0 l 434 434 l 260 434 l 260 0 z "},"Ĩ":{"ha":608,"x_min":0,"x_max":0,"o":"m 0 0 l 0 87 l 174 87 l 174 608 l 0 608 l 0 694 l 521 694 l 521 608 l 347 608 l 347 87 l 521 87 l 521 0 z m 87 781 l 87 955 l 260 955 l 260 868 l 174 868 l 174 781 z m 260 781 l 260 868 l 347 868 l 347 955 l 434 955 l 434 781 z "},"ĩ":{"ha":608,"x_min":0,"x_max":0,"o":"m 0 0 l 0 87 l 174 87 l 174 434 l 0 434 l 0 521 l 347 521 l 347 87 l 521 87 l 521 0 z m 87 608 l 87 781 l 260 781 l 260 694 l 174 694 l 174 608 z m 260 608 l 260 694 l 347 694 l 347 781 l 434 781 l 434 608 z "},"Ī":{"ha":608,"x_min":0,"x_max":0,"o":"m 0 0 l 0 87 l 174 87 l 174 608 l 0 608 l 0 694 l 521 694 l 521 608 l 347 608 l 347 87 l 521 87 l 521 0 z m 87 781 l 87 868 l 434 868 l 434 781 z "},"ī":{"ha":608,"x_min":0,"x_max":0,"o":"m 0 0 l 0 87 l 174 87 l 174 434 l 0 434 l 0 521 l 347 521 l 347 87 l 521 87 l 521 0 z m 87 608 l 87 694 l 434 694 l 434 608 z "},"Ĭ":{"ha":608,"x_min":0,"x_max":0,"o":"m 0 0 l 0 87 l 174 87 l 174 608 l 0 608 l 0 694 l 521 694 l 521 608 l 347 608 l 347 87 l 521 87 l 521 0 z m 174 781 l 174 868 l 347 868 l 347 781 z m 87 868 l 87 955 l 174 955 l 174 868 z m 347 868 l 347 955 l 434 955 l 434 868 z "},"ĭ":{"ha":608,"x_min":0,"x_max":0,"o":"m 0 0 l 0 87 l 174 87 l 174 434 l 0 434 l 0 521 l 347 521 l 347 87 l 521 87 l 521 0 z m 174 608 l 174 694 l 347 694 l 347 608 z m 87 694 l 87 781 l 174 781 l 174 694 z m 347 694 l 347 781 l 434 781 l 434 694 z "},"Į":{"ha":608,"x_min":0,"x_max":0,"o":"m 174 -174 l 174 0 l 0 0 l 0 87 l 174 87 l 174 608 l 0 608 l 0 694 l 521 694 l 521 608 l 347 608 l 347 87 l 521 87 l 521 0 l 260 0 l 260 -87 l 434 -87 l 434 -174 z "},"į":{"ha":608,"x_min":0,"x_max":0,"o":"m 174 -174 l 174 0 l 0 0 l 0 87 l 174 87 l 174 434 l 0 434 l 0 521 l 347 521 l 347 87 l 521 87 l 521 0 l 260 0 l 260 -87 l 434 -87 l 434 -174 z m 174 608 l 174 781 l 347 781 l 347 608 z "},"İ":{"ha":608,"x_min":0,"x_max":0,"o":"m 0 0 l 0 87 l 174 87 l 174 608 l 0 608 l 0 694 l 521 694 l 521 608 l 347 608 l 347 87 l 521 87 l 521 0 z m 174 781 l 174 955 l 347 955 l 347 781 z "},"ı":{"ha":608,"x_min":0,"x_max":0,"o":"m 0 0 l 0 87 l 174 87 l 174 434 l 0 434 l 0 521 l 347 521 l 347 87 l 521 87 l 521 0 z "},"Ĳ":{"ha":868,"x_min":0,"x_max":0,"o":"m 0 0 l 0 87 l 87 87 l 87 608 l 0 608 l 0 694 l 347 694 l 347 608 l 260 608 l 260 87 l 347 87 l 347 260 l 434 260 l 434 87 l 521 87 l 521 608 l 434 608 l 434 694 l 781 694 l 781 608 l 694 608 l 694 87 l 608 87 l 608 0 z "},"ĳ":{"ha":781,"x_min":0,"x_max":0,"o":"m 260 -260 l 260 -174 l 521 -174 l 521 434 l 347 434 l 347 87 l 434 87 l 434 0 l 0 0 l 0 87 l 174 87 l 174 434 l 0 434 l 0 521 l 694 521 l 694 -174 l 608 -174 l 608 -260 z m 174 608 l 174 781 l 347 781 l 347 608 z m 521 608 l 521 781 l 694 781 l 694 608 z "},"Ĵ":{"ha":781,"x_min":0,"x_max":0,"o":"m 0 0 l 0 347 l 174 347 l 174 87 l 347 87 l 347 608 l 87 608 l 87 694 l 694 694 l 694 608 l 521 608 l 521 87 l 434 87 l 434 0 z m 260 781 l 260 868 l 347 868 l 347 781 z m 434 781 l 434 868 l 521 868 l 521 781 z m 347 868 l 347 955 l 434 955 l 434 868 z "},"ĵ":{"ha":608,"x_min":0,"x_max":0,"o":"m 0 -260 l 0 -174 l 347 -174 l 347 434 l 0 434 l 0 521 l 521 521 l 521 -174 l 434 -174 l 434 -260 z m 174 608 l 174 694 l 260 694 l 260 608 z m 347 608 l 347 694 l 434 694 l 434 608 z m 260 694 l 260 781 l 347 781 l 347 694 z "},"Ķ":{"ha":781,"x_min":0,"x_max":0,"o":"m 260 -260 l 260 -174 l 347 -174 l 347 -87 l 434 -87 l 434 -260 z m 0 0 l 0 87 l 87 87 l 87 608 l 0 608 l 0 694 l 347 694 l 347 608 l 260 608 l 260 434 l 347 434 l 347 521 l 434 521 l 434 694 l 694 694 l 694 608 l 608 608 l 608 521 l 521 521 l 521 434 l 434 434 l 434 347 l 521 347 l 521 260 l 608 260 l 608 87 l 694 87 l 694 0 l 521 0 l 521 87 l 434 87 l 434 260 l 260 260 l 260 87 l 347 87 l 347 0 z "},"ķ":{"ha":781,"x_min":0,"x_max":0,"o":"m 260 -260 l 260 -174 l 347 -174 l 347 -87 l 434 -87 l 434 -260 z m 0 0 l 0 87 l 87 87 l 87 694 l 0 694 l 0 781 l 260 781 l 260 347 l 347 347 l 347 521 l 608 521 l 608 434 l 521 434 l 521 347 l 434 347 l 434 260 l 521 260 l 521 174 l 608 174 l 608 87 l 694 87 l 694 0 l 347 0 l 347 87 l 434 87 l 434 174 l 260 174 l 260 0 z "},"ĸ":{"ha":781,"x_min":0,"x_max":0,"o":"m 0 0 l 0 87 l 87 87 l 87 434 l 0 434 l 0 521 l 347 521 l 347 434 l 260 434 l 260 347 l 347 347 l 347 434 l 434 434 l 434 521 l 694 521 l 694 434 l 521 434 l 521 347 l 434 347 l 434 260 l 521 260 l 521 87 l 694 87 l 694 0 l 434 0 l 434 87 l 347 87 l 347 260 l 260 260 l 260 87 l 347 87 l 347 0 z "},"Ĺ":{"ha":694,"x_min":0,"x_max":0,"o":"m 0 0 l 0 87 l 87 87 l 87 608 l 0 608 l 0 694 l 347 694 l 347 608 l 260 608 l 260 87 l 521 87 l 521 174 l 608 174 l 608 0 z m 87 781 l 87 868 l 174 868 l 174 781 z m 174 868 l 174 955 l 260 955 l 260 868 z "},"ĺ":{"ha":781,"x_min":0,"x_max":0,"o":"m 0 0 l 0 87 l 260 87 l 260 694 l 87 694 l 87 781 l 434 781 l 434 87 l 694 87 l 694 0 z m 260 868 l 260 955 l 347 955 l 347 868 z m 347 955 l 347 1042 l 434 1042 l 434 955 z "},"Ļ":{"ha":694,"x_min":0,"x_max":0,"o":"m 260 -260 l 260 -174 l 347 -174 l 347 -87 l 434 -87 l 434 -260 z m 0 0 l 0 87 l 87 87 l 87 608 l 0 608 l 0 694 l 347 694 l 347 608 l 260 608 l 260 87 l 521 87 l 521 174 l 608 174 l 608 0 z "},"ļ":{"ha":781,"x_min":0,"x_max":0,"o":"m 260 -260 l 260 -174 l 347 -174 l 347 -87 l 434 -87 l 434 -260 z m 0 0 l 0 87 l 260 87 l 260 694 l 87 694 l 87 781 l 434 781 l 434 87 l 694 87 l 694 0 z "},"Ľ":{"ha":694,"x_min":0,"x_max":0,"o":"m 434 434 l 434 521 l 521 521 l 521 434 z m 0 0 l 0 87 l 87 87 l 87 608 l 0 608 l 0 694 l 347 694 l 347 608 l 260 608 l 260 87 l 521 87 l 521 174 l 608 174 l 608 0 z m 521 521 l 521 608 l 434 608 l 434 694 l 608 694 l 608 521 z "},"ľ":{"ha":781,"x_min":0,"x_max":0,"o":"m 521 521 l 521 608 l 608 608 l 608 521 z m 0 0 l 0 87 l 260 87 l 260 694 l 87 694 l 87 781 l 434 781 l 434 87 l 694 87 l 694 0 z m 608 608 l 608 694 l 521 694 l 521 781 l 694 781 l 694 608 z "},"Ŀ":{"ha":694,"x_min":0,"x_max":0,"o":"m 347 347 l 347 521 l 521 521 l 521 347 z m 0 0 l 0 87 l 87 87 l 87 608 l 0 608 l 0 694 l 347 694 l 347 608 l 260 608 l 260 87 l 521 87 l 521 174 l 608 174 l 608 0 z "},"ŀ":{"ha":781,"x_min":0,"x_max":0,"o":"m 521 347 l 521 521 l 694 521 l 694 347 z m 0 0 l 0 87 l 260 87 l 260 694 l 87 694 l 87 781 l 434 781 l 434 87 l 694 87 l 694 0 z "},"Ł":{"ha":694,"x_min":0,"x_max":0,"o":"m 0 174 l 0 260 l 87 260 l 87 174 z m 434 434 l 434 521 l 521 521 l 521 434 z m 0 0 l 0 87 l 174 87 l 174 260 l 87 260 l 87 347 l 174 347 l 174 608 l 0 608 l 0 694 l 521 694 l 521 608 l 347 608 l 347 434 l 434 434 l 434 347 l 347 347 l 347 87 l 521 87 l 521 174 l 608 174 l 608 0 z "},"ł":{"ha":781,"x_min":0,"x_max":0,"o":"m 87 260 l 87 347 l 174 347 l 174 260 z m 521 521 l 521 608 l 608 608 l 608 521 z m 0 0 l 0 87 l 260 87 l 260 347 l 174 347 l 174 434 l 260 434 l 260 694 l 87 694 l 87 781 l 434 781 l 434 521 l 521 521 l 521 434 l 434 434 l 434 87 l 694 87 l 694 0 z "},"Ń":{"ha":781,"x_min":0,"x_max":0,"o":"m 0 0 l 0 87 l 87 87 l 87 608 l 0 608 l 0 694 l 260 694 l 260 521 l 347 521 l 347 347 l 260 347 l 260 87 l 347 87 l 347 0 z m 434 0 l 434 174 l 347 174 l 347 347 l 434 347 l 434 608 l 347 608 l 347 694 l 694 694 l 694 608 l 608 608 l 608 0 z m 260 781 l 260 868 l 347 868 l 347 781 z m 347 868 l 347 955 l 434 955 l 434 868 z "},"ń":{"ha":781,"x_min":0,"x_max":0,"o":"m 0 0 l 0 87 l 87 87 l 87 434 l 0 434 l 0 521 l 521 521 l 521 434 l 608 434 l 608 87 l 694 87 l 694 0 l 434 0 l 434 434 l 260 434 l 260 0 z m 260 608 l 260 694 l 347 694 l 347 608 z m 347 694 l 347 781 l 434 781 l 434 694 z "},"Ņ":{"ha":781,"x_min":0,"x_max":0,"o":"m 260 -260 l 260 -174 l 347 -174 l 347 -87 l 434 -87 l 434 -260 z m 0 0 l 0 87 l 87 87 l 87 608 l 0 608 l 0 694 l 260 694 l 260 521 l 347 521 l 347 347 l 260 347 l 260 87 l 347 87 l 347 0 z m 434 0 l 434 174 l 347 174 l 347 347 l 434 347 l 434 608 l 347 608 l 347 694 l 694 694 l 694 608 l 608 608 l 608 0 z "},"ņ":{"ha":781,"x_min":0,"x_max":0,"o":"m 260 -260 l 260 -174 l 347 -174 l 347 -87 l 434 -87 l 434 -260 z m 0 0 l 0 87 l 87 87 l 87 434 l 0 434 l 0 521 l 521 521 l 521 434 l 608 434 l 608 87 l 694 87 l 694 0 l 434 0 l 434 434 l 260 434 l 260 0 z "},"Ň":{"ha":781,"x_min":0,"x_max":0,"o":"m 0 0 l 0 87 l 87 87 l 87 608 l 0 608 l 0 694 l 260 694 l 260 521 l 347 521 l 347 347 l 260 347 l 260 87 l 347 87 l 347 0 z m 434 0 l 434 174 l 347 174 l 347 347 l 434 347 l 434 608 l 347 608 l 347 694 l 694 694 l 694 608 l 608 608 l 608 0 z m 347 781 l 347 868 l 434 868 l 434 781 z m 260 868 l 260 955 l 347 955 l 347 868 z m 434 868 l 434 955 l 521 955 l 521 868 z "},"ň":{"ha":781,"x_min":0,"x_max":0,"o":"m 0 0 l 0 87 l 87 87 l 87 434 l 0 434 l 0 521 l 521 521 l 521 434 l 608 434 l 608 87 l 694 87 l 694 0 l 434 0 l 434 434 l 260 434 l 260 0 z m 260 608 l 260 694 l 347 694 l 347 608 z m 174 694 l 174 781 l 260 781 l 260 694 z m 347 694 l 347 781 l 434 781 l 434 694 z "},"ŉ":{"ha":781,"x_min":0,"x_max":0,"o":"m 87 0 l 87 87 l 174 87 l 174 434 l 87 434 l 87 347 l 0 347 l 0 521 l 87 521 l 87 694 l 260 694 l 260 608 l 174 608 l 174 521 l 521 521 l 521 434 l 608 434 l 608 87 l 694 87 l 694 0 l 434 0 l 434 434 l 347 434 l 347 0 z "},"Ŋ":{"ha":694,"x_min":0,"x_max":0,"o":"m 0 0 l 0 87 l 87 87 l 87 608 l 0 608 l 0 694 l 260 694 l 260 608 l 347 608 l 347 521 l 260 521 l 260 0 z m 347 0 l 347 87 l 434 87 l 434 608 l 347 608 l 347 694 l 521 694 l 521 608 l 608 608 l 608 87 l 521 87 l 521 0 z "},"ŋ":{"ha":694,"x_min":0,"x_max":0,"o":"m 174 -260 l 174 -174 l 434 -174 l 434 434 l 260 434 l 260 87 l 347 87 l 347 0 l 0 0 l 0 87 l 87 87 l 87 434 l 0 434 l 0 521 l 521 521 l 521 434 l 608 434 l 608 -174 l 521 -174 l 521 -260 z "},"Ō":{"ha":608,"x_min":0,"x_max":0,"o":"m 347 87 l 347 608 l 174 608 l 174 87 z m 87 0 l 87 87 l 0 87 l 0 608 l 87 608 l 87 694 l 434 694 l 434 608 l 521 608 l 521 87 l 434 87 l 434 0 z m 87 781 l 87 868 l 434 868 l 434 781 z "},"ō":{"ha":608,"x_min":0,"x_max":0,"o":"m 347 87 l 347 434 l 174 434 l 174 87 z m 87 0 l 87 87 l 0 87 l 0 434 l 87 434 l 87 521 l 434 521 l 434 434 l 521 434 l 521 87 l 434 87 l 434 0 z m 87 608 l 87 694 l 434 694 l 434 608 z "},"Ŏ":{"ha":608,"x_min":0,"x_max":0,"o":"m 347 87 l 347 608 l 174 608 l 174 87 z m 87 0 l 87 87 l 0 87 l 0 608 l 87 608 l 87 694 l 434 694 l 434 608 l 521 608 l 521 87 l 434 87 l 434 0 z m 174 781 l 174 868 l 347 868 l 347 781 z m 87 868 l 87 955 l 174 955 l 174 868 z m 347 868 l 347 955 l 434 955 l 434 868 z "},"ŏ":{"ha":608,"x_min":0,"x_max":0,"o":"m 347 87 l 347 434 l 174 434 l 174 87 z m 87 0 l 87 87 l 0 87 l 0 434 l 87 434 l 87 521 l 434 521 l 434 434 l 521 434 l 521 87 l 434 87 l 434 0 z m 174 608 l 174 694 l 347 694 l 347 608 z m 87 694 l 87 781 l 174 781 l 174 694 z m 347 694 l 347 781 l 434 781 l 434 694 z "},"Ő":{"ha":608,"x_min":0,"x_max":0,"o":"m 347 87 l 347 608 l 174 608 l 174 87 z m 87 0 l 87 87 l 0 87 l 0 608 l 87 608 l 87 694 l 434 694 l 434 608 l 521 608 l 521 87 l 434 87 l 434 0 z m 87 781 l 87 868 l 174 868 l 174 781 z m 260 781 l 260 868 l 347 868 l 347 781 z m 174 868 l 174 955 l 260 955 l 260 868 z m 347 868 l 347 955 l 434 955 l 434 868 z "},"ő":{"ha":608,"x_min":0,"x_max":0,"o":"m 347 87 l 347 434 l 174 434 l 174 87 z m 87 0 l 87 87 l 0 87 l 0 434 l 87 434 l 87 521 l 434 521 l 434 434 l 521 434 l 521 87 l 434 87 l 434 0 z m 87 608 l 87 694 l 174 694 l 174 608 z m 260 608 l 260 694 l 347 694 l 347 608 z m 174 694 l 174 781 l 260 781 l 260 694 z m 347 694 l 347 781 l 434 781 l 434 694 z "},"Œ":{"ha":781,"x_min":0,"x_max":0,"o":"m 347 87 l 347 608 l 260 608 l 260 521 l 174 521 l 174 174 l 260 174 l 260 87 z m 174 0 l 174 87 l 87 87 l 87 174 l 0 174 l 0 521 l 87 521 l 87 608 l 174 608 l 174 694 l 694 694 l 694 521 l 608 521 l 608 608 l 521 608 l 521 434 l 608 434 l 608 347 l 521 347 l 521 87 l 608 87 l 608 174 l 694 174 l 694 0 z "},"œ":{"ha":781,"x_min":0,"x_max":0,"o":"m 521 260 l 521 434 l 434 434 l 434 260 z m 87 0 l 87 87 l 0 87 l 0 434 l 87 434 l 87 521 l 260 521 l 260 434 l 174 434 l 174 87 l 260 87 l 260 0 z m 347 0 l 347 87 l 260 87 l 260 434 l 347 434 l 347 521 l 608 521 l 608 434 l 694 434 l 694 174 l 434 174 l 434 87 l 694 87 l 694 0 z "},"Ŕ":{"ha":781,"x_min":0,"x_max":0,"o":"m 434 347 l 434 608 l 260 608 l 260 347 z m 0 0 l 0 87 l 87 87 l 87 608 l 0 608 l 0 694 l 521 694 l 521 608 l 608 608 l 608 347 l 521 347 l 521 174 l 608 174 l 608 87 l 694 87 l 694 0 l 521 0 l 521 87 l 434 87 l 434 174 l 347 174 l 347 260 l 260 260 l 260 87 l 347 87 l 347 0 z m 260 781 l 260 868 l 347 868 l 347 781 z m 347 868 l 347 955 l 434 955 l 434 868 z "},"ŕ":{"ha":694,"x_min":0,"x_max":0,"o":"m 0 0 l 0 87 l 174 87 l 174 434 l 0 434 l 0 521 l 347 521 l 347 434 l 434 434 l 434 347 l 347 347 l 347 87 l 608 87 l 608 0 z m 521 347 l 521 434 l 434 434 l 434 521 l 608 521 l 608 347 z m 260 608 l 260 694 l 347 694 l 347 608 z m 347 694 l 347 781 l 434 781 l 434 694 z "},"Ŗ":{"ha":781,"x_min":0,"x_max":0,"o":"m 260 -260 l 260 -174 l 347 -174 l 347 -87 l 434 -87 l 434 -260 z m 434 347 l 434 608 l 260 608 l 260 347 z m 0 0 l 0 87 l 87 87 l 87 608 l 0 608 l 0 694 l 521 694 l 521 608 l 608 608 l 608 347 l 521 347 l 521 174 l 608 174 l 608 87 l 694 87 l 694 0 l 521 0 l 521 87 l 434 87 l 434 174 l 347 174 l 347 260 l 260 260 l 260 87 l 347 87 l 347 0 z "},"ŗ":{"ha":694,"x_min":0,"x_max":0,"o":"m 174 -260 l 174 -174 l 260 -174 l 260 -87 l 347 -87 l 347 -260 z m 0 0 l 0 87 l 174 87 l 174 434 l 0 434 l 0 521 l 347 521 l 347 434 l 434 434 l 434 347 l 347 347 l 347 87 l 608 87 l 608 0 z m 521 347 l 521 434 l 434 434 l 434 521 l 608 521 l 608 347 z "},"Ř":{"ha":781,"x_min":0,"x_max":0,"o":"m 434 347 l 434 608 l 260 608 l 260 347 z m 0 0 l 0 87 l 87 87 l 87 608 l 0 608 l 0 694 l 521 694 l 521 608 l 608 608 l 608 347 l 521 347 l 521 174 l 608 174 l 608 87 l 694 87 l 694 0 l 521 0 l 521 87 l 434 87 l 434 174 l 347 174 l 347 260 l 260 260 l 260 87 l 347 87 l 347 0 z m 260 781 l 260 868 l 347 868 l 347 781 z m 174 868 l 174 955 l 260 955 l 260 868 z m 347 868 l 347 955 l 434 955 l 434 868 z "},"ř":{"ha":694,"x_min":0,"x_max":0,"o":"m 0 0 l 0 87 l 174 87 l 174 434 l 0 434 l 0 521 l 347 521 l 347 434 l 434 434 l 434 347 l 347 347 l 347 87 l 608 87 l 608 0 z m 521 347 l 521 434 l 434 434 l 434 521 l 608 521 l 608 347 z m 260 608 l 260 694 l 347 694 l 347 608 z m 174 694 l 174 781 l 260 781 l 260 694 z m 347 694 l 347 781 l 434 781 l 434 694 z "},"Ś":{"ha":608,"x_min":0,"x_max":0,"o":"m 0 0 l 0 174 l 174 174 l 174 87 l 347 87 l 347 260 l 174 260 l 174 347 l 87 347 l 87 434 l 0 434 l 0 608 l 87 608 l 87 694 l 521 694 l 521 521 l 347 521 l 347 608 l 174 608 l 174 434 l 347 434 l 347 347 l 434 347 l 434 260 l 521 260 l 521 87 l 434 87 l 434 0 z m 174 781 l 174 868 l 260 868 l 260 781 z m 260 868 l 260 955 l 347 955 l 347 868 z "},"ś":{"ha":608,"x_min":0,"x_max":0,"o":"m 0 0 l 0 174 l 174 174 l 174 87 l 347 87 l 347 174 l 174 174 l 174 260 l 0 260 l 0 434 l 87 434 l 87 521 l 521 521 l 521 347 l 347 347 l 347 434 l 174 434 l 174 347 l 347 347 l 347 260 l 521 260 l 521 87 l 434 87 l 434 0 z m 174 608 l 174 694 l 260 694 l 260 608 z m 260 694 l 260 781 l 347 781 l 347 694 z "},"Ŝ":{"ha":608,"x_min":0,"x_max":0,"o":"m 0 0 l 0 174 l 174 174 l 174 87 l 347 87 l 347 260 l 174 260 l 174 347 l 87 347 l 87 434 l 0 434 l 0 608 l 87 608 l 87 694 l 521 694 l 521 521 l 347 521 l 347 608 l 174 608 l 174 434 l 347 434 l 347 347 l 434 347 l 434 260 l 521 260 l 521 87 l 434 87 l 434 0 z m 174 781 l 174 868 l 260 868 l 260 781 z m 347 781 l 347 868 l 434 868 l 434 781 z m 260 868 l 260 955 l 347 955 l 347 868 z "},"ŝ":{"ha":608,"x_min":0,"x_max":0,"o":"m 0 0 l 0 174 l 174 174 l 174 87 l 347 87 l 347 174 l 174 174 l 174 260 l 0 260 l 0 434 l 87 434 l 87 521 l 521 521 l 521 347 l 347 347 l 347 434 l 174 434 l 174 347 l 347 347 l 347 260 l 521 260 l 521 87 l 434 87 l 434 0 z m 174 608 l 174 694 l 260 694 l 260 608 z m 347 608 l 347 694 l 434 694 l 434 608 z m 260 694 l 260 781 l 347 781 l 347 694 z "},"Ş":{"ha":608,"x_min":0,"x_max":0,"o":"m 174 -347 l 174 -260 l 347 -260 l 347 -174 l 260 -174 l 260 0 l 0 0 l 0 174 l 174 174 l 174 87 l 347 87 l 347 260 l 174 260 l 174 347 l 87 347 l 87 434 l 0 434 l 0 608 l 87 608 l 87 694 l 521 694 l 521 521 l 347 521 l 347 608 l 174 608 l 174 434 l 347 434 l 347 347 l 434 347 l 434 260 l 521 260 l 521 87 l 434 87 l 434 0 l 347 0 l 347 -87 l 434 -87 l 434 -347 z "},"ş":{"ha":608,"x_min":0,"x_max":0,"o":"m 174 -347 l 174 -260 l 347 -260 l 347 -174 l 260 -174 l 260 0 l 0 0 l 0 174 l 174 174 l 174 87 l 347 87 l 347 174 l 174 174 l 174 260 l 0 260 l 0 434 l 87 434 l 87 521 l 521 521 l 521 347 l 347 347 l 347 434 l 174 434 l 174 347 l 347 347 l 347 260 l 521 260 l 521 87 l 434 87 l 434 0 l 347 0 l 347 -87 l 434 -87 l 434 -347 z "},"Š":{"ha":608,"x_min":0,"x_max":0,"o":"m 0 0 l 0 174 l 174 174 l 174 87 l 347 87 l 347 260 l 174 260 l 174 347 l 87 347 l 87 434 l 0 434 l 0 608 l 87 608 l 87 694 l 521 694 l 521 521 l 347 521 l 347 608 l 174 608 l 174 434 l 347 434 l 347 347 l 434 347 l 434 260 l 521 260 l 521 87 l 434 87 l 434 0 z m 260 781 l 260 868 l 347 868 l 347 781 z m 174 868 l 174 955 l 260 955 l 260 868 z m 347 868 l 347 955 l 434 955 l 434 868 z "},"š":{"ha":608,"x_min":0,"x_max":0,"o":"m 0 0 l 0 174 l 174 174 l 174 87 l 347 87 l 347 174 l 174 174 l 174 260 l 0 260 l 0 434 l 87 434 l 87 521 l 521 521 l 521 347 l 347 347 l 347 434 l 174 434 l 174 347 l 347 347 l 347 260 l 521 260 l 521 87 l 434 87 l 434 0 z m 260 608 l 260 694 l 347 694 l 347 608 z m 174 694 l 174 781 l 260 781 l 260 694 z m 347 694 l 347 781 l 434 781 l 434 694 z "},"Ţ":{"ha":608,"x_min":0,"x_max":0,"o":"m 174 -347 l 174 -260 l 260 -260 l 260 -347 z m 260 -260 l 260 -174 l 174 -174 l 174 -87 l 347 -87 l 347 -260 z m 87 0 l 87 87 l 174 87 l 174 608 l 87 608 l 87 434 l 0 434 l 0 694 l 521 694 l 521 434 l 434 434 l 434 608 l 347 608 l 347 87 l 434 87 l 434 0 z "},"ţ":{"ha":608,"x_min":0,"x_max":0,"o":"m 174 -347 l 174 -260 l 260 -260 l 260 -347 z m 260 -260 l 260 -174 l 174 -174 l 174 -87 l 347 -87 l 347 -260 z m 434 87 l 434 174 l 521 174 l 521 87 z m 174 0 l 174 87 l 87 87 l 87 434 l 0 434 l 0 521 l 87 521 l 87 694 l 260 694 l 260 521 l 434 521 l 434 434 l 260 434 l 260 87 l 434 87 l 434 0 z "},"Ť":{"ha":608,"x_min":0,"x_max":0,"o":"m 87 0 l 87 87 l 174 87 l 174 608 l 87 608 l 87 434 l 0 434 l 0 694 l 521 694 l 521 434 l 434 434 l 434 608 l 347 608 l 347 87 l 434 87 l 434 0 z m 174 781 l 174 868 l 260 868 l 260 781 z m 87 868 l 87 955 l 174 955 l 174 868 z m 260 868 l 260 955 l 347 955 l 347 868 z "},"ť":{"ha":694,"x_min":0,"x_max":0,"o":"m 434 87 l 434 174 l 521 174 l 521 87 z m 434 521 l 434 608 l 521 608 l 521 521 z m 174 0 l 174 87 l 87 87 l 87 434 l 0 434 l 0 521 l 87 521 l 87 694 l 260 694 l 260 521 l 434 521 l 434 434 l 260 434 l 260 87 l 434 87 l 434 0 z m 521 608 l 521 694 l 434 694 l 434 781 l 608 781 l 608 608 z "},"Ŧ":{"ha":608,"x_min":0,"x_max":0,"o":"m 87 0 l 87 87 l 174 87 l 174 260 l 87 260 l 87 347 l 174 347 l 174 608 l 87 608 l 87 434 l 0 434 l 0 694 l 521 694 l 521 434 l 434 434 l 434 608 l 347 608 l 347 347 l 434 347 l 434 260 l 347 260 l 347 87 l 434 87 l 434 0 z "},"ŧ":{"ha":608,"x_min":0,"x_max":0,"o":"m 434 87 l 434 174 l 521 174 l 521 87 z m 174 0 l 174 87 l 87 87 l 87 260 l 0 260 l 0 347 l 87 347 l 87 434 l 0 434 l 0 521 l 87 521 l 87 694 l 260 694 l 260 521 l 434 521 l 434 434 l 260 434 l 260 347 l 347 347 l 347 260 l 260 260 l 260 87 l 434 87 l 434 0 z "},"Ũ":{"ha":781,"x_min":0,"x_max":0,"o":"m 174 0 l 174 87 l 87 87 l 87 608 l 0 608 l 0 694 l 260 694 l 260 87 l 434 87 l 434 694 l 694 694 l 694 608 l 608 608 l 608 87 l 521 87 l 521 0 z m 174 781 l 174 955 l 347 955 l 347 868 l 260 868 l 260 781 z m 347 781 l 347 868 l 434 868 l 434 955 l 521 955 l 521 781 z "},"ũ":{"ha":781,"x_min":0,"x_max":0,"o":"m 174 0 l 174 87 l 87 87 l 87 434 l 0 434 l 0 521 l 260 521 l 260 87 l 434 87 l 434 434 l 347 434 l 347 521 l 608 521 l 608 87 l 694 87 l 694 0 z m 174 608 l 174 781 l 347 781 l 347 694 l 260 694 l 260 608 z m 347 608 l 347 694 l 434 694 l 434 781 l 521 781 l 521 608 z "},"Ū":{"ha":781,"x_min":0,"x_max":0,"o":"m 174 0 l 174 87 l 87 87 l 87 608 l 0 608 l 0 694 l 260 694 l 260 87 l 434 87 l 434 694 l 694 694 l 694 608 l 608 608 l 608 87 l 521 87 l 521 0 z m 174 781 l 174 868 l 521 868 l 521 781 z "},"ū":{"ha":781,"x_min":0,"x_max":0,"o":"m 174 0 l 174 87 l 87 87 l 87 434 l 0 434 l 0 521 l 260 521 l 260 87 l 434 87 l 434 434 l 347 434 l 347 521 l 608 521 l 608 87 l 694 87 l 694 0 z m 174 608 l 174 694 l 521 694 l 521 608 z "},"Ŭ":{"ha":781,"x_min":0,"x_max":0,"o":"m 174 0 l 174 87 l 87 87 l 87 608 l 0 608 l 0 694 l 260 694 l 260 87 l 434 87 l 434 694 l 694 694 l 694 608 l 608 608 l 608 87 l 521 87 l 521 0 z m 260 781 l 260 868 l 434 868 l 434 781 z m 174 868 l 174 955 l 260 955 l 260 868 z m 434 868 l 434 955 l 521 955 l 521 868 z "},"ŭ":{"ha":781,"x_min":0,"x_max":0,"o":"m 174 0 l 174 87 l 87 87 l 87 434 l 0 434 l 0 521 l 260 521 l 260 87 l 434 87 l 434 434 l 347 434 l 347 521 l 608 521 l 608 87 l 694 87 l 694 0 z m 260 608 l 260 694 l 434 694 l 434 608 z m 174 694 l 174 781 l 260 781 l 260 694 z m 434 694 l 434 781 l 521 781 l 521 694 z "},"Ů":{"ha":781,"x_min":0,"x_max":0,"o":"m 174 0 l 174 87 l 87 87 l 87 608 l 0 608 l 0 694 l 260 694 l 260 87 l 434 87 l 434 694 l 694 694 l 694 608 l 608 608 l 608 87 l 521 87 l 521 0 z m 434 868 l 434 955 l 347 955 l 347 868 z m 260 781 l 260 1042 l 521 1042 l 521 781 z "},"ů":{"ha":781,"x_min":0,"x_max":0,"o":"m 174 0 l 174 87 l 87 87 l 87 434 l 0 434 l 0 521 l 260 521 l 260 87 l 434 87 l 434 434 l 347 434 l 347 521 l 608 521 l 608 87 l 694 87 l 694 0 z m 434 694 l 434 781 l 347 781 l 347 694 z m 260 608 l 260 868 l 521 868 l 521 608 z "},"Ű":{"ha":781,"x_min":0,"x_max":0,"o":"m 174 0 l 174 87 l 87 87 l 87 608 l 0 608 l 0 694 l 260 694 l 260 87 l 434 87 l 434 694 l 694 694 l 694 608 l 608 608 l 608 87 l 521 87 l 521 0 z m 174 781 l 174 868 l 260 868 l 260 781 z m 347 781 l 347 868 l 434 868 l 434 781 z m 260 868 l 260 955 l 347 955 l 347 868 z m 434 868 l 434 955 l 521 955 l 521 868 z "},"ű":{"ha":781,"x_min":0,"x_max":0,"o":"m 174 0 l 174 87 l 87 87 l 87 434 l 0 434 l 0 521 l 260 521 l 260 87 l 434 87 l 434 434 l 347 434 l 347 521 l 608 521 l 608 87 l 694 87 l 694 0 z m 174 608 l 174 694 l 260 694 l 260 608 z m 347 608 l 347 694 l 434 694 l 434 608 z m 260 694 l 260 781 l 347 781 l 347 694 z m 434 694 l 434 781 l 521 781 l 521 694 z "},"Ų":{"ha":781,"x_min":0,"x_max":0,"o":"m 260 -174 l 260 0 l 174 0 l 174 87 l 87 87 l 87 608 l 0 608 l 0 694 l 260 694 l 260 87 l 434 87 l 434 694 l 694 694 l 694 608 l 608 608 l 608 87 l 521 87 l 521 0 l 347 0 l 347 -87 l 521 -87 l 521 -174 z "},"ų":{"ha":781,"x_min":0,"x_max":0,"o":"m 434 -174 l 434 0 l 174 0 l 174 87 l 87 87 l 87 434 l 0 434 l 0 521 l 260 521 l 260 87 l 434 87 l 434 434 l 347 434 l 347 521 l 608 521 l 608 87 l 694 87 l 694 0 l 521 0 l 521 -87 l 694 -87 l 694 -174 z "},"Ŵ":{"ha":868,"x_min":0,"x_max":0,"o":"m 174 0 l 174 260 l 87 260 l 87 608 l 0 608 l 0 694 l 347 694 l 347 608 l 260 608 l 260 434 l 347 434 l 347 521 l 434 521 l 434 434 l 521 434 l 521 608 l 434 608 l 434 694 l 781 694 l 781 608 l 694 608 l 694 260 l 608 260 l 608 0 l 434 0 l 434 347 l 347 347 l 347 0 z m 260 781 l 260 868 l 347 868 l 347 781 z m 434 781 l 434 868 l 521 868 l 521 781 z m 347 868 l 347 955 l 434 955 l 434 868 z "},"ŵ":{"ha":868,"x_min":0,"x_max":0,"o":"m 174 0 l 174 260 l 87 260 l 87 434 l 0 434 l 0 521 l 260 521 l 260 347 l 347 347 l 347 434 l 434 434 l 434 347 l 521 347 l 521 521 l 781 521 l 781 434 l 694 434 l 694 260 l 608 260 l 608 0 l 521 0 l 521 87 l 434 87 l 434 260 l 347 260 l 347 87 l 260 87 l 260 0 z m 260 608 l 260 694 l 347 694 l 347 608 z m 434 608 l 434 694 l 521 694 l 521 608 z m 347 694 l 347 781 l 434 781 l 434 694 z "},"Ŷ":{"ha":781,"x_min":0,"x_max":0,"o":"m 87 0 l 87 87 l 260 87 l 260 347 l 174 347 l 174 521 l 87 521 l 87 608 l 0 608 l 0 694 l 260 694 l 260 434 l 434 434 l 434 608 l 347 608 l 347 694 l 694 694 l 694 608 l 608 608 l 608 521 l 521 521 l 521 347 l 434 347 l 434 87 l 608 87 l 608 0 z m 260 781 l 260 868 l 347 868 l 347 781 z m 434 781 l 434 868 l 521 868 l 521 781 z m 347 868 l 347 955 l 434 955 l 434 868 z "},"ŷ":{"ha":781,"x_min":0,"x_max":0,"o":"m 0 -260 l 0 -174 l 174 -174 l 174 0 l 260 0 l 260 87 l 174 87 l 174 260 l 87 260 l 87 434 l 0 434 l 0 521 l 347 521 l 347 434 l 260 434 l 260 174 l 347 174 l 347 347 l 434 347 l 434 521 l 694 521 l 694 434 l 608 434 l 608 347 l 521 347 l 521 174 l 434 174 l 434 0 l 347 0 l 347 -174 l 434 -174 l 434 -260 z m 260 608 l 260 694 l 347 694 l 347 608 z m 434 608 l 434 694 l 521 694 l 521 608 z m 347 694 l 347 781 l 434 781 l 434 694 z "},"Ÿ":{"ha":781,"x_min":0,"x_max":0,"o":"m 87 0 l 87 87 l 260 87 l 260 347 l 174 347 l 174 521 l 87 521 l 87 608 l 0 608 l 0 694 l 260 694 l 260 434 l 434 434 l 434 608 l 347 608 l 347 694 l 694 694 l 694 608 l 608 608 l 608 521 l 521 521 l 521 347 l 434 347 l 434 87 l 608 87 l 608 0 z m 174 781 l 174 868 l 260 868 l 260 781 z m 434 781 l 434 868 l 521 868 l 521 781 z "},"Ź":{"ha":608,"x_min":0,"x_max":0,"o":"m 0 0 l 0 174 l 87 174 l 87 260 l 174 260 l 174 434 l 260 434 l 260 521 l 347 521 l 347 608 l 87 608 l 87 434 l 0 434 l 0 694 l 521 694 l 521 521 l 434 521 l 434 434 l 347 434 l 347 260 l 260 260 l 260 174 l 174 174 l 174 87 l 434 87 l 434 260 l 521 260 l 521 0 z m 174 781 l 174 868 l 260 868 l 260 781 z m 260 868 l 260 955 l 347 955 l 347 868 z "},"ź":{"ha":608,"x_min":0,"x_max":0,"o":"m 0 0 l 0 174 l 87 174 l 87 260 l 174 260 l 174 347 l 260 347 l 260 434 l 87 434 l 87 347 l 0 347 l 0 521 l 521 521 l 521 434 l 434 434 l 434 347 l 347 347 l 347 260 l 260 260 l 260 174 l 174 174 l 174 87 l 434 87 l 434 174 l 521 174 l 521 0 z m 174 608 l 174 694 l 260 694 l 260 608 z m 260 694 l 260 781 l 347 781 l 347 694 z "},"Ż":{"ha":608,"x_min":0,"x_max":0,"o":"m 0 0 l 0 174 l 87 174 l 87 260 l 174 260 l 174 434 l 260 434 l 260 521 l 347 521 l 347 608 l 87 608 l 87 434 l 0 434 l 0 694 l 521 694 l 521 521 l 434 521 l 434 434 l 347 434 l 347 260 l 260 260 l 260 174 l 174 174 l 174 87 l 434 87 l 434 260 l 521 260 l 521 0 z m 174 781 l 174 955 l 347 955 l 347 781 z "},"ż":{"ha":608,"x_min":0,"x_max":0,"o":"m 0 0 l 0 174 l 87 174 l 87 260 l 174 260 l 174 347 l 260 347 l 260 434 l 87 434 l 87 347 l 0 347 l 0 521 l 521 521 l 521 434 l 434 434 l 434 347 l 347 347 l 347 260 l 260 260 l 260 174 l 174 174 l 174 87 l 434 87 l 434 174 l 521 174 l 521 0 z m 174 608 l 174 781 l 347 781 l 347 608 z "},"Ž":{"ha":608,"x_min":0,"x_max":0,"o":"m 0 0 l 0 174 l 87 174 l 87 260 l 174 260 l 174 434 l 260 434 l 260 521 l 347 521 l 347 608 l 87 608 l 87 434 l 0 434 l 0 694 l 521 694 l 521 521 l 434 521 l 434 434 l 347 434 l 347 260 l 260 260 l 260 174 l 174 174 l 174 87 l 434 87 l 434 260 l 521 260 l 521 0 z m 260 781 l 260 868 l 347 868 l 347 781 z m 174 868 l 174 955 l 260 955 l 260 868 z m 347 868 l 347 955 l 434 955 l 434 868 z "},"ž":{"ha":608,"x_min":0,"x_max":0,"o":"m 0 0 l 0 174 l 87 174 l 87 260 l 174 260 l 174 347 l 260 347 l 260 434 l 87 434 l 87 347 l 0 347 l 0 521 l 521 521 l 521 434 l 434 434 l 434 347 l 347 347 l 347 260 l 260 260 l 260 174 l 174 174 l 174 87 l 434 87 l 434 174 l 521 174 l 521 0 z m 260 608 l 260 694 l 347 694 l 347 608 z m 174 694 l 174 781 l 260 781 l 260 694 z m 347 694 l 347 781 l 434 781 l 434 694 z "},"ſ":{"ha":694,"x_min":0,"x_max":0,"o":"m 0 0 l 0 87 l 174 87 l 174 434 l 0 434 l 0 521 l 174 521 l 174 694 l 260 694 l 260 781 l 608 781 l 608 694 l 347 694 l 347 87 l 521 87 l 521 0 z "},"Ͱ":{"ha":608,"x_min":0,"x_max":0,"o":"m 0 0 l 0 87 l 87 87 l 87 608 l 0 608 l 0 694 l 260 694 l 260 434 l 521 434 l 521 347 l 260 347 l 260 0 z "},"ͱ":{"ha":608,"x_min":0,"x_max":0,"o":"m 0 347 l 0 434 l 87 434 l 87 347 z m 174 0 l 174 434 l 87 434 l 87 521 l 347 521 l 347 347 l 521 347 l 521 260 l 347 260 l 347 0 z "},"Ͳ":{"ha":608,"x_min":0,"x_max":0,"o":"m 87 0 l 87 87 l 174 87 l 174 608 l 87 608 l 87 347 l 0 347 l 0 694 l 521 694 l 521 347 l 434 347 l 434 608 l 347 608 l 347 87 l 434 87 l 434 0 z "},"ͳ":{"ha":608,"x_min":0,"x_max":0,"o":"m 0 434 l 0 608 l 87 608 l 87 434 z m 174 -260 l 174 608 l 87 608 l 87 694 l 521 694 l 521 434 l 434 434 l 434 608 l 347 608 l 347 -260 z "},"ʹ":{"ha":260,"x_min":0,"x_max":0,"o":"m 0 608 l 0 781 l 87 781 l 87 608 z m 87 781 l 87 868 l 174 868 l 174 781 z "},"͵":{"ha":260,"x_min":0,"x_max":0,"o":"m 0 -87 l 0 87 l 87 87 l 87 -87 z m 87 87 l 87 174 l 174 174 l 174 87 z "},"Ͷ":{"ha":781,"x_min":0,"x_max":0,"o":"m 0 0 l 0 87 l 87 87 l 87 608 l 0 608 l 0 694 l 347 694 l 347 608 l 260 608 l 260 347 l 347 347 l 347 174 l 260 174 l 260 0 z m 347 0 l 347 87 l 434 87 l 434 347 l 347 347 l 347 521 l 434 521 l 434 694 l 694 694 l 694 608 l 608 608 l 608 87 l 694 87 l 694 0 z "},"ͷ":{"ha":1042,"x_min":0,"x_max":0,"o":"m 0 0 l 0 87 l 87 87 l 87 434 l 0 434 l 0 521 l 347 521 l 347 434 l 260 434 l 260 260 l 347 260 l 347 87 l 260 87 l 260 0 z m 608 -174 l 608 -87 l 521 -87 l 521 0 l 434 0 l 434 260 l 347 260 l 347 434 l 434 434 l 434 521 l 694 521 l 694 434 l 608 434 l 608 0 l 781 0 l 781 174 l 868 174 l 868 87 l 955 87 l 955 0 l 868 0 l 868 -87 l 781 -87 l 781 -174 z "},"ͺ":{"ha":347,"x_min":0,"x_max":0,"o":"m 0 0 l 0 174 l 87 174 l 87 87 l 174 87 l 174 0 z m 174 87 l 174 174 l 260 174 l 260 87 z "},"ͻ":{"ha":521,"x_min":0,"x_max":0,"o":"m 87 0 l 87 87 l 347 87 l 347 0 z m 0 87 l 0 174 l 87 174 l 87 87 z m 347 87 l 347 347 l 260 347 l 260 434 l 174 434 l 174 347 l 87 347 l 87 260 l 0 260 l 0 434 l 87 434 l 87 521 l 347 521 l 347 434 l 434 434 l 434 87 z "},"ͼ":{"ha":521,"x_min":0,"x_max":0,"o":"m 87 0 l 87 87 l 347 87 l 347 0 z m 347 87 l 347 174 l 434 174 l 434 87 z m 174 174 l 174 260 l 260 260 l 260 174 z m 0 87 l 0 434 l 87 434 l 87 521 l 347 521 l 347 434 l 434 434 l 434 260 l 347 260 l 347 347 l 260 347 l 260 434 l 174 434 l 174 347 l 87 347 l 87 87 z "},"ͽ":{"ha":521,"x_min":0,"x_max":0,"o":"m 87 0 l 87 87 l 347 87 l 347 0 z m 0 87 l 0 174 l 87 174 l 87 87 z m 174 174 l 174 260 l 260 260 l 260 174 z m 347 87 l 347 347 l 260 347 l 260 434 l 174 434 l 174 347 l 87 347 l 87 260 l 0 260 l 0 434 l 87 434 l 87 521 l 347 521 l 347 434 l 434 434 l 434 87 z "},";":{"ha":260,"x_min":0,"x_max":0,"o":"m 0 -87 l 0 0 l 87 0 l 87 -87 z m 87 0 l 87 174 l 174 174 l 174 0 z m 87 347 l 87 521 l 174 521 l 174 347 z "},"΄":{"ha":260,"x_min":0,"x_max":0,"o":"m 0 434 l 0 694 l 174 694 l 174 434 z "},"΅":{"ha":781,"x_min":0,"x_max":0,"o":"m 0 521 l 0 694 l 174 694 l 174 521 z m 521 521 l 521 694 l 694 694 l 694 521 z m 260 521 l 260 781 l 434 781 l 434 521 z "},"Ά":{"ha":955,"x_min":0,"x_max":0,"o":"m 521 260 l 521 521 l 434 521 l 434 260 z m 0 434 l 0 694 l 174 694 l 174 434 z m 87 0 l 87 87 l 174 87 l 174 260 l 260 260 l 260 521 l 347 521 l 347 608 l 260 608 l 260 694 l 608 694 l 608 521 l 694 521 l 694 260 l 781 260 l 781 87 l 868 87 l 868 0 l 521 0 l 521 87 l 608 87 l 608 174 l 347 174 l 347 87 l 434 87 l 434 0 z "},"·":{"ha":260,"x_min":0,"x_max":0,"o":"m 0 347 l 0 521 l 174 521 l 174 347 z "},"Έ":{"ha":868,"x_min":0,"x_max":0,"o":"m 0 434 l 0 694 l 174 694 l 174 434 z m 174 0 l 174 87 l 260 87 l 260 694 l 781 694 l 781 434 l 694 434 l 694 608 l 434 608 l 434 434 l 521 434 l 521 521 l 608 521 l 608 260 l 521 260 l 521 347 l 434 347 l 434 87 l 694 87 l 694 260 l 781 260 l 781 0 z "},"Ή":{"ha":955,"x_min":0,"x_max":0,"o":"m 0 434 l 0 694 l 174 694 l 174 434 z m 174 0 l 174 87 l 260 87 l 260 694 l 434 694 l 434 434 l 608 434 l 608 694 l 868 694 l 868 608 l 781 608 l 781 87 l 868 87 l 868 0 l 608 0 l 608 347 l 434 347 l 434 0 z "},"Ί":{"ha":781,"x_min":0,"x_max":0,"o":"m 0 434 l 0 694 l 174 694 l 174 434 z m 174 0 l 174 87 l 347 87 l 347 608 l 260 608 l 260 694 l 694 694 l 694 608 l 521 608 l 521 87 l 694 87 l 694 0 z "},"Ό":{"ha":868,"x_min":0,"x_max":0,"o":"m 608 87 l 608 608 l 434 608 l 434 87 z m 0 434 l 0 694 l 174 694 l 174 434 z m 347 0 l 347 87 l 260 87 l 260 608 l 347 608 l 347 694 l 694 694 l 694 608 l 781 608 l 781 87 l 694 87 l 694 0 z "},"Ύ":{"ha":955,"x_min":0,"x_max":0,"o":"m 0 434 l 0 694 l 174 694 l 174 434 z m 260 0 l 260 87 l 434 87 l 434 347 l 347 347 l 347 521 l 260 521 l 260 694 l 434 694 l 434 434 l 608 434 l 608 608 l 521 608 l 521 694 l 868 694 l 868 608 l 781 608 l 781 521 l 694 521 l 694 347 l 608 347 l 608 87 l 781 87 l 781 0 z "},"Ώ":{"ha":868,"x_min":0,"x_max":0,"o":"m 174 0 l 174 87 l 260 87 l 260 174 l 174 174 l 174 434 l 0 434 l 0 694 l 174 694 l 174 521 l 260 521 l 260 608 l 347 608 l 347 694 l 608 694 l 608 608 l 694 608 l 694 521 l 781 521 l 781 174 l 694 174 l 694 87 l 781 87 l 781 0 l 521 0 l 521 174 l 608 174 l 608 521 l 521 521 l 521 608 l 434 608 l 434 521 l 347 521 l 347 174 l 434 174 l 434 0 z "},"ΐ":{"ha":781,"x_min":0,"x_max":0,"o":"m 347 0 l 347 87 l 260 87 l 260 521 l 434 521 l 434 87 l 608 87 l 608 0 z m 0 608 l 0 781 l 174 781 l 174 608 z m 521 608 l 521 781 l 694 781 l 694 608 z m 260 608 l 260 868 l 434 868 l 434 608 z "},"Α":{"ha":868,"x_min":0,"x_max":0,"o":"m 434 260 l 434 521 l 347 521 l 347 260 z m 0 0 l 0 87 l 87 87 l 87 260 l 174 260 l 174 521 l 260 521 l 260 608 l 87 608 l 87 694 l 521 694 l 521 521 l 608 521 l 608 260 l 694 260 l 694 87 l 781 87 l 781 0 l 434 0 l 434 87 l 521 87 l 521 174 l 260 174 l 260 87 l 347 87 l 347 0 z "},"Β":{"ha":694,"x_min":0,"x_max":0,"o":"m 434 87 l 434 347 l 260 347 l 260 87 z m 434 434 l 434 608 l 260 608 l 260 434 z m 0 0 l 0 87 l 87 87 l 87 608 l 0 608 l 0 694 l 521 694 l 521 608 l 608 608 l 608 434 l 521 434 l 521 347 l 608 347 l 608 87 l 521 87 l 521 0 z "},"Γ":{"ha":694,"x_min":0,"x_max":0,"o":"m 0 0 l 0 87 l 87 87 l 87 608 l 0 608 l 0 694 l 608 694 l 608 434 l 434 434 l 434 608 l 260 608 l 260 87 l 347 87 l 347 0 z "},"Δ":{"ha":781,"x_min":0,"x_max":0,"o":"m 521 87 l 521 174 l 434 174 l 434 434 l 260 434 l 260 174 l 174 174 l 174 87 z m 0 0 l 0 174 l 87 174 l 87 434 l 174 434 l 174 521 l 260 521 l 260 694 l 434 694 l 434 521 l 521 521 l 521 434 l 608 434 l 608 174 l 694 174 l 694 0 z "},"Ε":{"ha":694,"x_min":0,"x_max":0,"o":"m 0 0 l 0 87 l 87 87 l 87 608 l 0 608 l 0 694 l 608 694 l 608 434 l 521 434 l 521 608 l 260 608 l 260 434 l 347 434 l 347 521 l 434 521 l 434 260 l 347 260 l 347 347 l 260 347 l 260 87 l 521 87 l 521 260 l 608 260 l 608 0 z "},"Ζ":{"ha":608,"x_min":0,"x_max":0,"o":"m 0 0 l 0 174 l 87 174 l 87 260 l 174 260 l 174 434 l 260 434 l 260 521 l 347 521 l 347 608 l 87 608 l 87 434 l 0 434 l 0 694 l 521 694 l 521 521 l 434 521 l 434 434 l 347 434 l 347 260 l 260 260 l 260 174 l 174 174 l 174 87 l 434 87 l 434 260 l 521 260 l 521 0 z "},"Η":{"ha":781,"x_min":0,"x_max":0,"o":"m 0 0 l 0 87 l 87 87 l 87 608 l 0 608 l 0 694 l 260 694 l 260 434 l 434 434 l 434 694 l 694 694 l 694 608 l 608 608 l 608 87 l 694 87 l 694 0 l 434 0 l 434 347 l 260 347 l 260 0 z "},"Θ":{"ha":608,"x_min":0,"x_max":0,"o":"m 347 87 l 347 347 l 174 347 l 174 87 z m 347 434 l 347 608 l 174 608 l 174 434 z m 87 0 l 87 87 l 0 87 l 0 608 l 87 608 l 87 694 l 434 694 l 434 608 l 521 608 l 521 87 l 434 87 l 434 0 z "},"Ι":{"ha":608,"x_min":0,"x_max":0,"o":"m 0 0 l 0 87 l 174 87 l 174 608 l 0 608 l 0 694 l 521 694 l 521 608 l 347 608 l 347 87 l 521 87 l 521 0 z "},"Κ":{"ha":781,"x_min":0,"x_max":0,"o":"m 0 0 l 0 87 l 87 87 l 87 608 l 0 608 l 0 694 l 347 694 l 347 608 l 260 608 l 260 434 l 347 434 l 347 521 l 434 521 l 434 694 l 694 694 l 694 608 l 608 608 l 608 521 l 521 521 l 521 434 l 434 434 l 434 347 l 521 347 l 521 260 l 608 260 l 608 87 l 694 87 l 694 0 l 521 0 l 521 87 l 434 87 l 434 260 l 260 260 l 260 87 l 347 87 l 347 0 z "},"Λ":{"ha":781,"x_min":0,"x_max":0,"o":"m 0 0 l 0 87 l 87 87 l 87 260 l 174 260 l 174 521 l 260 521 l 260 608 l 87 608 l 87 694 l 434 694 l 434 521 l 521 521 l 521 260 l 608 260 l 608 87 l 694 87 l 694 0 l 434 0 l 434 347 l 260 347 l 260 87 l 347 87 l 347 0 z "},"Μ":{"ha":868,"x_min":0,"x_max":0,"o":"m 347 174 l 347 347 l 434 347 l 434 174 z m 0 0 l 0 87 l 87 87 l 87 608 l 0 608 l 0 694 l 260 694 l 260 608 l 347 608 l 347 347 l 260 347 l 260 87 l 347 87 l 347 0 z m 434 0 l 434 87 l 521 87 l 521 347 l 434 347 l 434 608 l 521 608 l 521 694 l 781 694 l 781 608 l 694 608 l 694 87 l 781 87 l 781 0 z "},"Ν":{"ha":781,"x_min":0,"x_max":0,"o":"m 0 0 l 0 87 l 87 87 l 87 608 l 0 608 l 0 694 l 260 694 l 260 521 l 347 521 l 347 347 l 260 347 l 260 87 l 347 87 l 347 0 z m 434 0 l 434 174 l 347 174 l 347 347 l 434 347 l 434 608 l 347 608 l 347 694 l 694 694 l 694 608 l 608 608 l 608 0 z "},"Ξ":{"ha":608,"x_min":0,"x_max":0,"o":"m 0 0 l 0 174 l 174 174 l 174 87 l 347 87 l 347 174 l 521 174 l 521 0 z m 87 260 l 87 434 l 434 434 l 434 260 z m 0 521 l 0 694 l 521 694 l 521 521 l 347 521 l 347 608 l 174 608 l 174 521 z "},"Ο":{"ha":608,"x_min":0,"x_max":0,"o":"m 347 87 l 347 608 l 174 608 l 174 87 z m 87 0 l 87 87 l 0 87 l 0 608 l 87 608 l 87 694 l 434 694 l 434 608 l 521 608 l 521 87 l 434 87 l 434 0 z "},"Π":{"ha":781,"x_min":0,"x_max":0,"o":"m 0 0 l 0 87 l 87 87 l 87 608 l 0 608 l 0 694 l 694 694 l 694 608 l 608 608 l 608 87 l 694 87 l 694 0 l 434 0 l 434 608 l 260 608 l 260 87 l 347 87 l 347 0 z "},"Ρ":{"ha":694,"x_min":0,"x_max":0,"o":"m 434 347 l 434 608 l 260 608 l 260 347 z m 0 0 l 0 87 l 87 87 l 87 608 l 0 608 l 0 694 l 521 694 l 521 608 l 608 608 l 608 347 l 521 347 l 521 260 l 260 260 l 260 87 l 434 87 l 434 0 z "},"Σ":{"ha":608,"x_min":0,"x_max":0,"o":"m 0 0 l 0 174 l 87 174 l 87 260 l 174 260 l 174 434 l 87 434 l 87 521 l 0 521 l 0 694 l 521 694 l 521 521 l 434 521 l 434 608 l 174 608 l 174 521 l 260 521 l 260 434 l 347 434 l 347 260 l 260 260 l 260 174 l 174 174 l 174 87 l 434 87 l 434 174 l 521 174 l 521 0 z "},"Τ":{"ha":608,"x_min":0,"x_max":0,"o":"m 87 0 l 87 87 l 174 87 l 174 608 l 87 608 l 87 434 l 0 434 l 0 694 l 521 694 l 521 434 l 434 434 l 434 608 l 347 608 l 347 87 l 434 87 l 434 0 z "},"Υ":{"ha":781,"x_min":0,"x_max":0,"o":"m 87 0 l 87 87 l 260 87 l 260 347 l 174 347 l 174 521 l 87 521 l 87 608 l 0 608 l 0 694 l 260 694 l 260 434 l 434 434 l 434 608 l 347 608 l 347 694 l 694 694 l 694 608 l 608 608 l 608 521 l 521 521 l 521 347 l 434 347 l 434 87 l 608 87 l 608 0 z "},"Φ":{"ha":781,"x_min":0,"x_max":0,"o":"m 260 260 l 260 434 l 174 434 l 174 260 z m 521 260 l 521 434 l 434 434 l 434 260 z m 174 0 l 174 87 l 260 87 l 260 174 l 87 174 l 87 260 l 0 260 l 0 434 l 87 434 l 87 521 l 260 521 l 260 608 l 174 608 l 174 694 l 521 694 l 521 608 l 434 608 l 434 521 l 608 521 l 608 434 l 694 434 l 694 260 l 608 260 l 608 174 l 434 174 l 434 87 l 521 87 l 521 0 z "},"Χ":{"ha":781,"x_min":0,"x_max":0,"o":"m 0 0 l 0 87 l 87 87 l 87 174 l 174 174 l 174 260 l 260 260 l 260 434 l 174 434 l 174 521 l 87 521 l 87 608 l 0 608 l 0 694 l 260 694 l 260 521 l 434 521 l 434 608 l 347 608 l 347 694 l 694 694 l 694 608 l 608 608 l 608 521 l 521 521 l 521 434 l 434 434 l 434 260 l 521 260 l 521 174 l 608 174 l 608 87 l 694 87 l 694 0 l 434 0 l 434 174 l 260 174 l 260 87 l 347 87 l 347 0 z "},"Ψ":{"ha":955,"x_min":0,"x_max":0,"o":"m 260 0 l 260 87 l 347 87 l 347 174 l 174 174 l 174 260 l 87 260 l 87 608 l 0 608 l 0 694 l 260 694 l 260 260 l 347 260 l 347 694 l 521 694 l 521 260 l 608 260 l 608 694 l 868 694 l 868 608 l 781 608 l 781 260 l 694 260 l 694 174 l 521 174 l 521 87 l 608 87 l 608 0 z "},"Ω":{"ha":694,"x_min":0,"x_max":0,"o":"m 0 0 l 0 87 l 87 87 l 87 174 l 0 174 l 0 521 l 87 521 l 87 608 l 174 608 l 174 694 l 434 694 l 434 608 l 521 608 l 521 521 l 608 521 l 608 174 l 521 174 l 521 87 l 608 87 l 608 0 l 347 0 l 347 174 l 434 174 l 434 521 l 347 521 l 347 608 l 260 608 l 260 521 l 174 521 l 174 174 l 260 174 l 260 0 z "},"Ϊ":{"ha":608,"x_min":0,"x_max":0,"o":"m 0 0 l 0 87 l 174 87 l 174 608 l 0 608 l 0 694 l 521 694 l 521 608 l 347 608 l 347 87 l 521 87 l 521 0 z m 87 781 l 87 868 l 174 868 l 174 781 z m 347 781 l 347 868 l 434 868 l 434 781 z "},"Ϋ":{"ha":781,"x_min":0,"x_max":0,"o":"m 87 0 l 87 87 l 260 87 l 260 347 l 174 347 l 174 521 l 87 521 l 87 608 l 0 608 l 0 694 l 260 694 l 260 434 l 434 434 l 434 608 l 347 608 l 347 694 l 694 694 l 694 608 l 608 608 l 608 521 l 521 521 l 521 347 l 434 347 l 434 87 l 608 87 l 608 0 z m 174 781 l 174 868 l 260 868 l 260 781 z m 434 781 l 434 868 l 521 868 l 521 781 z "},"ά":{"ha":694,"x_min":0,"x_max":0,"o":"m 87 0 l 87 87 l 0 87 l 0 434 l 87 434 l 87 521 l 347 521 l 347 434 l 434 434 l 434 521 l 608 521 l 608 347 l 521 347 l 521 87 l 608 87 l 608 0 l 434 0 l 434 87 l 347 87 l 347 347 l 260 347 l 260 434 l 174 434 l 174 87 l 347 87 l 347 0 z m 174 608 l 174 868 l 347 868 l 347 608 z "},"έ":{"ha":521,"x_min":0,"x_max":0,"o":"m 347 87 l 347 174 l 434 174 l 434 87 z m 87 0 l 87 87 l 0 87 l 0 260 l 87 260 l 87 347 l 0 347 l 0 434 l 87 434 l 87 521 l 434 521 l 434 347 l 347 347 l 347 434 l 174 434 l 174 347 l 260 347 l 260 260 l 174 260 l 174 87 l 347 87 l 347 0 z m 174 608 l 174 868 l 347 868 l 347 608 z "},"ή":{"ha":694,"x_min":0,"x_max":0,"o":"m 434 -260 l 434 434 l 260 434 l 260 87 l 347 87 l 347 0 l 0 0 l 0 87 l 87 87 l 87 434 l 0 434 l 0 521 l 521 521 l 521 434 l 608 434 l 608 -260 z m 260 608 l 260 868 l 434 868 l 434 608 z "},"ί":{"ha":434,"x_min":0,"x_max":0,"o":"m 87 0 l 87 87 l 0 87 l 0 521 l 174 521 l 174 87 l 347 87 l 347 0 z m 0 608 l 0 868 l 174 868 l 174 608 z "},"ΰ":{"ha":781,"x_min":0,"x_max":0,"o":"m 174 0 l 174 87 l 87 87 l 87 434 l 0 434 l 0 521 l 260 521 l 260 87 l 434 87 l 434 434 l 347 434 l 347 521 l 694 521 l 694 434 l 608 434 l 608 87 l 521 87 l 521 0 z m 0 608 l 0 781 l 174 781 l 174 608 z m 521 608 l 521 781 l 694 781 l 694 608 z m 260 608 l 260 868 l 434 868 l 434 608 z "},"α":{"ha":694,"x_min":0,"x_max":0,"o":"m 87 0 l 87 87 l 0 87 l 0 434 l 87 434 l 87 521 l 347 521 l 347 434 l 434 434 l 434 521 l 608 521 l 608 347 l 521 347 l 521 87 l 608 87 l 608 0 l 434 0 l 434 87 l 347 87 l 347 347 l 260 347 l 260 434 l 174 434 l 174 87 l 347 87 l 347 0 z "},"β":{"ha":608,"x_min":0,"x_max":0,"o":"m 347 87 l 347 347 l 260 347 l 260 434 l 347 434 l 347 694 l 174 694 l 174 87 z m 0 -260 l 0 694 l 87 694 l 87 781 l 434 781 l 434 694 l 521 694 l 521 434 l 434 434 l 434 347 l 521 347 l 521 87 l 434 87 l 434 0 l 174 0 l 174 -260 z "},"γ":{"ha":781,"x_min":0,"x_max":0,"o":"m 260 -260 l 260 87 l 174 87 l 174 347 l 87 347 l 87 434 l 0 434 l 0 521 l 260 521 l 260 260 l 434 260 l 434 521 l 694 521 l 694 434 l 608 434 l 608 347 l 521 347 l 521 87 l 434 87 l 434 -260 z "},"δ":{"ha":608,"x_min":0,"x_max":0,"o":"m 347 87 l 347 434 l 174 434 l 174 87 z m 87 0 l 87 87 l 0 87 l 0 434 l 87 434 l 87 521 l 174 521 l 174 608 l 87 608 l 87 781 l 434 781 l 434 694 l 260 694 l 260 608 l 347 608 l 347 521 l 434 521 l 434 434 l 521 434 l 521 87 l 434 87 l 434 0 z "},"ε":{"ha":521,"x_min":0,"x_max":0,"o":"m 347 87 l 347 174 l 434 174 l 434 87 z m 87 0 l 87 87 l 0 87 l 0 260 l 87 260 l 87 347 l 0 347 l 0 434 l 87 434 l 87 521 l 434 521 l 434 347 l 347 347 l 347 434 l 174 434 l 174 347 l 260 347 l 260 260 l 174 260 l 174 87 l 347 87 l 347 0 z "},"ζ":{"ha":521,"x_min":0,"x_max":0,"o":"m 87 -260 l 87 -174 l 260 -174 l 260 0 l 87 0 l 87 87 l 0 87 l 0 434 l 87 434 l 87 521 l 174 521 l 174 608 l 260 608 l 260 694 l 87 694 l 87 781 l 434 781 l 434 608 l 347 608 l 347 521 l 260 521 l 260 434 l 174 434 l 174 87 l 347 87 l 347 0 l 434 0 l 434 -174 l 347 -174 l 347 -260 z "},"η":{"ha":694,"x_min":0,"x_max":0,"o":"m 434 -260 l 434 434 l 260 434 l 260 87 l 347 87 l 347 0 l 0 0 l 0 87 l 87 87 l 87 434 l 0 434 l 0 521 l 521 521 l 521 434 l 608 434 l 608 -260 z "},"θ":{"ha":608,"x_min":0,"x_max":0,"o":"m 347 87 l 347 347 l 174 347 l 174 87 z m 347 434 l 347 694 l 174 694 l 174 434 z m 87 0 l 87 87 l 0 87 l 0 694 l 87 694 l 87 781 l 434 781 l 434 694 l 521 694 l 521 87 l 434 87 l 434 0 z "},"ι":{"ha":434,"x_min":0,"x_max":0,"o":"m 87 0 l 87 87 l 0 87 l 0 521 l 174 521 l 174 87 l 347 87 l 347 0 z "},"κ":{"ha":694,"x_min":0,"x_max":0,"o":"m 0 0 l 0 87 l 87 87 l 87 434 l 0 434 l 0 521 l 260 521 l 260 347 l 347 347 l 347 521 l 608 521 l 608 434 l 521 434 l 521 347 l 434 347 l 434 174 l 521 174 l 521 87 l 608 87 l 608 0 l 347 0 l 347 174 l 260 174 l 260 0 z "},"λ":{"ha":781,"x_min":0,"x_max":0,"o":"m 0 0 l 0 87 l 87 87 l 87 174 l 174 174 l 174 434 l 260 434 l 260 608 l 174 608 l 174 694 l 87 694 l 87 781 l 260 781 l 260 694 l 347 694 l 347 521 l 434 521 l 434 347 l 521 347 l 521 174 l 608 174 l 608 87 l 694 87 l 694 0 l 434 0 l 434 260 l 260 260 l 260 87 l 347 87 l 347 0 z "},"μ":{"ha":781,"x_min":0,"x_max":0,"o":"m 87 -260 l 87 434 l 0 434 l 0 521 l 260 521 l 260 87 l 434 87 l 434 434 l 347 434 l 347 521 l 608 521 l 608 87 l 694 87 l 694 0 l 260 0 l 260 -260 z "},"ν":{"ha":694,"x_min":0,"x_max":0,"o":"m 174 0 l 174 174 l 87 174 l 87 434 l 0 434 l 0 521 l 260 521 l 260 174 l 347 174 l 347 260 l 434 260 l 434 521 l 608 521 l 608 260 l 521 260 l 521 87 l 347 87 l 347 0 z "},"ξ":{"ha":434,"x_min":0,"x_max":0,"o":"m 0 -260 l 0 -174 l 174 -174 l 174 -87 l 87 -87 l 87 0 l 0 0 l 0 347 l 87 347 l 87 434 l 0 434 l 0 608 l 87 608 l 87 694 l 0 694 l 0 781 l 347 781 l 347 694 l 260 694 l 260 608 l 174 608 l 174 434 l 260 434 l 260 347 l 174 347 l 174 0 l 347 0 l 347 -174 l 260 -174 l 260 -260 z "},"ο":{"ha":608,"x_min":0,"x_max":0,"o":"m 347 87 l 347 434 l 174 434 l 174 87 z m 87 0 l 87 87 l 0 87 l 0 434 l 87 434 l 87 521 l 434 521 l 434 434 l 521 434 l 521 87 l 434 87 l 434 0 z "},"π":{"ha":781,"x_min":0,"x_max":0,"o":"m 0 0 l 0 87 l 87 87 l 87 434 l 0 434 l 0 521 l 694 521 l 694 434 l 608 434 l 608 87 l 694 87 l 694 0 l 434 0 l 434 434 l 260 434 l 260 0 z "},"ρ":{"ha":608,"x_min":0,"x_max":0,"o":"m 347 87 l 347 434 l 174 434 l 174 87 z m 0 -260 l 0 434 l 87 434 l 87 521 l 434 521 l 434 434 l 521 434 l 521 87 l 434 87 l 434 0 l 174 0 l 174 -260 z "},"ς":{"ha":608,"x_min":0,"x_max":0,"o":"m 87 -260 l 87 -174 l 260 -174 l 260 0 l 87 0 l 87 87 l 0 87 l 0 347 l 87 347 l 87 434 l 174 434 l 174 521 l 347 521 l 347 434 l 260 434 l 260 347 l 174 347 l 174 87 l 347 87 l 347 0 l 434 0 l 434 -174 l 347 -174 l 347 -260 z m 434 260 l 434 347 l 347 347 l 347 434 l 434 434 l 434 521 l 521 521 l 521 260 z "},"σ":{"ha":694,"x_min":0,"x_max":0,"o":"m 347 87 l 347 434 l 174 434 l 174 87 z m 87 0 l 87 87 l 0 87 l 0 434 l 87 434 l 87 521 l 608 521 l 608 434 l 521 434 l 521 87 l 434 87 l 434 0 z "},"τ":{"ha":608,"x_min":0,"x_max":0,"o":"m 260 0 l 260 87 l 174 87 l 174 434 l 0 434 l 0 521 l 521 521 l 521 434 l 347 434 l 347 87 l 434 87 l 434 0 z "},"υ":{"ha":781,"x_min":0,"x_max":0,"o":"m 174 0 l 174 87 l 87 87 l 87 434 l 0 434 l 0 521 l 260 521 l 260 87 l 434 87 l 434 434 l 347 434 l 347 521 l 694 521 l 694 434 l 608 434 l 608 87 l 521 87 l 521 0 z "},"φ":{"ha":608,"x_min":0,"x_max":0,"o":"m 434 87 l 434 434 l 521 434 l 521 87 z m 260 -260 l 260 0 l 87 0 l 87 87 l 0 87 l 0 434 l 87 434 l 87 521 l 174 521 l 174 87 l 260 87 l 260 434 l 347 434 l 347 87 l 434 87 l 434 0 l 347 0 l 347 -260 z m 347 434 l 347 521 l 434 521 l 434 434 z "},"χ":{"ha":608,"x_min":0,"x_max":0,"o":"m 0 -260 l 0 -174 l 87 -174 l 87 0 l 174 0 l 174 347 l 87 347 l 87 434 l 0 434 l 0 521 l 174 521 l 174 434 l 260 434 l 260 347 l 347 347 l 347 521 l 521 521 l 521 434 l 434 434 l 434 260 l 347 260 l 347 0 l 434 0 l 434 -174 l 521 -174 l 521 -260 l 347 -260 l 347 -174 l 260 -174 l 260 -87 l 174 -87 l 174 -260 z "},"ψ":{"ha":868,"x_min":0,"x_max":0,"o":"m 347 -260 l 347 0 l 174 0 l 174 87 l 87 87 l 87 434 l 0 434 l 0 521 l 260 521 l 260 87 l 347 87 l 347 781 l 434 781 l 434 87 l 521 87 l 521 521 l 781 521 l 781 434 l 694 434 l 694 87 l 608 87 l 608 0 l 434 0 l 434 -260 z "},"ω":{"ha":781,"x_min":0,"x_max":0,"o":"m 260 87 l 260 347 l 434 347 l 434 87 z m 87 0 l 87 87 l 0 87 l 0 434 l 87 434 l 87 521 l 260 521 l 260 434 l 174 434 l 174 87 l 260 87 l 260 0 z m 434 0 l 434 87 l 521 87 l 521 434 l 434 434 l 434 521 l 608 521 l 608 434 l 694 434 l 694 87 l 608 87 l 608 0 z "},"ϊ":{"ha":521,"x_min":0,"x_max":0,"o":"m 174 0 l 174 87 l 87 87 l 87 521 l 260 521 l 260 87 l 434 87 l 434 0 z m 0 608 l 0 694 l 87 694 l 87 608 z m 260 608 l 260 694 l 347 694 l 347 608 z "},"ϋ":{"ha":781,"x_min":0,"x_max":0,"o":"m 174 0 l 174 87 l 87 87 l 87 434 l 0 434 l 0 521 l 260 521 l 260 87 l 434 87 l 434 434 l 347 434 l 347 521 l 694 521 l 694 434 l 608 434 l 608 87 l 521 87 l 521 0 z m 174 608 l 174 694 l 260 694 l 260 608 z m 434 608 l 434 694 l 521 694 l 521 608 z "},"ό":{"ha":608,"x_min":0,"x_max":0,"o":"m 347 87 l 347 434 l 174 434 l 174 87 z m 87 0 l 87 87 l 0 87 l 0 434 l 87 434 l 87 521 l 434 521 l 434 434 l 521 434 l 521 87 l 434 87 l 434 0 z m 174 608 l 174 868 l 347 868 l 347 608 z "},"ύ":{"ha":781,"x_min":0,"x_max":0,"o":"m 174 0 l 174 87 l 87 87 l 87 434 l 0 434 l 0 521 l 260 521 l 260 87 l 434 87 l 434 434 l 347 434 l 347 521 l 694 521 l 694 434 l 608 434 l 608 87 l 521 87 l 521 0 z m 260 608 l 260 868 l 434 868 l 434 608 z "},"ώ":{"ha":781,"x_min":0,"x_max":0,"o":"m 260 87 l 260 347 l 434 347 l 434 87 z m 87 0 l 87 87 l 0 87 l 0 434 l 87 434 l 87 521 l 260 521 l 260 434 l 174 434 l 174 87 l 260 87 l 260 0 z m 434 0 l 434 87 l 521 87 l 521 434 l 434 434 l 434 521 l 608 521 l 608 434 l 694 434 l 694 87 l 608 87 l 608 0 z m 260 608 l 260 868 l 434 868 l 434 608 z "},"Ϗ":{"ha":868,"x_min":0,"x_max":0,"o":"m 521 -434 l 521 -347 l 608 -347 l 608 -434 z m 260 -174 l 260 -87 l 347 -87 l 347 -174 z m 434 -347 l 434 -260 l 347 -260 l 347 -174 l 434 -174 l 434 -87 l 521 -87 l 521 87 l 434 87 l 434 260 l 260 260 l 260 87 l 347 87 l 347 0 l 0 0 l 0 87 l 87 87 l 87 608 l 0 608 l 0 694 l 347 694 l 347 608 l 260 608 l 260 434 l 347 434 l 347 521 l 434 521 l 434 694 l 694 694 l 694 608 l 608 608 l 608 521 l 521 521 l 521 434 l 434 434 l 434 347 l 521 347 l 521 260 l 608 260 l 608 87 l 694 87 l 694 0 l 781 0 l 781 -87 l 694 -87 l 694 -174 l 608 -174 l 608 -260 l 521 -260 l 521 -347 z "},"ϐ":{"ha":521,"x_min":0,"x_max":0,"o":"m 347 87 l 347 174 l 174 174 l 174 87 z m 260 434 l 260 521 l 347 521 l 347 608 l 174 608 l 174 521 l 87 521 l 87 434 z m 87 0 l 87 87 l 0 87 l 0 608 l 87 608 l 87 694 l 434 694 l 434 434 l 347 434 l 347 347 l 87 347 l 87 260 l 434 260 l 434 0 z "},"ϑ":{"ha":608,"x_min":0,"x_max":0,"o":"m 347 434 l 347 521 l 260 521 l 260 608 l 87 608 l 87 521 l 174 521 l 174 434 z m 87 0 l 87 87 l 0 87 l 0 260 l 87 260 l 87 174 l 174 174 l 174 87 l 260 87 l 260 260 l 347 260 l 347 347 l 87 347 l 87 434 l 0 434 l 0 694 l 347 694 l 347 608 l 434 608 l 434 434 l 521 434 l 521 347 l 434 347 l 434 87 l 347 87 l 347 0 z "},"ϒ":{"ha":868,"x_min":0,"x_max":0,"o":"m 87 0 l 87 87 l 260 87 l 260 347 l 174 347 l 174 521 l 87 521 l 87 608 l 0 608 l 0 694 l 260 694 l 260 434 l 434 434 l 434 608 l 521 608 l 521 694 l 781 694 l 781 521 l 694 521 l 694 608 l 608 608 l 608 521 l 521 521 l 521 347 l 434 347 l 434 87 l 608 87 l 608 0 z "},"ϓ":{"ha":1042,"x_min":0,"x_max":0,"o":"m 0 434 l 0 694 l 174 694 l 174 434 z m 260 0 l 260 87 l 434 87 l 434 347 l 347 347 l 347 521 l 260 521 l 260 694 l 434 694 l 434 434 l 608 434 l 608 608 l 694 608 l 694 694 l 955 694 l 955 521 l 868 521 l 868 608 l 781 608 l 781 521 l 694 521 l 694 347 l 608 347 l 608 87 l 781 87 l 781 0 z "},"ϔ":{"ha":868,"x_min":0,"x_max":0,"o":"m 87 0 l 87 87 l 260 87 l 260 347 l 174 347 l 174 521 l 87 521 l 87 608 l 0 608 l 0 694 l 260 694 l 260 434 l 434 434 l 434 608 l 521 608 l 521 694 l 781 694 l 781 521 l 694 521 l 694 608 l 608 608 l 608 521 l 521 521 l 521 347 l 434 347 l 434 87 l 608 87 l 608 0 z m 174 781 l 174 868 l 260 868 l 260 781 z m 434 781 l 434 868 l 521 868 l 521 781 z "},"ϕ":{"ha":694,"x_min":0,"x_max":0,"o":"m 434 87 l 434 434 l 521 434 l 521 347 l 608 347 l 608 174 l 521 174 l 521 87 z m 260 -260 l 260 0 l 87 0 l 87 87 l 0 87 l 0 434 l 87 434 l 87 521 l 174 521 l 174 87 l 260 87 l 260 781 l 347 781 l 347 521 l 434 521 l 434 434 l 347 434 l 347 87 l 434 87 l 434 0 l 347 0 l 347 -260 z "},"ϖ":{"ha":1128,"x_min":0,"x_max":0,"o":"m 260 0 l 260 87 l 174 87 l 174 434 l 347 434 l 347 87 l 521 87 l 521 0 z m 521 87 l 521 434 l 694 434 l 694 87 z m 694 0 l 694 87 l 868 87 l 868 521 l 174 521 l 174 434 l 87 434 l 87 347 l 0 347 l 0 521 l 87 521 l 87 608 l 955 608 l 955 521 l 1042 521 l 1042 87 l 955 87 l 955 0 z "},"ϗ":{"ha":608,"x_min":0,"x_max":0,"o":"m 87 -347 l 87 -260 l 174 -260 l 174 -174 l 434 -174 l 434 -260 l 260 -260 l 260 -347 z m 434 -174 l 434 0 l 347 0 l 347 260 l 260 260 l 260 174 l 174 174 l 174 0 l 0 0 l 0 87 l 87 87 l 87 521 l 0 521 l 0 608 l 174 608 l 174 347 l 260 347 l 260 434 l 347 434 l 347 608 l 521 608 l 521 521 l 434 521 l 434 87 l 521 87 l 521 -174 z "},"Ϙ":{"ha":694,"x_min":0,"x_max":0,"o":"m 434 347 l 434 694 l 347 694 l 347 781 l 260 781 l 260 694 l 174 694 l 174 347 z m 87 0 l 87 87 l 260 87 l 260 174 l 174 174 l 174 260 l 87 260 l 87 347 l 0 347 l 0 694 l 87 694 l 87 781 l 174 781 l 174 868 l 434 868 l 434 781 l 521 781 l 521 694 l 608 694 l 608 347 l 521 347 l 521 260 l 434 260 l 434 174 l 347 174 l 347 87 l 521 87 l 521 0 z "},"ϙ":{"ha":694,"x_min":0,"x_max":0,"o":"m 434 347 l 434 694 l 347 694 l 347 781 l 260 781 l 260 694 l 174 694 l 174 347 z m 260 0 l 260 174 l 174 174 l 174 260 l 87 260 l 87 347 l 0 347 l 0 694 l 87 694 l 87 781 l 174 781 l 174 868 l 434 868 l 434 781 l 521 781 l 521 694 l 608 694 l 608 347 l 521 347 l 521 260 l 434 260 l 434 174 l 347 174 l 347 0 z "},"Ϛ":{"ha":694,"x_min":0,"x_max":0,"o":"m 87 -260 l 87 -174 l 260 -174 l 260 0 l 87 0 l 87 87 l 0 87 l 0 521 l 87 521 l 87 608 l 174 608 l 174 694 l 521 694 l 521 608 l 608 608 l 608 521 l 260 521 l 260 434 l 174 434 l 174 87 l 347 87 l 347 0 l 434 0 l 434 -174 l 347 -174 l 347 -260 z "},"ϛ":{"ha":781,"x_min":0,"x_max":0,"o":"m 87 -260 l 87 -174 l 260 -174 l 260 0 l 87 0 l 87 87 l 0 87 l 0 347 l 87 347 l 87 434 l 174 434 l 174 521 l 608 521 l 608 434 l 260 434 l 260 347 l 174 347 l 174 87 l 347 87 l 347 0 l 434 0 l 434 -174 l 347 -174 l 347 -260 z m 608 521 l 608 694 l 694 694 l 694 521 z "},"Ϝ":{"ha":694,"x_min":0,"x_max":0,"o":"m 0 0 l 0 87 l 87 87 l 87 608 l 0 608 l 0 694 l 608 694 l 608 434 l 521 434 l 521 608 l 260 608 l 260 434 l 347 434 l 347 521 l 434 521 l 434 260 l 347 260 l 347 347 l 260 347 l 260 87 l 434 87 l 434 0 z "},"ϝ":{"ha":781,"x_min":0,"x_max":0,"o":"m 0 0 l 0 87 l 87 87 l 87 608 l 174 608 l 174 694 l 608 694 l 608 608 l 260 608 l 260 434 l 521 434 l 521 347 l 260 347 l 260 87 l 347 87 l 347 0 z m 608 694 l 608 781 l 694 781 l 694 694 z "},"Ϟ":{"ha":781,"x_min":0,"x_max":0,"o":"m 260 0 l 260 87 l 347 87 l 347 260 l 434 260 l 434 347 l 0 347 l 0 434 l 87 434 l 87 608 l 174 608 l 174 694 l 347 694 l 347 608 l 260 608 l 260 434 l 694 434 l 694 347 l 608 347 l 608 260 l 521 260 l 521 87 l 434 87 l 434 0 z "},"ϟ":{"ha":694,"x_min":0,"x_max":0,"o":"m 347 -87 l 347 260 l 174 260 l 174 174 l 87 174 l 87 347 l 174 347 l 174 608 l 87 608 l 87 521 l 0 521 l 0 694 l 260 694 l 260 434 l 434 434 l 434 521 l 521 521 l 521 260 l 434 260 l 434 0 l 521 0 l 521 87 l 608 87 l 608 -87 z "},"Ϡ":{"ha":1128,"x_min":0,"x_max":0,"o":"m 868 0 l 868 521 l 781 521 l 781 434 l 694 434 l 694 347 l 608 347 l 608 260 l 434 260 l 434 347 l 521 347 l 521 434 l 608 434 l 608 521 l 694 521 l 694 694 l 608 694 l 608 608 l 521 608 l 521 521 l 434 521 l 434 434 l 260 434 l 260 521 l 347 521 l 347 608 l 434 608 l 434 694 l 521 694 l 521 781 l 174 781 l 174 694 l 0 694 l 0 781 l 87 781 l 87 868 l 174 868 l 174 955 l 521 955 l 521 868 l 694 868 l 694 781 l 781 781 l 781 694 l 868 694 l 868 608 l 955 608 l 955 521 l 1042 521 l 1042 87 l 955 87 l 955 0 z "},"ϡ":{"ha":955,"x_min":0,"x_max":0,"o":"m 781 0 l 781 174 l 694 174 l 694 347 l 521 347 l 521 260 l 434 260 l 434 174 l 260 174 l 260 260 l 347 260 l 347 347 l 434 347 l 434 434 l 521 434 l 521 521 l 347 521 l 347 434 l 260 434 l 260 347 l 87 347 l 87 434 l 174 434 l 174 521 l 260 521 l 260 608 l 347 608 l 347 694 l 174 694 l 174 781 l 0 781 l 0 868 l 347 868 l 347 781 l 521 781 l 521 694 l 608 694 l 608 608 l 694 608 l 694 521 l 781 521 l 781 347 l 868 347 l 868 0 z "},"Ѐ":{"ha":694,"x_min":0,"x_max":0,"o":"m 0 0 l 0 87 l 87 87 l 87 608 l 0 608 l 0 694 l 608 694 l 608 434 l 521 434 l 521 608 l 260 608 l 260 434 l 347 434 l 347 521 l 434 521 l 434 260 l 347 260 l 347 347 l 260 347 l 260 87 l 521 87 l 521 260 l 608 260 l 608 0 z m 347 781 l 347 868 l 434 868 l 434 781 z m 260 868 l 260 955 l 347 955 l 347 868 z "},"Ё":{"ha":694,"x_min":0,"x_max":0,"o":"m 0 0 l 0 87 l 87 87 l 87 608 l 0 608 l 0 694 l 608 694 l 608 434 l 521 434 l 521 608 l 260 608 l 260 434 l 347 434 l 347 521 l 434 521 l 434 260 l 347 260 l 347 347 l 260 347 l 260 87 l 521 87 l 521 260 l 608 260 l 608 0 z m 174 781 l 174 868 l 260 868 l 260 781 z m 434 781 l 434 868 l 521 868 l 521 781 z "},"Ђ":{"ha":781,"x_min":0,"x_max":0,"o":"m 87 0 l 87 87 l 174 87 l 174 608 l 87 608 l 87 521 l 0 521 l 0 694 l 521 694 l 521 521 l 434 521 l 434 608 l 347 608 l 347 434 l 608 434 l 608 347 l 694 347 l 694 87 l 608 87 l 608 0 l 434 0 l 434 87 l 521 87 l 521 347 l 347 347 l 347 0 z "},"Ѓ":{"ha":694,"x_min":0,"x_max":0,"o":"m 0 0 l 0 87 l 87 87 l 87 608 l 0 608 l 0 694 l 608 694 l 608 434 l 434 434 l 434 608 l 260 608 l 260 87 l 347 87 l 347 0 z m 260 781 l 260 868 l 347 868 l 347 781 z m 347 868 l 347 955 l 434 955 l 434 868 z "},"Є":{"ha":608,"x_min":0,"x_max":0,"o":"m 434 87 l 434 174 l 521 174 l 521 87 z m 87 0 l 87 87 l 0 87 l 0 608 l 87 608 l 87 694 l 521 694 l 521 521 l 347 521 l 347 608 l 174 608 l 174 434 l 347 434 l 347 347 l 174 347 l 174 87 l 434 87 l 434 0 z "},"Ѕ":{"ha":608,"x_min":0,"x_max":0,"o":"m 0 0 l 0 174 l 174 174 l 174 87 l 347 87 l 347 260 l 174 260 l 174 347 l 87 347 l 87 434 l 0 434 l 0 608 l 87 608 l 87 694 l 521 694 l 521 521 l 347 521 l 347 608 l 174 608 l 174 434 l 347 434 l 347 347 l 434 347 l 434 260 l 521 260 l 521 87 l 434 87 l 434 0 z "},"І":{"ha":608,"x_min":0,"x_max":0,"o":"m 0 0 l 0 87 l 174 87 l 174 608 l 0 608 l 0 694 l 521 694 l 521 608 l 347 608 l 347 87 l 521 87 l 521 0 z "},"Ї":{"ha":608,"x_min":0,"x_max":0,"o":"m 0 0 l 0 87 l 174 87 l 174 608 l 0 608 l 0 694 l 521 694 l 521 608 l 347 608 l 347 87 l 521 87 l 521 0 z m 87 781 l 87 868 l 174 868 l 174 781 z m 347 781 l 347 868 l 434 868 l 434 781 z "},"Ј":{"ha":781,"x_min":0,"x_max":0,"o":"m 0 0 l 0 347 l 174 347 l 174 87 l 347 87 l 347 608 l 87 608 l 87 694 l 694 694 l 694 608 l 521 608 l 521 87 l 434 87 l 434 0 z "},"Љ":{"ha":781,"x_min":0,"x_max":0,"o":"m 608 87 l 608 347 l 694 347 l 694 87 z m 0 0 l 0 87 l 87 87 l 87 608 l 0 608 l 0 694 l 608 694 l 608 608 l 521 608 l 521 434 l 608 434 l 608 347 l 521 347 l 521 87 l 608 87 l 608 0 l 347 0 l 347 608 l 260 608 l 260 87 l 174 87 l 174 0 z "},"Њ":{"ha":781,"x_min":0,"x_max":0,"o":"m 608 87 l 608 347 l 694 347 l 694 87 z m 0 0 l 0 87 l 87 87 l 87 608 l 0 608 l 0 694 l 260 694 l 260 434 l 347 434 l 347 694 l 608 694 l 608 608 l 521 608 l 521 434 l 608 434 l 608 347 l 521 347 l 521 87 l 608 87 l 608 0 l 347 0 l 347 347 l 260 347 l 260 0 z "},"Ћ":{"ha":781,"x_min":0,"x_max":0,"o":"m 87 0 l 87 87 l 174 87 l 174 608 l 87 608 l 87 521 l 0 521 l 0 694 l 521 694 l 521 521 l 434 521 l 434 608 l 347 608 l 347 434 l 521 434 l 521 347 l 608 347 l 608 87 l 694 87 l 694 0 l 434 0 l 434 347 l 347 347 l 347 0 z "},"Ќ":{"ha":781,"x_min":0,"x_max":0,"o":"m 0 0 l 0 87 l 87 87 l 87 608 l 0 608 l 0 694 l 260 694 l 260 521 l 347 521 l 347 608 l 434 608 l 434 694 l 608 694 l 608 521 l 434 521 l 434 347 l 521 347 l 521 260 l 608 260 l 608 87 l 694 87 l 694 0 l 521 0 l 521 87 l 434 87 l 434 260 l 347 260 l 347 347 l 260 347 l 260 87 l 347 87 l 347 0 z m 260 781 l 260 868 l 347 868 l 347 781 z m 347 868 l 347 955 l 434 955 l 434 868 z "},"Ѝ":{"ha":781,"x_min":0,"x_max":0,"o":"m 0 0 l 0 87 l 87 87 l 87 608 l 0 608 l 0 694 l 347 694 l 347 608 l 260 608 l 260 347 l 347 347 l 347 174 l 260 174 l 260 0 z m 347 0 l 347 87 l 434 87 l 434 347 l 347 347 l 347 521 l 434 521 l 434 694 l 694 694 l 694 608 l 608 608 l 608 87 l 694 87 l 694 0 z m 347 781 l 347 868 l 434 868 l 434 781 z m 260 868 l 260 955 l 347 955 l 347 868 z "},"Ў":{"ha":781,"x_min":0,"x_max":0,"o":"m 0 0 l 0 174 l 87 174 l 87 87 l 174 87 l 174 174 l 260 174 l 260 347 l 174 347 l 174 521 l 87 521 l 87 608 l 0 608 l 0 694 l 347 694 l 347 608 l 260 608 l 260 434 l 434 434 l 434 694 l 694 694 l 694 608 l 608 608 l 608 521 l 521 521 l 521 347 l 434 347 l 434 174 l 347 174 l 347 87 l 260 87 l 260 0 z m 260 781 l 260 868 l 434 868 l 434 781 z m 174 868 l 174 955 l 260 955 l 260 868 z m 434 868 l 434 955 l 521 955 l 521 868 z "},"Џ":{"ha":781,"x_min":0,"x_max":0,"o":"m 260 -174 l 260 0 l 0 0 l 0 87 l 87 87 l 87 608 l 0 608 l 0 694 l 260 694 l 260 87 l 434 87 l 434 694 l 694 694 l 694 608 l 608 608 l 608 87 l 694 87 l 694 0 l 347 0 l 347 -174 z "},"А":{"ha":868,"x_min":0,"x_max":0,"o":"m 434 260 l 434 521 l 347 521 l 347 260 z m 0 0 l 0 87 l 87 87 l 87 260 l 174 260 l 174 521 l 260 521 l 260 608 l 87 608 l 87 694 l 521 694 l 521 521 l 608 521 l 608 260 l 694 260 l 694 87 l 781 87 l 781 0 l 434 0 l 434 87 l 521 87 l 521 174 l 260 174 l 260 87 l 347 87 l 347 0 z "},"Б":{"ha":694,"x_min":0,"x_max":0,"o":"m 434 87 l 434 347 l 260 347 l 260 87 z m 0 0 l 0 87 l 87 87 l 87 608 l 0 608 l 0 694 l 608 694 l 608 521 l 521 521 l 521 608 l 260 608 l 260 434 l 521 434 l 521 347 l 608 347 l 608 87 l 521 87 l 521 0 z "},"В":{"ha":694,"x_min":0,"x_max":0,"o":"m 434 87 l 434 347 l 260 347 l 260 87 z m 434 434 l 434 608 l 260 608 l 260 434 z m 0 0 l 0 87 l 87 87 l 87 608 l 0 608 l 0 694 l 521 694 l 521 608 l 608 608 l 608 434 l 521 434 l 521 347 l 608 347 l 608 87 l 521 87 l 521 0 z "},"Г":{"ha":694,"x_min":0,"x_max":0,"o":"m 0 0 l 0 87 l 87 87 l 87 608 l 0 608 l 0 694 l 608 694 l 608 434 l 434 434 l 434 608 l 260 608 l 260 87 l 347 87 l 347 0 z "},"Д":{"ha":781,"x_min":0,"x_max":0,"o":"m 434 87 l 434 608 l 347 608 l 347 174 l 260 174 l 260 87 z m 0 -174 l 0 87 l 87 87 l 87 174 l 174 174 l 174 608 l 87 608 l 87 694 l 694 694 l 694 608 l 608 608 l 608 87 l 694 87 l 694 -174 l 608 -174 l 608 0 l 87 0 l 87 -174 z "},"Е":{"ha":694,"x_min":0,"x_max":0,"o":"m 0 0 l 0 87 l 87 87 l 87 608 l 0 608 l 0 694 l 608 694 l 608 434 l 521 434 l 521 608 l 260 608 l 260 434 l 347 434 l 347 521 l 434 521 l 434 260 l 347 260 l 347 347 l 260 347 l 260 87 l 521 87 l 521 260 l 608 260 l 608 0 z "},"Ж":{"ha":781,"x_min":0,"x_max":0,"o":"m 0 0 l 0 87 l 87 87 l 87 260 l 174 260 l 174 0 z m 521 0 l 521 260 l 608 260 l 608 87 l 694 87 l 694 0 z m 87 521 l 87 608 l 0 608 l 0 694 l 174 694 l 174 521 z m 260 0 l 260 260 l 174 260 l 174 347 l 260 347 l 260 434 l 174 434 l 174 521 l 260 521 l 260 694 l 434 694 l 434 521 l 521 521 l 521 434 l 434 434 l 434 347 l 521 347 l 521 260 l 434 260 l 434 0 z m 521 521 l 521 694 l 694 694 l 694 608 l 608 608 l 608 521 z "},"З":{"ha":694,"x_min":0,"x_max":0,"o":"m 87 0 l 87 87 l 0 87 l 0 174 l 174 174 l 174 87 l 434 87 l 434 347 l 260 347 l 260 434 l 434 434 l 434 608 l 174 608 l 174 434 l 87 434 l 87 781 l 174 781 l 174 694 l 521 694 l 521 608 l 608 608 l 608 434 l 521 434 l 521 347 l 608 347 l 608 87 l 521 87 l 521 0 z "},"И":{"ha":781,"x_min":0,"x_max":0,"o":"m 0 0 l 0 87 l 87 87 l 87 608 l 0 608 l 0 694 l 347 694 l 347 608 l 260 608 l 260 347 l 347 347 l 347 174 l 260 174 l 260 0 z m 347 0 l 347 87 l 434 87 l 434 347 l 347 347 l 347 521 l 434 521 l 434 694 l 694 694 l 694 608 l 608 608 l 608 87 l 694 87 l 694 0 z "},"Й":{"ha":781,"x_min":0,"x_max":0,"o":"m 0 0 l 0 87 l 87 87 l 87 608 l 0 608 l 0 694 l 347 694 l 347 608 l 260 608 l 260 347 l 347 347 l 347 174 l 260 174 l 260 0 z m 347 0 l 347 87 l 434 87 l 434 347 l 347 347 l 347 521 l 434 521 l 434 694 l 694 694 l 694 608 l 608 608 l 608 87 l 694 87 l 694 0 z m 260 781 l 260 868 l 434 868 l 434 781 z m 174 868 l 174 955 l 260 955 l 260 868 z m 434 868 l 434 955 l 521 955 l 521 868 z "},"К":{"ha":781,"x_min":0,"x_max":0,"o":"m 0 0 l 0 87 l 87 87 l 87 608 l 0 608 l 0 694 l 260 694 l 260 521 l 347 521 l 347 608 l 434 608 l 434 694 l 608 694 l 608 521 l 434 521 l 434 347 l 521 347 l 521 260 l 608 260 l 608 87 l 694 87 l 694 0 l 521 0 l 521 87 l 434 87 l 434 260 l 347 260 l 347 347 l 260 347 l 260 87 l 347 87 l 347 0 z "},"Л":{"ha":781,"x_min":0,"x_max":0,"o":"m 0 0 l 0 174 l 87 174 l 87 87 l 174 87 l 174 608 l 87 608 l 87 694 l 694 694 l 694 608 l 608 608 l 608 87 l 694 87 l 694 0 l 434 0 l 434 608 l 347 608 l 347 87 l 260 87 l 260 0 z "},"М":{"ha":868,"x_min":0,"x_max":0,"o":"m 347 174 l 347 347 l 434 347 l 434 174 z m 0 0 l 0 87 l 87 87 l 87 608 l 0 608 l 0 694 l 260 694 l 260 608 l 347 608 l 347 347 l 260 347 l 260 87 l 347 87 l 347 0 z m 434 0 l 434 87 l 521 87 l 521 347 l 434 347 l 434 608 l 521 608 l 521 694 l 781 694 l 781 608 l 694 608 l 694 87 l 781 87 l 781 0 z "},"Н":{"ha":781,"x_min":0,"x_max":0,"o":"m 0 0 l 0 87 l 87 87 l 87 608 l 0 608 l 0 694 l 260 694 l 260 434 l 434 434 l 434 694 l 694 694 l 694 608 l 608 608 l 608 87 l 694 87 l 694 0 l 434 0 l 434 347 l 260 347 l 260 0 z "},"О":{"ha":608,"x_min":0,"x_max":0,"o":"m 347 87 l 347 608 l 174 608 l 174 87 z m 87 0 l 87 87 l 0 87 l 0 608 l 87 608 l 87 694 l 434 694 l 434 608 l 521 608 l 521 87 l 434 87 l 434 0 z "},"П":{"ha":781,"x_min":0,"x_max":0,"o":"m 0 0 l 0 87 l 87 87 l 87 608 l 0 608 l 0 694 l 694 694 l 694 608 l 608 608 l 608 87 l 694 87 l 694 0 l 434 0 l 434 608 l 260 608 l 260 87 l 347 87 l 347 0 z "},"Р":{"ha":694,"x_min":0,"x_max":0,"o":"m 434 347 l 434 608 l 260 608 l 260 347 z m 0 0 l 0 87 l 87 87 l 87 608 l 0 608 l 0 694 l 521 694 l 521 608 l 608 608 l 608 347 l 521 347 l 521 260 l 260 260 l 260 87 l 434 87 l 434 0 z "},"С":{"ha":608,"x_min":0,"x_max":0,"o":"m 434 87 l 434 174 l 521 174 l 521 87 z m 174 0 l 174 87 l 87 87 l 87 174 l 0 174 l 0 521 l 87 521 l 87 608 l 174 608 l 174 694 l 521 694 l 521 521 l 434 521 l 434 608 l 260 608 l 260 521 l 174 521 l 174 174 l 260 174 l 260 87 l 434 87 l 434 0 z "},"Т":{"ha":608,"x_min":0,"x_max":0,"o":"m 87 0 l 87 87 l 174 87 l 174 608 l 87 608 l 87 434 l 0 434 l 0 694 l 521 694 l 521 434 l 434 434 l 434 608 l 347 608 l 347 87 l 434 87 l 434 0 z "},"У":{"ha":781,"x_min":0,"x_max":0,"o":"m 0 0 l 0 174 l 87 174 l 87 87 l 174 87 l 174 174 l 260 174 l 260 347 l 174 347 l 174 521 l 87 521 l 87 608 l 0 608 l 0 694 l 347 694 l 347 608 l 260 608 l 260 434 l 434 434 l 434 694 l 694 694 l 694 608 l 608 608 l 608 521 l 521 521 l 521 347 l 434 347 l 434 174 l 347 174 l 347 87 l 260 87 l 260 0 z "},"Ф":{"ha":781,"x_min":0,"x_max":0,"o":"m 260 260 l 260 434 l 174 434 l 174 260 z m 521 260 l 521 434 l 434 434 l 434 260 z m 174 0 l 174 87 l 260 87 l 260 174 l 87 174 l 87 260 l 0 260 l 0 434 l 87 434 l 87 521 l 260 521 l 260 608 l 174 608 l 174 694 l 521 694 l 521 608 l 434 608 l 434 521 l 608 521 l 608 434 l 694 434 l 694 260 l 608 260 l 608 174 l 434 174 l 434 87 l 521 87 l 521 0 z "},"Х":{"ha":781,"x_min":0,"x_max":0,"o":"m 0 0 l 0 87 l 87 87 l 87 174 l 174 174 l 174 260 l 260 260 l 260 434 l 174 434 l 174 521 l 87 521 l 87 608 l 0 608 l 0 694 l 260 694 l 260 521 l 434 521 l 434 608 l 347 608 l 347 694 l 694 694 l 694 608 l 608 608 l 608 521 l 521 521 l 521 434 l 434 434 l 434 260 l 521 260 l 521 174 l 608 174 l 608 87 l 694 87 l 694 0 l 434 0 l 434 174 l 260 174 l 260 87 l 347 87 l 347 0 z "},"Ц":{"ha":781,"x_min":0,"x_max":0,"o":"m 608 -174 l 608 0 l 0 0 l 0 87 l 87 87 l 87 608 l 0 608 l 0 694 l 260 694 l 260 87 l 434 87 l 434 694 l 694 694 l 694 608 l 608 608 l 608 87 l 694 87 l 694 -174 z "},"Ч":{"ha":781,"x_min":0,"x_max":0,"o":"m 347 0 l 347 87 l 434 87 l 434 174 l 174 174 l 174 260 l 87 260 l 87 608 l 0 608 l 0 694 l 347 694 l 347 608 l 260 608 l 260 260 l 434 260 l 434 694 l 694 694 l 694 608 l 608 608 l 608 87 l 694 87 l 694 0 z "},"Ш":{"ha":955,"x_min":0,"x_max":0,"o":"m 0 0 l 0 87 l 87 87 l 87 608 l 0 608 l 0 694 l 260 694 l 260 87 l 347 87 l 347 694 l 521 694 l 521 87 l 608 87 l 608 694 l 868 694 l 868 608 l 781 608 l 781 87 l 868 87 l 868 0 z "},"Щ":{"ha":955,"x_min":0,"x_max":0,"o":"m 781 -174 l 781 0 l 0 0 l 0 87 l 87 87 l 87 608 l 0 608 l 0 694 l 260 694 l 260 87 l 347 87 l 347 694 l 521 694 l 521 87 l 608 87 l 608 694 l 868 694 l 868 608 l 781 608 l 781 87 l 868 87 l 868 -174 z "},"Ъ":{"ha":781,"x_min":0,"x_max":0,"o":"m 521 87 l 521 347 l 347 347 l 347 87 z m 87 0 l 87 87 l 174 87 l 174 608 l 87 608 l 87 521 l 0 521 l 0 694 l 434 694 l 434 608 l 347 608 l 347 434 l 608 434 l 608 347 l 694 347 l 694 87 l 608 87 l 608 0 z "},"Ы":{"ha":955,"x_min":0,"x_max":0,"o":"m 347 87 l 347 347 l 260 347 l 260 87 z m 0 0 l 0 87 l 87 87 l 87 608 l 0 608 l 0 694 l 347 694 l 347 608 l 260 608 l 260 434 l 434 434 l 434 347 l 521 347 l 521 87 l 434 87 l 434 0 z m 521 0 l 521 87 l 608 87 l 608 608 l 521 608 l 521 694 l 868 694 l 868 608 l 781 608 l 781 87 l 868 87 l 868 0 z "},"Ь":{"ha":781,"x_min":0,"x_max":0,"o":"m 521 87 l 521 347 l 260 347 l 260 87 z m 0 0 l 0 87 l 87 87 l 87 608 l 0 608 l 0 694 l 347 694 l 347 608 l 260 608 l 260 434 l 608 434 l 608 347 l 694 347 l 694 87 l 608 87 l 608 0 z "},"Э":{"ha":608,"x_min":0,"x_max":0,"o":"m 0 87 l 0 174 l 87 174 l 87 87 z m 87 0 l 87 87 l 347 87 l 347 347 l 174 347 l 174 434 l 347 434 l 347 608 l 174 608 l 174 521 l 0 521 l 0 694 l 434 694 l 434 608 l 521 608 l 521 87 l 434 87 l 434 0 z "},"Ю":{"ha":868,"x_min":0,"x_max":0,"o":"m 608 87 l 608 608 l 521 608 l 521 87 z m 0 0 l 0 87 l 87 87 l 87 608 l 0 608 l 0 694 l 260 694 l 260 434 l 347 434 l 347 608 l 434 608 l 434 694 l 694 694 l 694 608 l 781 608 l 781 87 l 694 87 l 694 0 l 434 0 l 434 87 l 347 87 l 347 347 l 260 347 l 260 0 z "},"Я":{"ha":781,"x_min":0,"x_max":0,"o":"m 434 347 l 434 608 l 260 608 l 260 347 z m 0 0 l 0 87 l 87 87 l 87 174 l 174 174 l 174 347 l 87 347 l 87 608 l 174 608 l 174 694 l 694 694 l 694 608 l 608 608 l 608 87 l 694 87 l 694 0 l 347 0 l 347 87 l 434 87 l 434 260 l 347 260 l 347 174 l 260 174 l 260 87 l 174 87 l 174 0 z "},"а":{"ha":694,"x_min":0,"x_max":0,"o":"m 347 87 l 347 260 l 174 260 l 174 87 z m 87 0 l 87 87 l 0 87 l 0 260 l 87 260 l 87 347 l 347 347 l 347 434 l 87 434 l 87 521 l 434 521 l 434 434 l 521 434 l 521 87 l 608 87 l 608 0 z "},"б":{"ha":608,"x_min":0,"x_max":0,"o":"m 347 87 l 347 434 l 174 434 l 174 87 z m 87 0 l 87 87 l 0 87 l 0 608 l 87 608 l 87 694 l 434 694 l 434 608 l 174 608 l 174 521 l 434 521 l 434 434 l 521 434 l 521 87 l 434 87 l 434 0 z "},"в":{"ha":694,"x_min":0,"x_max":0,"o":"m 434 87 l 434 260 l 260 260 l 260 87 z m 347 347 l 347 434 l 260 434 l 260 347 z m 0 0 l 0 87 l 87 87 l 87 434 l 0 434 l 0 521 l 434 521 l 434 434 l 521 434 l 521 260 l 608 260 l 608 87 l 521 87 l 521 0 z "},"г":{"ha":694,"x_min":0,"x_max":0,"o":"m 0 0 l 0 87 l 87 87 l 87 434 l 0 434 l 0 521 l 608 521 l 608 260 l 521 260 l 521 434 l 260 434 l 260 87 l 347 87 l 347 0 z "},"д":{"ha":694,"x_min":0,"x_max":0,"o":"m 347 87 l 347 434 l 260 434 l 260 87 z m 0 -174 l 0 87 l 174 87 l 174 434 l 87 434 l 87 521 l 608 521 l 608 434 l 521 434 l 521 87 l 608 87 l 608 -174 l 434 -174 l 434 0 l 174 0 l 174 -174 z "},"е":{"ha":694,"x_min":0,"x_max":0,"o":"m 434 87 l 434 174 l 521 174 l 521 87 z m 347 347 l 347 434 l 174 434 l 174 347 z m 87 0 l 87 87 l 0 87 l 0 434 l 87 434 l 87 521 l 434 521 l 434 434 l 521 434 l 521 347 l 608 347 l 608 260 l 174 260 l 174 87 l 434 87 l 434 0 z "},"ж":{"ha":781,"x_min":0,"x_max":0,"o":"m 0 0 l 0 87 l 87 87 l 87 260 l 174 260 l 174 0 z m 521 0 l 521 260 l 608 260 l 608 87 l 694 87 l 694 0 z m 87 347 l 87 434 l 0 434 l 0 521 l 174 521 l 174 347 z m 260 0 l 260 260 l 174 260 l 174 347 l 260 347 l 260 521 l 434 521 l 434 347 l 521 347 l 521 260 l 434 260 l 434 0 z m 521 347 l 521 521 l 694 521 l 694 434 l 608 434 l 608 347 z "},"з":{"ha":694,"x_min":0,"x_max":0,"o":"m 87 0 l 87 87 l 0 87 l 0 174 l 174 174 l 174 87 l 434 87 l 434 260 l 347 260 l 347 347 l 434 347 l 434 434 l 260 434 l 260 260 l 87 260 l 87 608 l 260 608 l 260 521 l 521 521 l 521 434 l 608 434 l 608 347 l 521 347 l 521 260 l 608 260 l 608 87 l 521 87 l 521 0 z "},"и":{"ha":781,"x_min":0,"x_max":0,"o":"m 0 0 l 0 87 l 87 87 l 87 434 l 0 434 l 0 521 l 347 521 l 347 434 l 260 434 l 260 260 l 347 260 l 347 87 l 260 87 l 260 0 z m 347 0 l 347 87 l 434 87 l 434 260 l 347 260 l 347 434 l 434 434 l 434 521 l 694 521 l 694 434 l 608 434 l 608 87 l 694 87 l 694 0 z "},"й":{"ha":781,"x_min":0,"x_max":0,"o":"m 0 0 l 0 87 l 87 87 l 87 434 l 0 434 l 0 521 l 347 521 l 347 434 l 260 434 l 260 260 l 347 260 l 347 87 l 260 87 l 260 0 z m 347 0 l 347 87 l 434 87 l 434 260 l 347 260 l 347 434 l 434 434 l 434 521 l 694 521 l 694 434 l 608 434 l 608 87 l 694 87 l 694 0 z m 260 608 l 260 694 l 434 694 l 434 608 z m 174 694 l 174 781 l 260 781 l 260 694 z m 434 694 l 434 781 l 521 781 l 521 694 z "},"к":{"ha":694,"x_min":0,"x_max":0,"o":"m 0 0 l 0 87 l 87 87 l 87 434 l 0 434 l 0 521 l 347 521 l 347 434 l 260 434 l 260 347 l 347 347 l 347 434 l 434 434 l 434 260 l 521 260 l 521 87 l 608 87 l 608 0 l 434 0 l 434 87 l 347 87 l 347 260 l 260 260 l 260 87 l 347 87 l 347 0 z m 521 347 l 521 434 l 434 434 l 434 521 l 608 521 l 608 347 z "},"л":{"ha":781,"x_min":0,"x_max":0,"o":"m 0 0 l 0 174 l 87 174 l 87 87 l 174 87 l 174 434 l 87 434 l 87 521 l 694 521 l 694 434 l 608 434 l 608 87 l 694 87 l 694 0 l 347 0 l 347 87 l 434 87 l 434 434 l 347 434 l 347 87 l 260 87 l 260 0 z "},"м":{"ha":868,"x_min":0,"x_max":0,"o":"m 347 174 l 347 260 l 434 260 l 434 174 z m 0 0 l 0 87 l 87 87 l 87 434 l 0 434 l 0 521 l 260 521 l 260 434 l 347 434 l 347 260 l 260 260 l 260 87 l 347 87 l 347 0 z m 434 0 l 434 87 l 521 87 l 521 260 l 434 260 l 434 434 l 521 434 l 521 521 l 781 521 l 781 434 l 694 434 l 694 87 l 781 87 l 781 0 z "},"н":{"ha":781,"x_min":0,"x_max":0,"o":"m 0 0 l 0 87 l 87 87 l 87 434 l 0 434 l 0 521 l 260 521 l 260 347 l 434 347 l 434 434 l 347 434 l 347 521 l 694 521 l 694 434 l 608 434 l 608 87 l 694 87 l 694 0 l 434 0 l 434 260 l 260 260 l 260 87 l 347 87 l 347 0 z "},"о":{"ha":608,"x_min":0,"x_max":0,"o":"m 347 87 l 347 434 l 174 434 l 174 87 z m 87 0 l 87 87 l 0 87 l 0 434 l 87 434 l 87 521 l 434 521 l 434 434 l 521 434 l 521 87 l 434 87 l 434 0 z "},"п":{"ha":781,"x_min":0,"x_max":0,"o":"m 0 0 l 0 87 l 87 87 l 87 434 l 0 434 l 0 521 l 694 521 l 694 434 l 608 434 l 608 87 l 694 87 l 694 0 l 434 0 l 434 434 l 260 434 l 260 87 l 347 87 l 347 0 z "},"р":{"ha":694,"x_min":0,"x_max":0,"o":"m 0 -174 l 0 -87 l 87 -87 l 87 434 l 0 434 l 0 521 l 260 521 l 260 434 l 347 434 l 347 347 l 260 347 l 260 174 l 347 174 l 347 87 l 260 87 l 260 -87 l 434 -87 l 434 -174 z m 347 0 l 347 87 l 434 87 l 434 434 l 347 434 l 347 521 l 521 521 l 521 434 l 608 434 l 608 87 l 521 87 l 521 0 z "},"с":{"ha":608,"x_min":0,"x_max":0,"o":"m 434 87 l 434 174 l 521 174 l 521 87 z m 87 0 l 87 87 l 0 87 l 0 434 l 87 434 l 87 521 l 521 521 l 521 260 l 434 260 l 434 434 l 174 434 l 174 87 l 434 87 l 434 0 z "},"т":{"ha":608,"x_min":0,"x_max":0,"o":"m 87 0 l 87 87 l 174 87 l 174 434 l 87 434 l 87 260 l 0 260 l 0 521 l 521 521 l 521 260 l 434 260 l 434 434 l 347 434 l 347 87 l 434 87 l 434 0 z "},"у":{"ha":781,"x_min":0,"x_max":0,"o":"m 87 -174 l 87 0 l 174 0 l 174 -87 l 260 -87 l 260 87 l 174 87 l 174 260 l 87 260 l 87 434 l 0 434 l 0 521 l 347 521 l 347 434 l 260 434 l 260 260 l 434 260 l 434 521 l 694 521 l 694 434 l 608 434 l 608 260 l 521 260 l 521 87 l 434 87 l 434 -87 l 347 -87 l 347 -174 z "},"ф":{"ha":781,"x_min":0,"x_max":0,"o":"m 260 87 l 260 434 l 174 434 l 174 87 z m 521 87 l 521 434 l 434 434 l 434 87 z m 174 -174 l 174 -87 l 260 -87 l 260 0 l 87 0 l 87 87 l 0 87 l 0 434 l 87 434 l 87 521 l 260 521 l 260 694 l 174 694 l 174 781 l 434 781 l 434 521 l 608 521 l 608 434 l 694 434 l 694 87 l 608 87 l 608 0 l 434 0 l 434 -87 l 521 -87 l 521 -174 z "},"х":{"ha":781,"x_min":0,"x_max":0,"o":"m 0 0 l 0 87 l 87 87 l 87 174 l 174 174 l 174 347 l 87 347 l 87 434 l 0 434 l 0 521 l 260 521 l 260 347 l 434 347 l 434 521 l 694 521 l 694 434 l 608 434 l 608 347 l 521 347 l 521 174 l 608 174 l 608 87 l 694 87 l 694 0 l 434 0 l 434 174 l 260 174 l 260 0 z "},"ц":{"ha":781,"x_min":0,"x_max":0,"o":"m 608 -174 l 608 0 l 0 0 l 0 87 l 87 87 l 87 434 l 0 434 l 0 521 l 260 521 l 260 87 l 434 87 l 434 521 l 694 521 l 694 434 l 608 434 l 608 87 l 694 87 l 694 -174 z "},"ч":{"ha":694,"x_min":0,"x_max":0,"o":"m 260 0 l 260 87 l 347 87 l 347 174 l 174 174 l 174 260 l 87 260 l 87 434 l 0 434 l 0 521 l 260 521 l 260 260 l 347 260 l 347 521 l 608 521 l 608 434 l 521 434 l 521 87 l 608 87 l 608 0 z "},"ш":{"ha":955,"x_min":0,"x_max":0,"o":"m 0 0 l 0 87 l 87 87 l 87 434 l 0 434 l 0 521 l 260 521 l 260 87 l 347 87 l 347 521 l 521 521 l 521 87 l 608 87 l 608 521 l 868 521 l 868 434 l 781 434 l 781 87 l 868 87 l 868 0 z "},"щ":{"ha":955,"x_min":0,"x_max":0,"o":"m 781 -174 l 781 0 l 0 0 l 0 87 l 87 87 l 87 434 l 0 434 l 0 521 l 260 521 l 260 87 l 347 87 l 347 521 l 521 521 l 521 87 l 608 87 l 608 521 l 868 521 l 868 434 l 781 434 l 781 87 l 868 87 l 868 -174 z "},"ъ":{"ha":781,"x_min":0,"x_max":0,"o":"m 521 87 l 521 260 l 347 260 l 347 87 z m 87 0 l 87 87 l 174 87 l 174 434 l 87 434 l 87 260 l 0 260 l 0 521 l 434 521 l 434 434 l 347 434 l 347 347 l 608 347 l 608 260 l 694 260 l 694 87 l 608 87 l 608 0 z "},"ы":{"ha":955,"x_min":0,"x_max":0,"o":"m 434 87 l 434 260 l 521 260 l 521 87 z m 0 0 l 0 87 l 87 87 l 87 434 l 0 434 l 0 521 l 347 521 l 347 434 l 260 434 l 260 347 l 434 347 l 434 260 l 260 260 l 260 87 l 434 87 l 434 0 z m 521 0 l 521 87 l 608 87 l 608 434 l 521 434 l 521 521 l 868 521 l 868 434 l 781 434 l 781 87 l 868 87 l 868 0 z "},"ь":{"ha":694,"x_min":0,"x_max":0,"o":"m 434 87 l 434 260 l 260 260 l 260 87 z m 0 0 l 0 87 l 87 87 l 87 434 l 0 434 l 0 521 l 347 521 l 347 434 l 260 434 l 260 347 l 521 347 l 521 260 l 608 260 l 608 87 l 521 87 l 521 0 z "},"э":{"ha":608,"x_min":0,"x_max":0,"o":"m 0 87 l 0 174 l 87 174 l 87 87 z m 87 0 l 87 87 l 347 87 l 347 260 l 174 260 l 174 347 l 347 347 l 347 434 l 174 434 l 174 347 l 0 347 l 0 521 l 434 521 l 434 434 l 521 434 l 521 87 l 434 87 l 434 0 z "},"ю":{"ha":781,"x_min":0,"x_max":0,"o":"m 608 87 l 608 434 l 694 434 l 694 87 z m 0 0 l 0 87 l 87 87 l 87 434 l 0 434 l 0 521 l 260 521 l 260 347 l 347 347 l 347 434 l 434 434 l 434 521 l 608 521 l 608 434 l 521 434 l 521 87 l 608 87 l 608 0 l 434 0 l 434 87 l 347 87 l 347 260 l 260 260 l 260 0 z "},"я":{"ha":694,"x_min":0,"x_max":0,"o":"m 347 260 l 347 434 l 174 434 l 174 260 z m 0 0 l 0 87 l 87 87 l 87 260 l 0 260 l 0 434 l 87 434 l 87 521 l 608 521 l 608 434 l 521 434 l 521 87 l 608 87 l 608 0 l 260 0 l 260 87 l 347 87 l 347 174 l 260 174 l 260 87 l 174 87 l 174 0 z "},"ѐ":{"ha":608,"x_min":0,"x_max":0,"o":"m 434 87 l 434 174 l 521 174 l 521 87 z m 347 347 l 347 434 l 174 434 l 174 347 z m 87 0 l 87 87 l 0 87 l 0 434 l 87 434 l 87 521 l 434 521 l 434 434 l 521 434 l 521 260 l 174 260 l 174 87 l 434 87 l 434 0 z m 260 608 l 260 694 l 347 694 l 347 608 z m 174 694 l 174 781 l 260 781 l 260 694 z "},"ё":{"ha":608,"x_min":0,"x_max":0,"o":"m 434 87 l 434 174 l 521 174 l 521 87 z m 347 347 l 347 434 l 174 434 l 174 347 z m 87 0 l 87 87 l 0 87 l 0 434 l 87 434 l 87 521 l 434 521 l 434 434 l 521 434 l 521 260 l 174 260 l 174 87 l 434 87 l 434 0 z m 87 608 l 87 694 l 174 694 l 174 608 z m 347 608 l 347 694 l 434 694 l 434 608 z "},"ђ":{"ha":694,"x_min":0,"x_max":0,"o":"m 260 -260 l 260 -174 l 434 -174 l 434 434 l 260 434 l 260 87 l 347 87 l 347 0 l 0 0 l 0 87 l 87 87 l 87 694 l 0 694 l 0 781 l 260 781 l 260 694 l 521 694 l 521 608 l 260 608 l 260 521 l 521 521 l 521 434 l 608 434 l 608 -174 l 521 -174 l 521 -260 z "},"ѓ":{"ha":694,"x_min":0,"x_max":0,"o":"m 0 0 l 0 87 l 87 87 l 87 434 l 0 434 l 0 521 l 608 521 l 608 260 l 521 260 l 521 434 l 260 434 l 260 87 l 347 87 l 347 0 z m 260 608 l 260 694 l 347 694 l 347 608 z m 347 694 l 347 781 l 434 781 l 434 694 z "},"є":{"ha":608,"x_min":0,"x_max":0,"o":"m 434 87 l 434 174 l 521 174 l 521 87 z m 87 0 l 87 87 l 0 87 l 0 434 l 87 434 l 87 521 l 521 521 l 521 347 l 347 347 l 347 434 l 174 434 l 174 347 l 347 347 l 347 260 l 174 260 l 174 87 l 434 87 l 434 0 z "},"ѕ":{"ha":608,"x_min":0,"x_max":0,"o":"m 0 0 l 0 174 l 174 174 l 174 87 l 347 87 l 347 174 l 174 174 l 174 260 l 0 260 l 0 434 l 87 434 l 87 521 l 521 521 l 521 347 l 347 347 l 347 434 l 174 434 l 174 347 l 347 347 l 347 260 l 521 260 l 521 87 l 434 87 l 434 0 z "},"і":{"ha":608,"x_min":0,"x_max":0,"o":"m 0 0 l 0 87 l 174 87 l 174 434 l 0 434 l 0 521 l 347 521 l 347 87 l 521 87 l 521 0 z m 174 608 l 174 781 l 347 781 l 347 608 z "},"ї":{"ha":608,"x_min":0,"x_max":0,"o":"m 0 0 l 0 87 l 174 87 l 174 434 l 0 434 l 0 521 l 347 521 l 347 87 l 521 87 l 521 0 z m 87 608 l 87 694 l 174 694 l 174 608 z m 347 608 l 347 694 l 434 694 l 434 608 z "},"ј":{"ha":608,"x_min":0,"x_max":0,"o":"m 0 -260 l 0 -174 l 347 -174 l 347 434 l 0 434 l 0 521 l 521 521 l 521 -174 l 434 -174 l 434 -260 z m 260 608 l 260 781 l 434 781 l 434 608 z "},"љ":{"ha":781,"x_min":0,"x_max":0,"o":"m 608 87 l 608 260 l 694 260 l 694 87 z m 0 0 l 0 87 l 87 87 l 87 434 l 0 434 l 0 521 l 608 521 l 608 434 l 521 434 l 521 347 l 608 347 l 608 260 l 521 260 l 521 87 l 608 87 l 608 0 l 347 0 l 347 434 l 260 434 l 260 87 l 174 87 l 174 0 z "},"њ":{"ha":868,"x_min":0,"x_max":0,"o":"m 608 87 l 608 260 l 521 260 l 521 87 z m 0 0 l 0 87 l 87 87 l 87 434 l 0 434 l 0 521 l 260 521 l 260 347 l 347 347 l 347 521 l 608 521 l 608 434 l 521 434 l 521 347 l 694 347 l 694 260 l 781 260 l 781 87 l 694 87 l 694 0 l 347 0 l 347 260 l 260 260 l 260 0 z "},"ћ":{"ha":781,"x_min":0,"x_max":0,"o":"m 0 0 l 0 87 l 87 87 l 87 521 l 0 521 l 0 608 l 87 608 l 87 781 l 260 781 l 260 608 l 434 608 l 434 521 l 260 521 l 260 434 l 521 434 l 521 347 l 608 347 l 608 87 l 694 87 l 694 0 l 434 0 l 434 347 l 260 347 l 260 0 z "},"ќ":{"ha":694,"x_min":0,"x_max":0,"o":"m 0 0 l 0 87 l 87 87 l 87 434 l 0 434 l 0 521 l 347 521 l 347 434 l 260 434 l 260 347 l 347 347 l 347 434 l 434 434 l 434 260 l 521 260 l 521 87 l 608 87 l 608 0 l 434 0 l 434 87 l 347 87 l 347 260 l 260 260 l 260 87 l 347 87 l 347 0 z m 521 347 l 521 434 l 434 434 l 434 521 l 608 521 l 608 347 z m 260 608 l 260 694 l 347 694 l 347 608 z m 347 694 l 347 781 l 434 781 l 434 694 z "},"ѝ":{"ha":781,"x_min":0,"x_max":0,"o":"m 0 0 l 0 87 l 87 87 l 87 434 l 0 434 l 0 521 l 347 521 l 347 434 l 260 434 l 260 260 l 347 260 l 347 87 l 260 87 l 260 0 z m 347 0 l 347 87 l 434 87 l 434 260 l 347 260 l 347 434 l 434 434 l 434 521 l 694 521 l 694 434 l 608 434 l 608 87 l 694 87 l 694 0 z m 347 608 l 347 694 l 434 694 l 434 608 z m 260 694 l 260 781 l 347 781 l 347 694 z "},"ў":{"ha":781,"x_min":0,"x_max":0,"o":"m 87 -174 l 87 0 l 174 0 l 174 -87 l 260 -87 l 260 87 l 174 87 l 174 260 l 87 260 l 87 434 l 0 434 l 0 521 l 347 521 l 347 434 l 260 434 l 260 260 l 434 260 l 434 521 l 694 521 l 694 434 l 608 434 l 608 260 l 521 260 l 521 87 l 434 87 l 434 -87 l 347 -87 l 347 -174 z m 260 608 l 260 694 l 434 694 l 434 608 z m 174 694 l 174 781 l 260 781 l 260 694 z m 434 694 l 434 781 l 521 781 l 521 694 z "},"џ":{"ha":781,"x_min":0,"x_max":0,"o":"m 260 -174 l 260 0 l 0 0 l 0 87 l 87 87 l 87 434 l 0 434 l 0 521 l 260 521 l 260 87 l 434 87 l 434 521 l 694 521 l 694 434 l 608 434 l 608 87 l 694 87 l 694 0 l 347 0 l 347 -174 z "},"Ѣ":{"ha":694,"x_min":0,"x_max":0,"o":"m 434 87 l 434 347 l 260 347 l 260 87 z m 0 0 l 0 87 l 87 87 l 87 608 l 0 608 l 0 694 l 87 694 l 87 781 l 260 781 l 260 694 l 434 694 l 434 608 l 260 608 l 260 434 l 521 434 l 521 347 l 608 347 l 608 87 l 521 87 l 521 0 z "},"ѣ":{"ha":694,"x_min":0,"x_max":0,"o":"m 434 87 l 434 260 l 260 260 l 260 87 z m 0 0 l 0 87 l 87 87 l 87 521 l 0 521 l 0 608 l 87 608 l 87 694 l 0 694 l 0 781 l 260 781 l 260 608 l 434 608 l 434 521 l 260 521 l 260 347 l 521 347 l 521 260 l 608 260 l 608 87 l 521 87 l 521 0 z "},"Ѥ":{"ha":955,"x_min":0,"x_max":0,"o":"m 781 87 l 781 174 l 868 174 l 868 87 z m 0 0 l 0 87 l 87 87 l 87 608 l 0 608 l 0 694 l 260 694 l 260 434 l 347 434 l 347 608 l 434 608 l 434 694 l 868 694 l 868 521 l 694 521 l 694 608 l 521 608 l 521 434 l 694 434 l 694 347 l 521 347 l 521 87 l 781 87 l 781 0 l 434 0 l 434 87 l 347 87 l 347 347 l 260 347 l 260 0 z "},"ѥ":{"ha":955,"x_min":0,"x_max":0,"o":"m 781 87 l 781 174 l 868 174 l 868 87 z m 0 0 l 0 87 l 87 87 l 87 434 l 0 434 l 0 521 l 260 521 l 260 347 l 347 347 l 347 434 l 434 434 l 434 521 l 868 521 l 868 347 l 694 347 l 694 434 l 521 434 l 521 347 l 694 347 l 694 260 l 521 260 l 521 87 l 781 87 l 781 0 l 434 0 l 434 87 l 347 87 l 347 260 l 260 260 l 260 0 z "},"Ґ":{"ha":608,"x_min":0,"x_max":0,"o":"m 0 0 l 0 87 l 87 87 l 87 608 l 0 608 l 0 694 l 434 694 l 434 868 l 521 868 l 521 608 l 260 608 l 260 87 l 347 87 l 347 0 z "},"ґ":{"ha":608,"x_min":0,"x_max":0,"o":"m 0 0 l 0 87 l 87 87 l 87 434 l 0 434 l 0 521 l 434 521 l 434 694 l 521 694 l 521 434 l 260 434 l 260 87 l 347 87 l 347 0 z "},"Ғ":{"ha":694,"x_min":0,"x_max":0,"o":"m 0 0 l 0 87 l 87 87 l 87 260 l 0 260 l 0 347 l 87 347 l 87 608 l 0 608 l 0 694 l 608 694 l 608 434 l 434 434 l 434 608 l 260 608 l 260 347 l 347 347 l 347 260 l 260 260 l 260 87 l 347 87 l 347 0 z "},"ғ":{"ha":781,"x_min":0,"x_max":0,"o":"m 0 0 l 0 87 l 174 87 l 174 174 l 87 174 l 87 260 l 174 260 l 174 434 l 0 434 l 0 521 l 694 521 l 694 174 l 521 174 l 521 434 l 347 434 l 347 260 l 434 260 l 434 174 l 347 174 l 347 87 l 521 87 l 521 0 z "},"Ҕ":{"ha":694,"x_min":0,"x_max":0,"o":"m 347 -174 l 347 0 l 434 0 l 434 347 l 260 347 l 260 0 l 0 0 l 0 87 l 87 87 l 87 608 l 0 608 l 0 694 l 434 694 l 434 608 l 260 608 l 260 434 l 521 434 l 521 347 l 608 347 l 608 -87 l 521 -87 l 521 -174 z "},"ҕ":{"ha":694,"x_min":0,"x_max":0,"o":"m 347 -174 l 347 -87 l 434 -87 l 434 260 l 260 260 l 260 0 l 0 0 l 0 87 l 87 87 l 87 434 l 0 434 l 0 521 l 434 521 l 434 434 l 260 434 l 260 347 l 521 347 l 521 260 l 608 260 l 608 -87 l 521 -87 l 521 -174 z "},"Җ":{"ha":868,"x_min":0,"x_max":0,"o":"m 0 0 l 0 87 l 87 87 l 87 260 l 174 260 l 174 0 z m 608 -174 l 608 0 l 521 0 l 521 260 l 608 260 l 608 87 l 781 87 l 781 -174 z m 87 521 l 87 608 l 0 608 l 0 694 l 174 694 l 174 521 z m 260 0 l 260 260 l 174 260 l 174 347 l 260 347 l 260 434 l 174 434 l 174 521 l 260 521 l 260 694 l 434 694 l 434 521 l 521 521 l 521 434 l 434 434 l 434 347 l 521 347 l 521 260 l 434 260 l 434 0 z m 521 521 l 521 694 l 694 694 l 694 608 l 608 608 l 608 521 z "},"җ":{"ha":868,"x_min":0,"x_max":0,"o":"m 0 0 l 0 87 l 87 87 l 87 260 l 174 260 l 174 0 z m 608 -174 l 608 0 l 521 0 l 521 260 l 608 260 l 608 87 l 781 87 l 781 -174 z m 87 347 l 87 434 l 0 434 l 0 521 l 174 521 l 174 347 z m 260 0 l 260 260 l 174 260 l 174 347 l 260 347 l 260 521 l 434 521 l 434 347 l 521 347 l 521 260 l 434 260 l 434 0 z m 521 347 l 521 521 l 694 521 l 694 434 l 608 434 l 608 347 z "},"Ҙ":{"ha":694,"x_min":0,"x_max":0,"o":"m 174 -347 l 174 -260 l 347 -260 l 347 -174 l 260 -174 l 260 0 l 87 0 l 87 87 l 0 87 l 0 174 l 174 174 l 174 87 l 434 87 l 434 347 l 260 347 l 260 434 l 434 434 l 434 608 l 174 608 l 174 434 l 87 434 l 87 781 l 174 781 l 174 694 l 521 694 l 521 608 l 608 608 l 608 434 l 521 434 l 521 347 l 608 347 l 608 87 l 521 87 l 521 0 l 347 0 l 347 -87 l 434 -87 l 434 -347 z "},"ҙ":{"ha":694,"x_min":0,"x_max":0,"o":"m 174 -347 l 174 -260 l 347 -260 l 347 -174 l 260 -174 l 260 0 l 87 0 l 87 87 l 0 87 l 0 174 l 174 174 l 174 87 l 434 87 l 434 260 l 347 260 l 347 347 l 434 347 l 434 434 l 260 434 l 260 260 l 87 260 l 87 608 l 260 608 l 260 521 l 521 521 l 521 434 l 608 434 l 608 347 l 521 347 l 521 260 l 608 260 l 608 87 l 521 87 l 521 0 l 347 0 l 347 -87 l 434 -87 l 434 -347 z "},"Қ":{"ha":868,"x_min":0,"x_max":0,"o":"m 608 -174 l 608 0 l 521 0 l 521 87 l 434 87 l 434 260 l 347 260 l 347 347 l 260 347 l 260 87 l 347 87 l 347 0 l 0 0 l 0 87 l 87 87 l 87 608 l 0 608 l 0 694 l 260 694 l 260 521 l 347 521 l 347 608 l 434 608 l 434 694 l 608 694 l 608 521 l 434 521 l 434 347 l 521 347 l 521 260 l 608 260 l 608 87 l 781 87 l 781 -174 z "},"қ":{"ha":781,"x_min":0,"x_max":0,"o":"m 521 -174 l 521 0 l 434 0 l 434 87 l 347 87 l 347 260 l 260 260 l 260 87 l 347 87 l 347 0 l 0 0 l 0 87 l 87 87 l 87 434 l 0 434 l 0 521 l 347 521 l 347 434 l 260 434 l 260 347 l 347 347 l 347 434 l 434 434 l 434 260 l 521 260 l 521 87 l 694 87 l 694 -174 z m 521 347 l 521 434 l 434 434 l 434 521 l 608 521 l 608 347 z "},"Ҝ":{"ha":868,"x_min":0,"x_max":0,"o":"m 0 0 l 0 87 l 87 87 l 87 608 l 0 608 l 0 694 l 260 694 l 260 521 l 347 521 l 347 608 l 434 608 l 434 521 l 521 521 l 521 694 l 694 694 l 694 521 l 608 521 l 608 434 l 521 434 l 521 347 l 608 347 l 608 260 l 694 260 l 694 87 l 781 87 l 781 0 l 608 0 l 608 87 l 521 87 l 521 260 l 434 260 l 434 174 l 347 174 l 347 347 l 260 347 l 260 87 l 347 87 l 347 0 z "},"ҝ":{"ha":781,"x_min":0,"x_max":0,"o":"m 0 0 l 0 87 l 87 87 l 87 434 l 0 434 l 0 521 l 260 521 l 260 347 l 347 347 l 347 434 l 434 434 l 434 521 l 694 521 l 694 347 l 608 347 l 608 434 l 521 434 l 521 347 l 434 347 l 434 260 l 608 260 l 608 87 l 694 87 l 694 0 l 521 0 l 521 174 l 434 174 l 434 87 l 347 87 l 347 260 l 260 260 l 260 0 z "},"Ҟ":{"ha":868,"x_min":0,"x_max":0,"o":"m 0 0 l 0 87 l 87 87 l 87 521 l 0 521 l 0 608 l 87 608 l 87 694 l 260 694 l 260 608 l 347 608 l 347 521 l 260 521 l 260 434 l 434 434 l 434 608 l 521 608 l 521 694 l 694 694 l 694 521 l 521 521 l 521 347 l 608 347 l 608 260 l 694 260 l 694 87 l 781 87 l 781 0 l 608 0 l 608 87 l 521 87 l 521 260 l 260 260 l 260 87 l 347 87 l 347 0 z "},"ҟ":{"ha":694,"x_min":0,"x_max":0,"o":"m 521 347 l 521 434 l 434 434 l 434 521 l 608 521 l 608 347 z m 0 0 l 0 87 l 87 87 l 87 608 l 0 608 l 0 694 l 87 694 l 87 781 l 260 781 l 260 694 l 347 694 l 347 608 l 260 608 l 260 347 l 347 347 l 347 434 l 434 434 l 434 260 l 521 260 l 521 87 l 608 87 l 608 0 l 434 0 l 434 87 l 347 87 l 347 260 l 260 260 l 260 87 l 347 87 l 347 0 z "},"Ҡ":{"ha":955,"x_min":0,"x_max":0,"o":"m 174 0 l 174 87 l 260 87 l 260 608 l 87 608 l 87 521 l 0 521 l 0 694 l 434 694 l 434 521 l 521 521 l 521 608 l 608 608 l 608 694 l 781 694 l 781 521 l 608 521 l 608 347 l 694 347 l 694 260 l 781 260 l 781 87 l 868 87 l 868 0 l 694 0 l 694 87 l 608 87 l 608 260 l 521 260 l 521 347 l 434 347 l 434 87 l 521 87 l 521 0 z "},"ҡ":{"ha":868,"x_min":0,"x_max":0,"o":"m 174 0 l 174 87 l 260 87 l 260 434 l 87 434 l 87 347 l 0 347 l 0 521 l 521 521 l 521 434 l 434 434 l 434 347 l 521 347 l 521 434 l 608 434 l 608 260 l 694 260 l 694 87 l 781 87 l 781 0 l 608 0 l 608 87 l 521 87 l 521 260 l 434 260 l 434 87 l 521 87 l 521 0 z m 694 347 l 694 434 l 608 434 l 608 521 l 781 521 l 781 347 z "},"Ң":{"ha":868,"x_min":0,"x_max":0,"o":"m 608 -174 l 608 0 l 434 0 l 434 347 l 260 347 l 260 0 l 0 0 l 0 87 l 87 87 l 87 608 l 0 608 l 0 694 l 260 694 l 260 434 l 434 434 l 434 694 l 694 694 l 694 608 l 608 608 l 608 87 l 781 87 l 781 -174 z "},"ң":{"ha":868,"x_min":0,"x_max":0,"o":"m 608 -174 l 608 0 l 434 0 l 434 260 l 260 260 l 260 87 l 347 87 l 347 0 l 0 0 l 0 87 l 87 87 l 87 434 l 0 434 l 0 521 l 260 521 l 260 347 l 434 347 l 434 434 l 347 434 l 347 521 l 694 521 l 694 434 l 608 434 l 608 87 l 781 87 l 781 -174 z "},"Ҥ":{"ha":955,"x_min":0,"x_max":0,"o":"m 0 0 l 0 87 l 87 87 l 87 608 l 0 608 l 0 694 l 260 694 l 260 434 l 434 434 l 434 694 l 868 694 l 868 521 l 781 521 l 781 608 l 608 608 l 608 87 l 694 87 l 694 0 l 434 0 l 434 347 l 260 347 l 260 0 z "},"ҥ":{"ha":955,"x_min":0,"x_max":0,"o":"m 0 0 l 0 87 l 87 87 l 87 434 l 0 434 l 0 521 l 260 521 l 260 347 l 434 347 l 434 434 l 347 434 l 347 521 l 868 521 l 868 347 l 781 347 l 781 434 l 608 434 l 608 87 l 694 87 l 694 0 l 434 0 l 434 260 l 260 260 l 260 87 l 347 87 l 347 0 z "},"Ҧ":{"ha":1042,"x_min":0,"x_max":0,"o":"m 694 -174 l 694 0 l 781 0 l 781 347 l 608 347 l 608 0 l 434 0 l 434 608 l 260 608 l 260 87 l 347 87 l 347 0 l 0 0 l 0 87 l 87 87 l 87 608 l 0 608 l 0 694 l 781 694 l 781 608 l 608 608 l 608 434 l 868 434 l 868 347 l 955 347 l 955 -87 l 868 -87 l 868 -174 z "},"ҧ":{"ha":1042,"x_min":0,"x_max":0,"o":"m 694 -174 l 694 -87 l 781 -87 l 781 260 l 608 260 l 608 0 l 434 0 l 434 434 l 260 434 l 260 87 l 347 87 l 347 0 l 0 0 l 0 87 l 87 87 l 87 434 l 0 434 l 0 521 l 781 521 l 781 434 l 608 434 l 608 347 l 868 347 l 868 260 l 955 260 l 955 -87 l 868 -87 l 868 -174 z "},"Ҫ":{"ha":608,"x_min":0,"x_max":0,"o":"m 434 87 l 434 174 l 521 174 l 521 87 z m 174 -347 l 174 -260 l 347 -260 l 347 -174 l 260 -174 l 260 0 l 174 0 l 174 87 l 87 87 l 87 174 l 0 174 l 0 521 l 87 521 l 87 608 l 174 608 l 174 694 l 521 694 l 521 521 l 434 521 l 434 608 l 260 608 l 260 521 l 174 521 l 174 174 l 260 174 l 260 87 l 434 87 l 434 0 l 347 0 l 347 -87 l 434 -87 l 434 -347 z "},"ҫ":{"ha":608,"x_min":0,"x_max":0,"o":"m 434 87 l 434 174 l 521 174 l 521 87 z m 174 -347 l 174 -260 l 347 -260 l 347 -174 l 260 -174 l 260 0 l 87 0 l 87 87 l 0 87 l 0 434 l 87 434 l 87 521 l 521 521 l 521 260 l 434 260 l 434 434 l 174 434 l 174 87 l 434 87 l 434 0 l 347 0 l 347 -87 l 434 -87 l 434 -347 z "},"Ҭ":{"ha":608,"x_min":0,"x_max":0,"o":"m 347 -174 l 347 0 l 87 0 l 87 87 l 174 87 l 174 608 l 87 608 l 87 434 l 0 434 l 0 694 l 521 694 l 521 434 l 434 434 l 434 608 l 347 608 l 347 87 l 521 87 l 521 -174 z "},"ҭ":{"ha":608,"x_min":0,"x_max":0,"o":"m 347 -174 l 347 0 l 87 0 l 87 87 l 174 87 l 174 434 l 87 434 l 87 260 l 0 260 l 0 521 l 521 521 l 521 260 l 434 260 l 434 434 l 347 434 l 347 87 l 521 87 l 521 -174 z "},"Ү":{"ha":781,"x_min":0,"x_max":0,"o":"m 87 0 l 87 87 l 260 87 l 260 347 l 174 347 l 174 521 l 87 521 l 87 608 l 0 608 l 0 694 l 260 694 l 260 434 l 434 434 l 434 608 l 347 608 l 347 694 l 694 694 l 694 608 l 608 608 l 608 521 l 521 521 l 521 347 l 434 347 l 434 87 l 608 87 l 608 0 z "},"ү":{"ha":955,"x_min":0,"x_max":0,"o":"m 174 -260 l 174 -174 l 347 -174 l 347 87 l 260 87 l 260 174 l 174 174 l 174 347 l 87 347 l 87 434 l 0 434 l 0 521 l 347 521 l 347 434 l 260 434 l 260 347 l 347 347 l 347 260 l 521 260 l 521 347 l 608 347 l 608 434 l 521 434 l 521 521 l 868 521 l 868 434 l 781 434 l 781 347 l 694 347 l 694 174 l 608 174 l 608 87 l 521 87 l 521 -174 l 694 -174 l 694 -260 z "},"Ұ":{"ha":781,"x_min":0,"x_max":0,"o":"m 87 0 l 87 87 l 260 87 l 260 174 l 87 174 l 87 260 l 260 260 l 260 347 l 174 347 l 174 521 l 87 521 l 87 608 l 0 608 l 0 694 l 347 694 l 347 608 l 260 608 l 260 434 l 434 434 l 434 694 l 694 694 l 694 608 l 608 608 l 608 521 l 521 521 l 521 347 l 434 347 l 434 260 l 608 260 l 608 174 l 434 174 l 434 87 l 608 87 l 608 0 z "},"ұ":{"ha":955,"x_min":0,"x_max":0,"o":"m 174 -260 l 174 -174 l 347 -174 l 347 -87 l 174 -87 l 174 0 l 347 0 l 347 87 l 260 87 l 260 174 l 174 174 l 174 347 l 87 347 l 87 434 l 0 434 l 0 521 l 347 521 l 347 434 l 260 434 l 260 347 l 347 347 l 347 260 l 521 260 l 521 347 l 608 347 l 608 434 l 521 434 l 521 521 l 868 521 l 868 434 l 781 434 l 781 347 l 694 347 l 694 174 l 608 174 l 608 87 l 521 87 l 521 0 l 694 0 l 694 -87 l 521 -87 l 521 -174 l 694 -174 l 694 -260 z "},"Ҳ":{"ha":868,"x_min":0,"x_max":0,"o":"m 608 -174 l 608 0 l 434 0 l 434 174 l 260 174 l 260 87 l 347 87 l 347 0 l 0 0 l 0 87 l 87 87 l 87 174 l 174 174 l 174 260 l 260 260 l 260 434 l 174 434 l 174 521 l 87 521 l 87 608 l 0 608 l 0 694 l 260 694 l 260 521 l 434 521 l 434 608 l 347 608 l 347 694 l 694 694 l 694 608 l 608 608 l 608 521 l 521 521 l 521 434 l 434 434 l 434 260 l 521 260 l 521 174 l 608 174 l 608 87 l 781 87 l 781 -174 z "},"ҳ":{"ha":868,"x_min":0,"x_max":0,"o":"m 608 -174 l 608 0 l 434 0 l 434 174 l 260 174 l 260 0 l 0 0 l 0 87 l 87 87 l 87 174 l 174 174 l 174 347 l 87 347 l 87 434 l 0 434 l 0 521 l 260 521 l 260 347 l 434 347 l 434 521 l 694 521 l 694 434 l 608 434 l 608 347 l 521 347 l 521 174 l 608 174 l 608 87 l 781 87 l 781 -174 z "},"Ҵ":{"ha":955,"x_min":0,"x_max":0,"o":"m 781 -174 l 781 0 l 87 0 l 87 87 l 174 87 l 174 608 l 87 608 l 87 434 l 0 434 l 0 694 l 521 694 l 521 434 l 434 434 l 434 608 l 347 608 l 347 87 l 608 87 l 608 694 l 868 694 l 868 608 l 781 608 l 781 87 l 868 87 l 868 -174 z "},"ҵ":{"ha":955,"x_min":0,"x_max":0,"o":"m 781 -174 l 781 0 l 87 0 l 87 87 l 174 87 l 174 434 l 87 434 l 87 260 l 0 260 l 0 521 l 521 521 l 521 260 l 434 260 l 434 434 l 347 434 l 347 87 l 608 87 l 608 521 l 868 521 l 868 434 l 781 434 l 781 87 l 868 87 l 868 -174 z "},"Ҷ":{"ha":868,"x_min":0,"x_max":0,"o":"m 608 -174 l 608 0 l 347 0 l 347 87 l 434 87 l 434 174 l 174 174 l 174 260 l 87 260 l 87 608 l 0 608 l 0 694 l 347 694 l 347 608 l 260 608 l 260 260 l 434 260 l 434 694 l 694 694 l 694 608 l 608 608 l 608 87 l 781 87 l 781 -174 z "},"ҷ":{"ha":781,"x_min":0,"x_max":0,"o":"m 521 -174 l 521 0 l 260 0 l 260 87 l 347 87 l 347 174 l 174 174 l 174 260 l 87 260 l 87 434 l 0 434 l 0 521 l 260 521 l 260 260 l 347 260 l 347 521 l 608 521 l 608 434 l 521 434 l 521 87 l 694 87 l 694 -174 z "},"Ҹ":{"ha":868,"x_min":0,"x_max":0,"o":"m 434 0 l 434 87 l 521 87 l 521 174 l 434 174 l 434 87 l 347 87 l 347 174 l 174 174 l 174 260 l 87 260 l 87 608 l 0 608 l 0 694 l 347 694 l 347 608 l 260 608 l 260 260 l 347 260 l 347 434 l 434 434 l 434 260 l 521 260 l 521 694 l 781 694 l 781 608 l 694 608 l 694 87 l 781 87 l 781 0 z "},"ҹ":{"ha":868,"x_min":0,"x_max":0,"o":"m 434 0 l 434 87 l 521 87 l 521 174 l 434 174 l 434 87 l 347 87 l 347 174 l 174 174 l 174 260 l 87 260 l 87 434 l 0 434 l 0 521 l 260 521 l 260 260 l 347 260 l 347 434 l 434 434 l 434 260 l 521 260 l 521 521 l 781 521 l 781 434 l 694 434 l 694 87 l 781 87 l 781 0 z "},"Һ":{"ha":781,"x_min":0,"x_max":0,"o":"m 0 0 l 0 87 l 87 87 l 87 694 l 0 694 l 0 781 l 347 781 l 347 694 l 260 694 l 260 521 l 521 521 l 521 434 l 608 434 l 608 87 l 694 87 l 694 0 l 347 0 l 347 87 l 434 87 l 434 434 l 260 434 l 260 0 z "},"һ":{"ha":781,"x_min":0,"x_max":0,"o":"m 0 0 l 0 87 l 87 87 l 87 694 l 0 694 l 0 781 l 347 781 l 347 694 l 260 694 l 260 434 l 521 434 l 521 347 l 608 347 l 608 87 l 694 87 l 694 0 l 347 0 l 347 87 l 434 87 l 434 347 l 260 347 l 260 0 z "},"Ḁ":{"ha":868,"x_min":0,"x_max":0,"o":"m 434 -260 l 434 -174 l 347 -174 l 347 -260 z m 260 -347 l 260 -87 l 521 -87 l 521 -347 z m 434 260 l 434 521 l 347 521 l 347 260 z m 0 0 l 0 87 l 87 87 l 87 260 l 174 260 l 174 521 l 260 521 l 260 608 l 87 608 l 87 694 l 521 694 l 521 521 l 608 521 l 608 260 l 694 260 l 694 87 l 781 87 l 781 0 l 434 0 l 434 87 l 521 87 l 521 174 l 260 174 l 260 87 l 347 87 l 347 0 z "},"ḁ":{"ha":694,"x_min":0,"x_max":0,"o":"m 347 -260 l 347 -174 l 260 -174 l 260 -260 z m 174 -347 l 174 -87 l 434 -87 l 434 -347 z m 347 87 l 347 260 l 174 260 l 174 87 z m 87 0 l 87 87 l 0 87 l 0 260 l 87 260 l 87 347 l 347 347 l 347 434 l 87 434 l 87 521 l 434 521 l 434 434 l 521 434 l 521 87 l 608 87 l 608 0 z "},"ẞ":{"ha":868,"x_min":0,"x_max":0,"o":"m 0 0 l 0 87 l 87 87 l 87 521 l 174 521 l 174 608 l 260 608 l 260 434 l 174 434 l 174 87 l 260 87 l 260 0 z m 347 0 l 347 174 l 434 174 l 434 87 l 608 87 l 608 260 l 521 260 l 521 347 l 434 347 l 434 434 l 347 434 l 347 521 l 434 521 l 434 608 l 260 608 l 260 694 l 521 694 l 521 608 l 608 608 l 608 521 l 521 521 l 521 434 l 608 434 l 608 347 l 694 347 l 694 260 l 781 260 l 781 87 l 694 87 l 694 0 z "},"Ạ":{"ha":868,"x_min":0,"x_max":0,"o":"m 347 -260 l 347 -87 l 521 -87 l 521 -260 z m 434 260 l 434 521 l 347 521 l 347 260 z m 0 0 l 0 87 l 87 87 l 87 260 l 174 260 l 174 521 l 260 521 l 260 608 l 87 608 l 87 694 l 521 694 l 521 521 l 608 521 l 608 260 l 694 260 l 694 87 l 781 87 l 781 0 l 434 0 l 434 87 l 521 87 l 521 174 l 260 174 l 260 87 l 347 87 l 347 0 z "},"ạ":{"ha":694,"x_min":0,"x_max":0,"o":"m 174 -260 l 174 -87 l 347 -87 l 347 -260 z m 347 87 l 347 260 l 174 260 l 174 87 z m 87 0 l 87 87 l 0 87 l 0 260 l 87 260 l 87 347 l 347 347 l 347 434 l 87 434 l 87 521 l 434 521 l 434 434 l 521 434 l 521 87 l 608 87 l 608 0 z "},"Ả":{"ha":868,"x_min":0,"x_max":0,"o":"m 434 260 l 434 521 l 347 521 l 347 260 z m 0 0 l 0 87 l 87 87 l 87 260 l 174 260 l 174 521 l 260 521 l 260 608 l 87 608 l 87 694 l 521 694 l 521 521 l 608 521 l 608 260 l 694 260 l 694 87 l 781 87 l 781 0 l 434 0 l 434 87 l 521 87 l 521 174 l 260 174 l 260 87 l 347 87 l 347 0 z m 347 781 l 347 868 l 434 868 l 434 781 z m 434 868 l 434 955 l 521 955 l 521 868 z m 260 955 l 260 1042 l 434 1042 l 434 955 z "},"ả":{"ha":694,"x_min":0,"x_max":0,"o":"m 347 87 l 347 260 l 174 260 l 174 87 z m 87 0 l 87 87 l 0 87 l 0 260 l 87 260 l 87 347 l 347 347 l 347 434 l 87 434 l 87 521 l 434 521 l 434 434 l 521 434 l 521 87 l 608 87 l 608 0 z m 260 608 l 260 694 l 347 694 l 347 608 z m 347 694 l 347 781 l 434 781 l 434 694 z m 174 781 l 174 868 l 347 868 l 347 781 z "},"Ấ":{"ha":868,"x_min":0,"x_max":0,"o":"m 434 260 l 434 521 l 347 521 l 347 260 z m 0 0 l 0 87 l 87 87 l 87 260 l 174 260 l 174 521 l 260 521 l 260 608 l 87 608 l 87 694 l 521 694 l 521 521 l 608 521 l 608 260 l 694 260 l 694 87 l 781 87 l 781 0 l 434 0 l 434 87 l 521 87 l 521 174 l 260 174 l 260 87 l 347 87 l 347 0 z m 260 781 l 260 868 l 347 868 l 347 781 z m 434 781 l 434 868 l 521 868 l 521 781 z m 347 868 l 347 955 l 434 955 l 434 868 z m 347 1042 l 347 1128 l 434 1128 l 434 1042 z m 434 1128 l 434 1215 l 521 1215 l 521 1128 z "},"ấ":{"ha":694,"x_min":0,"x_max":0,"o":"m 347 87 l 347 260 l 174 260 l 174 87 z m 87 0 l 87 87 l 0 87 l 0 260 l 87 260 l 87 347 l 347 347 l 347 434 l 87 434 l 87 521 l 434 521 l 434 434 l 521 434 l 521 87 l 608 87 l 608 0 z m 174 608 l 174 694 l 260 694 l 260 608 z m 347 608 l 347 694 l 434 694 l 434 608 z m 260 694 l 260 781 l 347 781 l 347 694 z m 260 868 l 260 955 l 347 955 l 347 868 z m 347 955 l 347 1042 l 434 1042 l 434 955 z "},"Ầ":{"ha":868,"x_min":0,"x_max":0,"o":"m 434 260 l 434 521 l 347 521 l 347 260 z m 0 0 l 0 87 l 87 87 l 87 260 l 174 260 l 174 521 l 260 521 l 260 608 l 87 608 l 87 694 l 521 694 l 521 521 l 608 521 l 608 260 l 694 260 l 694 87 l 781 87 l 781 0 l 434 0 l 434 87 l 521 87 l 521 174 l 260 174 l 260 87 l 347 87 l 347 0 z m 260 781 l 260 868 l 347 868 l 347 781 z m 434 781 l 434 868 l 521 868 l 521 781 z m 347 868 l 347 955 l 434 955 l 434 868 z m 347 1042 l 347 1128 l 434 1128 l 434 1042 z m 260 1128 l 260 1215 l 347 1215 l 347 1128 z "},"ầ":{"ha":694,"x_min":0,"x_max":0,"o":"m 347 87 l 347 260 l 174 260 l 174 87 z m 87 0 l 87 87 l 0 87 l 0 260 l 87 260 l 87 347 l 347 347 l 347 434 l 87 434 l 87 521 l 434 521 l 434 434 l 521 434 l 521 87 l 608 87 l 608 0 z m 174 608 l 174 694 l 260 694 l 260 608 z m 347 608 l 347 694 l 434 694 l 434 608 z m 260 694 l 260 781 l 347 781 l 347 694 z m 260 868 l 260 955 l 347 955 l 347 868 z m 174 955 l 174 1042 l 260 1042 l 260 955 z "},"Ẩ":{"ha":868,"x_min":0,"x_max":0,"o":"m 434 260 l 434 521 l 347 521 l 347 260 z m 0 0 l 0 87 l 87 87 l 87 260 l 174 260 l 174 521 l 260 521 l 260 608 l 87 608 l 87 694 l 521 694 l 521 521 l 608 521 l 608 260 l 694 260 l 694 87 l 781 87 l 781 0 l 434 0 l 434 87 l 521 87 l 521 174 l 260 174 l 260 87 l 347 87 l 347 0 z m 260 781 l 260 868 l 347 868 l 347 781 z m 434 781 l 434 868 l 521 868 l 521 781 z m 347 868 l 347 955 l 434 955 l 434 868 z m 347 1042 l 347 1128 l 434 1128 l 434 1042 z m 434 1128 l 434 1215 l 521 1215 l 521 1128 z m 260 1215 l 260 1302 l 434 1302 l 434 1215 z "},"ẩ":{"ha":694,"x_min":0,"x_max":0,"o":"m 347 87 l 347 260 l 174 260 l 174 87 z m 87 0 l 87 87 l 0 87 l 0 260 l 87 260 l 87 347 l 347 347 l 347 434 l 87 434 l 87 521 l 434 521 l 434 434 l 521 434 l 521 87 l 608 87 l 608 0 z m 174 608 l 174 694 l 260 694 l 260 608 z m 347 608 l 347 694 l 434 694 l 434 608 z m 260 694 l 260 781 l 347 781 l 347 694 z m 260 868 l 260 955 l 347 955 l 347 868 z m 347 955 l 347 1042 l 434 1042 l 434 955 z m 174 1042 l 174 1128 l 347 1128 l 347 1042 z "},"Ẫ":{"ha":868,"x_min":0,"x_max":0,"o":"m 434 260 l 434 521 l 347 521 l 347 260 z m 0 0 l 0 87 l 87 87 l 87 260 l 174 260 l 174 521 l 260 521 l 260 608 l 87 608 l 87 694 l 521 694 l 521 521 l 608 521 l 608 260 l 694 260 l 694 87 l 781 87 l 781 0 l 434 0 l 434 87 l 521 87 l 521 174 l 260 174 l 260 87 l 347 87 l 347 0 z m 260 781 l 260 868 l 347 868 l 347 781 z m 434 781 l 434 868 l 521 868 l 521 781 z m 347 868 l 347 955 l 434 955 l 434 868 z m 260 1042 l 260 1215 l 434 1215 l 434 1128 l 347 1128 l 347 1042 z m 434 1042 l 434 1128 l 521 1128 l 521 1215 l 608 1215 l 608 1042 z "},"ẫ":{"ha":694,"x_min":0,"x_max":0,"o":"m 347 87 l 347 260 l 174 260 l 174 87 z m 87 0 l 87 87 l 0 87 l 0 260 l 87 260 l 87 347 l 347 347 l 347 434 l 87 434 l 87 521 l 434 521 l 434 434 l 521 434 l 521 87 l 608 87 l 608 0 z m 174 608 l 174 694 l 260 694 l 260 608 z m 347 608 l 347 694 l 434 694 l 434 608 z m 260 694 l 260 781 l 347 781 l 347 694 z m 174 868 l 174 1042 l 347 1042 l 347 955 l 260 955 l 260 868 z m 347 868 l 347 955 l 434 955 l 434 1042 l 521 1042 l 521 868 z "},"Ậ":{"ha":868,"x_min":0,"x_max":0,"o":"m 347 -260 l 347 -87 l 521 -87 l 521 -260 z m 434 260 l 434 521 l 347 521 l 347 260 z m 0 0 l 0 87 l 87 87 l 87 260 l 174 260 l 174 521 l 260 521 l 260 608 l 87 608 l 87 694 l 521 694 l 521 521 l 608 521 l 608 260 l 694 260 l 694 87 l 781 87 l 781 0 l 434 0 l 434 87 l 521 87 l 521 174 l 260 174 l 260 87 l 347 87 l 347 0 z m 260 781 l 260 868 l 347 868 l 347 781 z m 434 781 l 434 868 l 521 868 l 521 781 z m 347 868 l 347 955 l 434 955 l 434 868 z "},"ậ":{"ha":694,"x_min":0,"x_max":0,"o":"m 174 -260 l 174 -87 l 347 -87 l 347 -260 z m 347 87 l 347 260 l 174 260 l 174 87 z m 87 0 l 87 87 l 0 87 l 0 260 l 87 260 l 87 347 l 347 347 l 347 434 l 87 434 l 87 521 l 434 521 l 434 434 l 521 434 l 521 87 l 608 87 l 608 0 z m 174 608 l 174 694 l 260 694 l 260 608 z m 347 608 l 347 694 l 434 694 l 434 608 z m 260 694 l 260 781 l 347 781 l 347 694 z "},"Ắ":{"ha":868,"x_min":0,"x_max":0,"o":"m 434 260 l 434 521 l 347 521 l 347 260 z m 0 0 l 0 87 l 87 87 l 87 260 l 174 260 l 174 521 l 260 521 l 260 608 l 87 608 l 87 694 l 521 694 l 521 521 l 608 521 l 608 260 l 694 260 l 694 87 l 781 87 l 781 0 l 434 0 l 434 87 l 521 87 l 521 174 l 260 174 l 260 87 l 347 87 l 347 0 z m 260 781 l 260 868 l 434 868 l 434 781 z m 174 868 l 174 955 l 260 955 l 260 868 z m 434 868 l 434 955 l 521 955 l 521 868 z m 260 1042 l 260 1128 l 347 1128 l 347 1042 z m 347 1128 l 347 1215 l 434 1215 l 434 1128 z "},"ắ":{"ha":694,"x_min":0,"x_max":0,"o":"m 347 87 l 347 260 l 174 260 l 174 87 z m 87 0 l 87 87 l 0 87 l 0 260 l 87 260 l 87 347 l 347 347 l 347 434 l 87 434 l 87 521 l 434 521 l 434 434 l 521 434 l 521 87 l 608 87 l 608 0 z m 174 608 l 174 694 l 347 694 l 347 608 z m 87 694 l 87 781 l 174 781 l 174 694 z m 347 694 l 347 781 l 434 781 l 434 694 z m 174 868 l 174 955 l 260 955 l 260 868 z m 260 955 l 260 1042 l 347 1042 l 347 955 z "},"Ằ":{"ha":868,"x_min":0,"x_max":0,"o":"m 434 260 l 434 521 l 347 521 l 347 260 z m 0 0 l 0 87 l 87 87 l 87 260 l 174 260 l 174 521 l 260 521 l 260 608 l 87 608 l 87 694 l 521 694 l 521 521 l 608 521 l 608 260 l 694 260 l 694 87 l 781 87 l 781 0 l 434 0 l 434 87 l 521 87 l 521 174 l 260 174 l 260 87 l 347 87 l 347 0 z m 260 781 l 260 868 l 434 868 l 434 781 z m 174 868 l 174 955 l 260 955 l 260 868 z m 434 868 l 434 955 l 521 955 l 521 868 z m 347 1042 l 347 1128 l 434 1128 l 434 1042 z m 260 1128 l 260 1215 l 347 1215 l 347 1128 z "},"ằ":{"ha":694,"x_min":0,"x_max":0,"o":"m 347 87 l 347 260 l 174 260 l 174 87 z m 87 0 l 87 87 l 0 87 l 0 260 l 87 260 l 87 347 l 347 347 l 347 434 l 87 434 l 87 521 l 434 521 l 434 434 l 521 434 l 521 87 l 608 87 l 608 0 z m 174 608 l 174 694 l 347 694 l 347 608 z m 87 694 l 87 781 l 174 781 l 174 694 z m 347 694 l 347 781 l 434 781 l 434 694 z m 260 868 l 260 955 l 347 955 l 347 868 z m 174 955 l 174 1042 l 260 1042 l 260 955 z "},"Ẳ":{"ha":868,"x_min":0,"x_max":0,"o":"m 434 260 l 434 521 l 347 521 l 347 260 z m 0 0 l 0 87 l 87 87 l 87 260 l 174 260 l 174 521 l 260 521 l 260 608 l 87 608 l 87 694 l 521 694 l 521 521 l 608 521 l 608 260 l 694 260 l 694 87 l 781 87 l 781 0 l 434 0 l 434 87 l 521 87 l 521 174 l 260 174 l 260 87 l 347 87 l 347 0 z m 260 781 l 260 868 l 434 868 l 434 781 z m 174 868 l 174 955 l 260 955 l 260 868 z m 434 868 l 434 955 l 521 955 l 521 868 z m 347 1042 l 347 1128 l 434 1128 l 434 1042 z m 434 1128 l 434 1215 l 521 1215 l 521 1128 z m 260 1215 l 260 1302 l 434 1302 l 434 1215 z "},"ẳ":{"ha":694,"x_min":0,"x_max":0,"o":"m 347 87 l 347 260 l 174 260 l 174 87 z m 87 0 l 87 87 l 0 87 l 0 260 l 87 260 l 87 347 l 347 347 l 347 434 l 87 434 l 87 521 l 434 521 l 434 434 l 521 434 l 521 87 l 608 87 l 608 0 z m 174 608 l 174 694 l 347 694 l 347 608 z m 87 694 l 87 781 l 174 781 l 174 694 z m 347 694 l 347 781 l 434 781 l 434 694 z m 260 868 l 260 955 l 347 955 l 347 868 z m 347 955 l 347 1042 l 434 1042 l 434 955 z m 174 1042 l 174 1128 l 347 1128 l 347 1042 z "},"Ẵ":{"ha":868,"x_min":0,"x_max":0,"o":"m 434 260 l 434 521 l 347 521 l 347 260 z m 0 0 l 0 87 l 87 87 l 87 260 l 174 260 l 174 521 l 260 521 l 260 608 l 87 608 l 87 694 l 521 694 l 521 521 l 608 521 l 608 260 l 694 260 l 694 87 l 781 87 l 781 0 l 434 0 l 434 87 l 521 87 l 521 174 l 260 174 l 260 87 l 347 87 l 347 0 z m 260 781 l 260 868 l 434 868 l 434 781 z m 174 868 l 174 955 l 260 955 l 260 868 z m 434 868 l 434 955 l 521 955 l 521 868 z m 174 1042 l 174 1215 l 260 1215 l 260 1128 l 347 1128 l 347 1042 z m 434 1042 l 434 1128 l 347 1128 l 347 1215 l 521 1215 l 521 1042 z "},"ẵ":{"ha":694,"x_min":0,"x_max":0,"o":"m 347 87 l 347 260 l 174 260 l 174 87 z m 87 0 l 87 87 l 0 87 l 0 260 l 87 260 l 87 347 l 347 347 l 347 434 l 87 434 l 87 521 l 434 521 l 434 434 l 521 434 l 521 87 l 608 87 l 608 0 z m 174 608 l 174 694 l 347 694 l 347 608 z m 87 694 l 87 781 l 174 781 l 174 694 z m 347 694 l 347 781 l 434 781 l 434 694 z m 87 868 l 87 1042 l 174 1042 l 174 955 l 260 955 l 260 868 z m 347 868 l 347 955 l 260 955 l 260 1042 l 434 1042 l 434 868 z "},"Ặ":{"ha":868,"x_min":0,"x_max":0,"o":"m 260 -260 l 260 -87 l 434 -87 l 434 -260 z m 434 260 l 434 521 l 347 521 l 347 260 z m 0 0 l 0 87 l 87 87 l 87 260 l 174 260 l 174 521 l 260 521 l 260 608 l 87 608 l 87 694 l 521 694 l 521 521 l 608 521 l 608 260 l 694 260 l 694 87 l 781 87 l 781 0 l 434 0 l 434 87 l 521 87 l 521 174 l 260 174 l 260 87 l 347 87 l 347 0 z m 260 781 l 260 868 l 434 868 l 434 781 z m 174 868 l 174 955 l 260 955 l 260 868 z m 434 868 l 434 955 l 521 955 l 521 868 z "},"ặ":{"ha":694,"x_min":0,"x_max":0,"o":"m 174 -260 l 174 -87 l 347 -87 l 347 -260 z m 347 87 l 347 260 l 174 260 l 174 87 z m 87 0 l 87 87 l 0 87 l 0 260 l 87 260 l 87 347 l 347 347 l 347 434 l 87 434 l 87 521 l 434 521 l 434 434 l 521 434 l 521 87 l 608 87 l 608 0 z m 174 608 l 174 694 l 347 694 l 347 608 z m 87 694 l 87 781 l 174 781 l 174 694 z m 347 694 l 347 781 l 434 781 l 434 694 z "},"Ẹ":{"ha":694,"x_min":0,"x_max":0,"o":"m 260 -260 l 260 -87 l 434 -87 l 434 -260 z m 0 0 l 0 87 l 87 87 l 87 608 l 0 608 l 0 694 l 608 694 l 608 434 l 521 434 l 521 608 l 260 608 l 260 434 l 347 434 l 347 521 l 434 521 l 434 260 l 347 260 l 347 347 l 260 347 l 260 87 l 521 87 l 521 260 l 608 260 l 608 0 z "},"ẹ":{"ha":608,"x_min":0,"x_max":0,"o":"m 174 -260 l 174 -87 l 347 -87 l 347 -260 z m 434 87 l 434 174 l 521 174 l 521 87 z m 347 347 l 347 434 l 174 434 l 174 347 z m 87 0 l 87 87 l 0 87 l 0 434 l 87 434 l 87 521 l 434 521 l 434 434 l 521 434 l 521 260 l 174 260 l 174 87 l 434 87 l 434 0 z "},"Ẻ":{"ha":694,"x_min":0,"x_max":0,"o":"m 0 0 l 0 87 l 87 87 l 87 608 l 0 608 l 0 694 l 608 694 l 608 434 l 521 434 l 521 608 l 260 608 l 260 434 l 347 434 l 347 521 l 434 521 l 434 260 l 347 260 l 347 347 l 260 347 l 260 87 l 521 87 l 521 260 l 608 260 l 608 0 z m 260 781 l 260 868 l 347 868 l 347 781 z m 347 868 l 347 955 l 434 955 l 434 868 z m 174 955 l 174 1042 l 347 1042 l 347 955 z "},"ẻ":{"ha":608,"x_min":0,"x_max":0,"o":"m 434 87 l 434 174 l 521 174 l 521 87 z m 347 347 l 347 434 l 174 434 l 174 347 z m 87 0 l 87 87 l 0 87 l 0 434 l 87 434 l 87 521 l 434 521 l 434 434 l 521 434 l 521 260 l 174 260 l 174 87 l 434 87 l 434 0 z m 260 608 l 260 694 l 347 694 l 347 608 z m 347 694 l 347 781 l 434 781 l 434 694 z m 174 781 l 174 868 l 347 868 l 347 781 z "},"Ẽ":{"ha":694,"x_min":0,"x_max":0,"o":"m 0 0 l 0 87 l 87 87 l 87 608 l 0 608 l 0 694 l 608 694 l 608 434 l 521 434 l 521 608 l 260 608 l 260 434 l 347 434 l 347 521 l 434 521 l 434 260 l 347 260 l 347 347 l 260 347 l 260 87 l 521 87 l 521 260 l 608 260 l 608 0 z m 174 781 l 174 955 l 347 955 l 347 868 l 260 868 l 260 781 z m 347 781 l 347 868 l 434 868 l 434 955 l 521 955 l 521 781 z "},"ẽ":{"ha":608,"x_min":0,"x_max":0,"o":"m 434 87 l 434 174 l 521 174 l 521 87 z m 347 347 l 347 434 l 174 434 l 174 347 z m 87 0 l 87 87 l 0 87 l 0 434 l 87 434 l 87 521 l 434 521 l 434 434 l 521 434 l 521 260 l 174 260 l 174 87 l 434 87 l 434 0 z m 87 608 l 87 781 l 260 781 l 260 694 l 174 694 l 174 608 z m 260 608 l 260 694 l 347 694 l 347 781 l 434 781 l 434 608 z "},"Ế":{"ha":694,"x_min":0,"x_max":0,"o":"m 0 0 l 0 87 l 87 87 l 87 608 l 0 608 l 0 694 l 608 694 l 608 434 l 521 434 l 521 608 l 260 608 l 260 434 l 347 434 l 347 521 l 434 521 l 434 260 l 347 260 l 347 347 l 260 347 l 260 87 l 521 87 l 521 260 l 608 260 l 608 0 z m 174 781 l 174 868 l 260 868 l 260 781 z m 347 781 l 347 868 l 434 868 l 434 781 z m 260 868 l 260 955 l 347 955 l 347 868 z m 260 1042 l 260 1128 l 347 1128 l 347 1042 z m 347 1128 l 347 1215 l 434 1215 l 434 1128 z "},"ế":{"ha":608,"x_min":0,"x_max":0,"o":"m 434 87 l 434 174 l 521 174 l 521 87 z m 347 347 l 347 434 l 174 434 l 174 347 z m 87 0 l 87 87 l 0 87 l 0 434 l 87 434 l 87 521 l 434 521 l 434 434 l 521 434 l 521 260 l 174 260 l 174 87 l 434 87 l 434 0 z m 174 608 l 174 694 l 260 694 l 260 608 z m 347 608 l 347 694 l 434 694 l 434 608 z m 260 694 l 260 781 l 347 781 l 347 694 z m 260 868 l 260 955 l 347 955 l 347 868 z m 347 955 l 347 1042 l 434 1042 l 434 955 z "},"Ề":{"ha":694,"x_min":0,"x_max":0,"o":"m 0 0 l 0 87 l 87 87 l 87 608 l 0 608 l 0 694 l 608 694 l 608 434 l 521 434 l 521 608 l 260 608 l 260 434 l 347 434 l 347 521 l 434 521 l 434 260 l 347 260 l 347 347 l 260 347 l 260 87 l 521 87 l 521 260 l 608 260 l 608 0 z m 174 781 l 174 868 l 260 868 l 260 781 z m 347 781 l 347 868 l 434 868 l 434 781 z m 260 868 l 260 955 l 347 955 l 347 868 z m 260 1042 l 260 1128 l 347 1128 l 347 1042 z m 174 1128 l 174 1215 l 260 1215 l 260 1128 z "},"ề":{"ha":608,"x_min":0,"x_max":0,"o":"m 434 87 l 434 174 l 521 174 l 521 87 z m 347 347 l 347 434 l 174 434 l 174 347 z m 87 0 l 87 87 l 0 87 l 0 434 l 87 434 l 87 521 l 434 521 l 434 434 l 521 434 l 521 260 l 174 260 l 174 87 l 434 87 l 434 0 z m 174 608 l 174 694 l 260 694 l 260 608 z m 347 608 l 347 694 l 434 694 l 434 608 z m 260 694 l 260 781 l 347 781 l 347 694 z m 260 868 l 260 955 l 347 955 l 347 868 z m 174 955 l 174 1042 l 260 1042 l 260 955 z "},"Ể":{"ha":694,"x_min":0,"x_max":0,"o":"m 0 0 l 0 87 l 87 87 l 87 608 l 0 608 l 0 694 l 608 694 l 608 434 l 521 434 l 521 608 l 260 608 l 260 434 l 347 434 l 347 521 l 434 521 l 434 260 l 347 260 l 347 347 l 260 347 l 260 87 l 521 87 l 521 260 l 608 260 l 608 0 z m 174 781 l 174 868 l 260 868 l 260 781 z m 347 781 l 347 868 l 434 868 l 434 781 z m 260 868 l 260 955 l 347 955 l 347 868 z m 260 1042 l 260 1128 l 347 1128 l 347 1042 z m 347 1128 l 347 1215 l 434 1215 l 434 1128 z m 174 1215 l 174 1302 l 347 1302 l 347 1215 z "},"ể":{"ha":608,"x_min":0,"x_max":0,"o":"m 434 87 l 434 174 l 521 174 l 521 87 z m 347 347 l 347 434 l 174 434 l 174 347 z m 87 0 l 87 87 l 0 87 l 0 434 l 87 434 l 87 521 l 434 521 l 434 434 l 521 434 l 521 260 l 174 260 l 174 87 l 434 87 l 434 0 z m 174 608 l 174 694 l 260 694 l 260 608 z m 347 608 l 347 694 l 434 694 l 434 608 z m 260 694 l 260 781 l 347 781 l 347 694 z m 260 868 l 260 955 l 347 955 l 347 868 z m 347 955 l 347 1042 l 434 1042 l 434 955 z m 174 1042 l 174 1128 l 347 1128 l 347 1042 z "},"Ễ":{"ha":694,"x_min":0,"x_max":0,"o":"m 0 0 l 0 87 l 87 87 l 87 608 l 0 608 l 0 694 l 608 694 l 608 434 l 521 434 l 521 608 l 260 608 l 260 434 l 347 434 l 347 521 l 434 521 l 434 260 l 347 260 l 347 347 l 260 347 l 260 87 l 521 87 l 521 260 l 608 260 l 608 0 z m 174 781 l 174 868 l 260 868 l 260 781 z m 347 781 l 347 868 l 434 868 l 434 781 z m 260 868 l 260 955 l 347 955 l 347 868 z m 174 1042 l 174 1215 l 260 1215 l 260 1128 l 347 1128 l 347 1042 z m 434 1042 l 434 1128 l 347 1128 l 347 1215 l 521 1215 l 521 1042 z "},"ễ":{"ha":608,"x_min":0,"x_max":0,"o":"m 434 87 l 434 174 l 521 174 l 521 87 z m 347 347 l 347 434 l 174 434 l 174 347 z m 87 0 l 87 87 l 0 87 l 0 434 l 87 434 l 87 521 l 434 521 l 434 434 l 521 434 l 521 260 l 174 260 l 174 87 l 434 87 l 434 0 z m 174 608 l 174 694 l 260 694 l 260 608 z m 347 608 l 347 694 l 434 694 l 434 608 z m 260 694 l 260 781 l 347 781 l 347 694 z m 87 868 l 87 1042 l 174 1042 l 174 955 l 260 955 l 260 868 z m 347 868 l 347 955 l 260 955 l 260 1042 l 434 1042 l 434 868 z "},"Ệ":{"ha":694,"x_min":0,"x_max":0,"o":"m 260 -260 l 260 -87 l 434 -87 l 434 -260 z m 0 0 l 0 87 l 87 87 l 87 608 l 0 608 l 0 694 l 608 694 l 608 434 l 521 434 l 521 608 l 260 608 l 260 434 l 347 434 l 347 521 l 434 521 l 434 260 l 347 260 l 347 347 l 260 347 l 260 87 l 521 87 l 521 260 l 608 260 l 608 0 z m 174 781 l 174 868 l 260 868 l 260 781 z m 347 781 l 347 868 l 434 868 l 434 781 z m 260 868 l 260 955 l 347 955 l 347 868 z "},"ệ":{"ha":608,"x_min":0,"x_max":0,"o":"m 174 -260 l 174 -87 l 347 -87 l 347 -260 z m 434 87 l 434 174 l 521 174 l 521 87 z m 347 347 l 347 434 l 174 434 l 174 347 z m 87 0 l 87 87 l 0 87 l 0 434 l 87 434 l 87 521 l 434 521 l 434 434 l 521 434 l 521 260 l 174 260 l 174 87 l 434 87 l 434 0 z m 174 608 l 174 694 l 260 694 l 260 608 z m 347 608 l 347 694 l 434 694 l 434 608 z m 260 694 l 260 781 l 347 781 l 347 694 z "},"Ỉ":{"ha":608,"x_min":0,"x_max":0,"o":"m 0 0 l 0 87 l 174 87 l 174 608 l 0 608 l 0 694 l 521 694 l 521 608 l 347 608 l 347 87 l 521 87 l 521 0 z m 260 781 l 260 868 l 347 868 l 347 781 z m 347 868 l 347 955 l 434 955 l 434 868 z m 174 955 l 174 1042 l 347 1042 l 347 955 z "},"ỉ":{"ha":608,"x_min":0,"x_max":0,"o":"m 0 0 l 0 87 l 174 87 l 174 434 l 0 434 l 0 521 l 347 521 l 347 87 l 521 87 l 521 0 z m 260 608 l 260 694 l 347 694 l 347 608 z m 347 694 l 347 781 l 434 781 l 434 694 z m 174 781 l 174 868 l 347 868 l 347 781 z "},"Ị":{"ha":608,"x_min":0,"x_max":0,"o":"m 174 -260 l 174 -87 l 347 -87 l 347 -260 z m 0 0 l 0 87 l 174 87 l 174 608 l 0 608 l 0 694 l 521 694 l 521 608 l 347 608 l 347 87 l 521 87 l 521 0 z "},"ị":{"ha":608,"x_min":0,"x_max":0,"o":"m 174 -260 l 174 -87 l 347 -87 l 347 -260 z m 0 0 l 0 87 l 174 87 l 174 434 l 0 434 l 0 521 l 347 521 l 347 87 l 521 87 l 521 0 z m 174 608 l 174 781 l 347 781 l 347 608 z "},"Ọ":{"ha":608,"x_min":0,"x_max":0,"o":"m 174 -260 l 174 -87 l 347 -87 l 347 -260 z m 347 87 l 347 608 l 174 608 l 174 87 z m 87 0 l 87 87 l 0 87 l 0 608 l 87 608 l 87 694 l 434 694 l 434 608 l 521 608 l 521 87 l 434 87 l 434 0 z "},"ọ":{"ha":608,"x_min":0,"x_max":0,"o":"m 174 -260 l 174 -87 l 347 -87 l 347 -260 z m 347 87 l 347 434 l 174 434 l 174 87 z m 87 0 l 87 87 l 0 87 l 0 434 l 87 434 l 87 521 l 434 521 l 434 434 l 521 434 l 521 87 l 434 87 l 434 0 z "},"Ỏ":{"ha":608,"x_min":0,"x_max":0,"o":"m 347 87 l 347 608 l 174 608 l 174 87 z m 87 0 l 87 87 l 0 87 l 0 608 l 87 608 l 87 694 l 434 694 l 434 608 l 521 608 l 521 87 l 434 87 l 434 0 z m 260 781 l 260 868 l 347 868 l 347 781 z m 347 868 l 347 955 l 434 955 l 434 868 z m 174 955 l 174 1042 l 347 1042 l 347 955 z "},"ỏ":{"ha":608,"x_min":0,"x_max":0,"o":"m 347 87 l 347 434 l 174 434 l 174 87 z m 87 0 l 87 87 l 0 87 l 0 434 l 87 434 l 87 521 l 434 521 l 434 434 l 521 434 l 521 87 l 434 87 l 434 0 z m 260 608 l 260 694 l 347 694 l 347 608 z m 347 694 l 347 781 l 434 781 l 434 694 z m 174 781 l 174 868 l 347 868 l 347 781 z "},"Ố":{"ha":608,"x_min":0,"x_max":0,"o":"m 347 87 l 347 608 l 174 608 l 174 87 z m 87 0 l 87 87 l 0 87 l 0 608 l 87 608 l 87 694 l 434 694 l 434 608 l 521 608 l 521 87 l 434 87 l 434 0 z m 174 781 l 174 868 l 260 868 l 260 781 z m 347 781 l 347 868 l 434 868 l 434 781 z m 260 868 l 260 955 l 347 955 l 347 868 z m 260 1042 l 260 1128 l 347 1128 l 347 1042 z m 347 1128 l 347 1215 l 434 1215 l 434 1128 z "},"ố":{"ha":608,"x_min":0,"x_max":0,"o":"m 347 87 l 347 434 l 174 434 l 174 87 z m 87 0 l 87 87 l 0 87 l 0 434 l 87 434 l 87 521 l 434 521 l 434 434 l 521 434 l 521 87 l 434 87 l 434 0 z m 174 608 l 174 694 l 260 694 l 260 608 z m 347 608 l 347 694 l 434 694 l 434 608 z m 260 694 l 260 781 l 347 781 l 347 694 z m 260 868 l 260 955 l 347 955 l 347 868 z m 347 955 l 347 1042 l 434 1042 l 434 955 z "},"Ồ":{"ha":608,"x_min":0,"x_max":0,"o":"m 347 87 l 347 608 l 174 608 l 174 87 z m 87 0 l 87 87 l 0 87 l 0 608 l 87 608 l 87 694 l 434 694 l 434 608 l 521 608 l 521 87 l 434 87 l 434 0 z m 174 781 l 174 868 l 260 868 l 260 781 z m 347 781 l 347 868 l 434 868 l 434 781 z m 260 868 l 260 955 l 347 955 l 347 868 z m 260 1042 l 260 1128 l 347 1128 l 347 1042 z m 174 1128 l 174 1215 l 260 1215 l 260 1128 z "},"ồ":{"ha":608,"x_min":0,"x_max":0,"o":"m 347 87 l 347 434 l 174 434 l 174 87 z m 87 0 l 87 87 l 0 87 l 0 434 l 87 434 l 87 521 l 434 521 l 434 434 l 521 434 l 521 87 l 434 87 l 434 0 z m 174 608 l 174 694 l 260 694 l 260 608 z m 347 608 l 347 694 l 434 694 l 434 608 z m 260 694 l 260 781 l 347 781 l 347 694 z m 260 868 l 260 955 l 347 955 l 347 868 z m 174 955 l 174 1042 l 260 1042 l 260 955 z "},"Ổ":{"ha":608,"x_min":0,"x_max":0,"o":"m 347 87 l 347 608 l 174 608 l 174 87 z m 87 0 l 87 87 l 0 87 l 0 608 l 87 608 l 87 694 l 434 694 l 434 608 l 521 608 l 521 87 l 434 87 l 434 0 z m 174 781 l 174 868 l 260 868 l 260 781 z m 347 781 l 347 868 l 434 868 l 434 781 z m 260 868 l 260 955 l 347 955 l 347 868 z m 260 1042 l 260 1128 l 347 1128 l 347 1042 z m 347 1128 l 347 1215 l 434 1215 l 434 1128 z m 174 1215 l 174 1302 l 347 1302 l 347 1215 z "},"ổ":{"ha":608,"x_min":0,"x_max":0,"o":"m 347 87 l 347 434 l 174 434 l 174 87 z m 87 0 l 87 87 l 0 87 l 0 434 l 87 434 l 87 521 l 434 521 l 434 434 l 521 434 l 521 87 l 434 87 l 434 0 z m 174 608 l 174 694 l 260 694 l 260 608 z m 347 608 l 347 694 l 434 694 l 434 608 z m 260 694 l 260 781 l 347 781 l 347 694 z m 260 868 l 260 955 l 347 955 l 347 868 z m 347 955 l 347 1042 l 434 1042 l 434 955 z m 174 1042 l 174 1128 l 347 1128 l 347 1042 z "},"Ỗ":{"ha":608,"x_min":0,"x_max":0,"o":"m 347 87 l 347 608 l 174 608 l 174 87 z m 87 0 l 87 87 l 0 87 l 0 608 l 87 608 l 87 694 l 434 694 l 434 608 l 521 608 l 521 87 l 434 87 l 434 0 z m 174 781 l 174 868 l 260 868 l 260 781 z m 347 781 l 347 868 l 434 868 l 434 781 z m 260 868 l 260 955 l 347 955 l 347 868 z m 87 1042 l 87 1215 l 174 1215 l 174 1128 l 260 1128 l 260 1042 z m 347 1042 l 347 1128 l 260 1128 l 260 1215 l 434 1215 l 434 1042 z "},"ỗ":{"ha":608,"x_min":0,"x_max":0,"o":"m 347 87 l 347 434 l 174 434 l 174 87 z m 87 0 l 87 87 l 0 87 l 0 434 l 87 434 l 87 521 l 434 521 l 434 434 l 521 434 l 521 87 l 434 87 l 434 0 z m 174 608 l 174 694 l 260 694 l 260 608 z m 347 608 l 347 694 l 434 694 l 434 608 z m 260 694 l 260 781 l 347 781 l 347 694 z m 87 868 l 87 1042 l 174 1042 l 174 955 l 260 955 l 260 868 z m 347 868 l 347 955 l 260 955 l 260 1042 l 434 1042 l 434 868 z "},"Ộ":{"ha":608,"x_min":0,"x_max":0,"o":"m 174 -260 l 174 -87 l 347 -87 l 347 -260 z m 347 87 l 347 608 l 174 608 l 174 87 z m 87 0 l 87 87 l 0 87 l 0 608 l 87 608 l 87 694 l 434 694 l 434 608 l 521 608 l 521 87 l 434 87 l 434 0 z m 174 781 l 174 868 l 260 868 l 260 781 z m 347 781 l 347 868 l 434 868 l 434 781 z m 260 868 l 260 955 l 347 955 l 347 868 z "},"ộ":{"ha":608,"x_min":0,"x_max":0,"o":"m 174 -260 l 174 -87 l 347 -87 l 347 -260 z m 347 87 l 347 434 l 174 434 l 174 87 z m 87 0 l 87 87 l 0 87 l 0 434 l 87 434 l 87 521 l 434 521 l 434 434 l 521 434 l 521 87 l 434 87 l 434 0 z m 174 608 l 174 694 l 260 694 l 260 608 z m 347 608 l 347 694 l 434 694 l 434 608 z m 260 694 l 260 781 l 347 781 l 347 694 z "},"Ớ":{"ha":781,"x_min":0,"x_max":0,"o":"m 347 87 l 347 608 l 174 608 l 174 87 z m 87 0 l 87 87 l 0 87 l 0 608 l 87 608 l 87 694 l 434 694 l 434 608 l 608 608 l 608 521 l 521 521 l 521 87 l 434 87 l 434 0 z m 608 608 l 608 694 l 521 694 l 521 781 l 694 781 l 694 608 z m 174 781 l 174 868 l 260 868 l 260 781 z m 260 868 l 260 955 l 347 955 l 347 868 z "},"ớ":{"ha":781,"x_min":0,"x_max":0,"o":"m 347 87 l 347 434 l 174 434 l 174 87 z m 87 0 l 87 87 l 0 87 l 0 434 l 87 434 l 87 521 l 434 521 l 434 434 l 608 434 l 608 347 l 521 347 l 521 87 l 434 87 l 434 0 z m 608 434 l 608 521 l 521 521 l 521 608 l 694 608 l 694 434 z m 174 608 l 174 694 l 260 694 l 260 608 z m 260 694 l 260 781 l 347 781 l 347 694 z "},"Ờ":{"ha":781,"x_min":0,"x_max":0,"o":"m 347 87 l 347 608 l 174 608 l 174 87 z m 87 0 l 87 87 l 0 87 l 0 608 l 87 608 l 87 694 l 434 694 l 434 608 l 608 608 l 608 521 l 521 521 l 521 87 l 434 87 l 434 0 z m 608 608 l 608 694 l 521 694 l 521 781 l 694 781 l 694 608 z m 260 781 l 260 868 l 347 868 l 347 781 z m 174 868 l 174 955 l 260 955 l 260 868 z "},"ờ":{"ha":781,"x_min":0,"x_max":0,"o":"m 347 87 l 347 434 l 174 434 l 174 87 z m 87 0 l 87 87 l 0 87 l 0 434 l 87 434 l 87 521 l 434 521 l 434 434 l 608 434 l 608 347 l 521 347 l 521 87 l 434 87 l 434 0 z m 608 434 l 608 521 l 521 521 l 521 608 l 694 608 l 694 434 z m 260 608 l 260 694 l 347 694 l 347 608 z m 174 694 l 174 781 l 260 781 l 260 694 z "},"Ở":{"ha":781,"x_min":0,"x_max":0,"o":"m 347 87 l 347 608 l 174 608 l 174 87 z m 87 0 l 87 87 l 0 87 l 0 608 l 87 608 l 87 694 l 434 694 l 434 608 l 608 608 l 608 521 l 521 521 l 521 87 l 434 87 l 434 0 z m 608 608 l 608 694 l 521 694 l 521 781 l 694 781 l 694 608 z m 260 781 l 260 868 l 347 868 l 347 781 z m 347 868 l 347 955 l 434 955 l 434 868 z m 174 955 l 174 1042 l 347 1042 l 347 955 z "},"ở":{"ha":781,"x_min":0,"x_max":0,"o":"m 347 87 l 347 434 l 174 434 l 174 87 z m 87 0 l 87 87 l 0 87 l 0 434 l 87 434 l 87 521 l 434 521 l 434 434 l 608 434 l 608 347 l 521 347 l 521 87 l 434 87 l 434 0 z m 608 434 l 608 521 l 521 521 l 521 608 l 694 608 l 694 434 z m 260 608 l 260 694 l 347 694 l 347 608 z m 347 694 l 347 781 l 434 781 l 434 694 z m 174 781 l 174 868 l 347 868 l 347 781 z "},"Ỡ":{"ha":781,"x_min":0,"x_max":0,"o":"m 347 87 l 347 608 l 174 608 l 174 87 z m 87 0 l 87 87 l 0 87 l 0 608 l 87 608 l 87 694 l 434 694 l 434 608 l 608 608 l 608 521 l 521 521 l 521 87 l 434 87 l 434 0 z m 608 608 l 608 694 l 521 694 l 521 781 l 694 781 l 694 608 z m 87 781 l 87 955 l 260 955 l 260 868 l 174 868 l 174 781 z m 260 781 l 260 868 l 347 868 l 347 955 l 434 955 l 434 781 z "},"ỡ":{"ha":781,"x_min":0,"x_max":0,"o":"m 347 87 l 347 434 l 174 434 l 174 87 z m 87 0 l 87 87 l 0 87 l 0 434 l 87 434 l 87 521 l 434 521 l 434 434 l 608 434 l 608 347 l 521 347 l 521 87 l 434 87 l 434 0 z m 608 434 l 608 521 l 521 521 l 521 608 l 694 608 l 694 434 z m 87 608 l 87 781 l 260 781 l 260 694 l 174 694 l 174 608 z m 260 608 l 260 694 l 347 694 l 347 781 l 434 781 l 434 608 z "},"Ợ":{"ha":781,"x_min":0,"x_max":0,"o":"m 174 -260 l 174 -87 l 347 -87 l 347 -260 z m 347 87 l 347 608 l 174 608 l 174 87 z m 87 0 l 87 87 l 0 87 l 0 608 l 87 608 l 87 694 l 434 694 l 434 608 l 608 608 l 608 521 l 521 521 l 521 87 l 434 87 l 434 0 z m 608 608 l 608 694 l 521 694 l 521 781 l 694 781 l 694 608 z "},"ợ":{"ha":781,"x_min":0,"x_max":0,"o":"m 174 -260 l 174 -87 l 347 -87 l 347 -260 z m 347 87 l 347 434 l 174 434 l 174 87 z m 87 0 l 87 87 l 0 87 l 0 434 l 87 434 l 87 521 l 434 521 l 434 434 l 608 434 l 608 347 l 521 347 l 521 87 l 434 87 l 434 0 z m 608 434 l 608 521 l 521 521 l 521 608 l 694 608 l 694 434 z "},"Ụ":{"ha":781,"x_min":0,"x_max":0,"o":"m 260 -260 l 260 -87 l 434 -87 l 434 -260 z m 174 0 l 174 87 l 87 87 l 87 608 l 0 608 l 0 694 l 260 694 l 260 87 l 434 87 l 434 694 l 694 694 l 694 608 l 608 608 l 608 87 l 521 87 l 521 0 z "},"ụ":{"ha":781,"x_min":0,"x_max":0,"o":"m 260 -260 l 260 -87 l 434 -87 l 434 -260 z m 174 0 l 174 87 l 87 87 l 87 434 l 0 434 l 0 521 l 260 521 l 260 87 l 434 87 l 434 434 l 347 434 l 347 521 l 608 521 l 608 87 l 694 87 l 694 0 z "},"Ủ":{"ha":781,"x_min":0,"x_max":0,"o":"m 174 0 l 174 87 l 87 87 l 87 608 l 0 608 l 0 694 l 260 694 l 260 87 l 434 87 l 434 694 l 694 694 l 694 608 l 608 608 l 608 87 l 521 87 l 521 0 z m 347 781 l 347 868 l 434 868 l 434 781 z m 434 868 l 434 955 l 521 955 l 521 868 z m 260 955 l 260 1042 l 434 1042 l 434 955 z "},"ủ":{"ha":781,"x_min":0,"x_max":0,"o":"m 174 0 l 174 87 l 87 87 l 87 434 l 0 434 l 0 521 l 260 521 l 260 87 l 434 87 l 434 434 l 347 434 l 347 521 l 608 521 l 608 87 l 694 87 l 694 0 z m 347 608 l 347 694 l 434 694 l 434 608 z m 434 694 l 434 781 l 521 781 l 521 694 z m 260 781 l 260 868 l 434 868 l 434 781 z "},"Ứ":{"ha":1042,"x_min":0,"x_max":0,"o":"m 781 434 l 781 521 l 868 521 l 868 434 z m 174 0 l 174 87 l 87 87 l 87 608 l 0 608 l 0 694 l 260 694 l 260 87 l 434 87 l 434 694 l 694 694 l 694 608 l 608 608 l 608 434 l 781 434 l 781 347 l 608 347 l 608 87 l 521 87 l 521 0 z m 868 521 l 868 608 l 781 608 l 781 694 l 955 694 l 955 521 z m 260 781 l 260 868 l 347 868 l 347 781 z m 347 868 l 347 955 l 434 955 l 434 868 z "},"ứ":{"ha":955,"x_min":0,"x_max":0,"o":"m 174 0 l 174 87 l 87 87 l 87 434 l 0 434 l 0 521 l 260 521 l 260 87 l 434 87 l 434 434 l 347 434 l 347 521 l 608 521 l 608 347 l 781 347 l 781 260 l 608 260 l 608 87 l 694 87 l 694 0 z m 781 347 l 781 434 l 694 434 l 694 521 l 868 521 l 868 347 z m 260 608 l 260 694 l 347 694 l 347 608 z m 347 694 l 347 781 l 434 781 l 434 694 z "},"Ừ":{"ha":1042,"x_min":0,"x_max":0,"o":"m 781 434 l 781 521 l 868 521 l 868 434 z m 174 0 l 174 87 l 87 87 l 87 608 l 0 608 l 0 694 l 260 694 l 260 87 l 434 87 l 434 694 l 694 694 l 694 608 l 608 608 l 608 434 l 781 434 l 781 347 l 608 347 l 608 87 l 521 87 l 521 0 z m 868 521 l 868 608 l 781 608 l 781 694 l 955 694 l 955 521 z m 347 781 l 347 868 l 434 868 l 434 781 z m 260 868 l 260 955 l 347 955 l 347 868 z "},"ừ":{"ha":955,"x_min":0,"x_max":0,"o":"m 174 0 l 174 87 l 87 87 l 87 434 l 0 434 l 0 521 l 260 521 l 260 87 l 434 87 l 434 434 l 347 434 l 347 521 l 608 521 l 608 347 l 781 347 l 781 260 l 608 260 l 608 87 l 694 87 l 694 0 z m 781 347 l 781 434 l 694 434 l 694 521 l 868 521 l 868 347 z m 347 608 l 347 694 l 434 694 l 434 608 z m 260 694 l 260 781 l 347 781 l 347 694 z "},"Ử":{"ha":1042,"x_min":0,"x_max":0,"o":"m 781 434 l 781 521 l 868 521 l 868 434 z m 174 0 l 174 87 l 87 87 l 87 608 l 0 608 l 0 694 l 260 694 l 260 87 l 434 87 l 434 694 l 694 694 l 694 608 l 608 608 l 608 434 l 781 434 l 781 347 l 608 347 l 608 87 l 521 87 l 521 0 z m 868 521 l 868 608 l 781 608 l 781 694 l 955 694 l 955 521 z m 347 781 l 347 868 l 434 868 l 434 781 z m 434 868 l 434 955 l 521 955 l 521 868 z m 260 955 l 260 1042 l 434 1042 l 434 955 z "},"ử":{"ha":955,"x_min":0,"x_max":0,"o":"m 174 0 l 174 87 l 87 87 l 87 434 l 0 434 l 0 521 l 260 521 l 260 87 l 434 87 l 434 434 l 347 434 l 347 521 l 608 521 l 608 347 l 781 347 l 781 260 l 608 260 l 608 87 l 694 87 l 694 0 z m 781 347 l 781 434 l 694 434 l 694 521 l 868 521 l 868 347 z m 347 608 l 347 694 l 434 694 l 434 608 z m 434 694 l 434 781 l 521 781 l 521 694 z m 260 781 l 260 868 l 434 868 l 434 781 z "},"Ữ":{"ha":1042,"x_min":0,"x_max":0,"o":"m 781 434 l 781 521 l 868 521 l 868 434 z m 174 0 l 174 87 l 87 87 l 87 608 l 0 608 l 0 694 l 260 694 l 260 87 l 434 87 l 434 694 l 694 694 l 694 608 l 608 608 l 608 434 l 781 434 l 781 347 l 608 347 l 608 87 l 521 87 l 521 0 z m 868 521 l 868 608 l 781 608 l 781 694 l 955 694 l 955 521 z m 174 781 l 174 955 l 347 955 l 347 868 l 260 868 l 260 781 z m 347 781 l 347 868 l 434 868 l 434 955 l 521 955 l 521 781 z "},"ữ":{"ha":955,"x_min":0,"x_max":0,"o":"m 174 0 l 174 87 l 87 87 l 87 434 l 0 434 l 0 521 l 260 521 l 260 87 l 434 87 l 434 434 l 347 434 l 347 521 l 608 521 l 608 347 l 781 347 l 781 260 l 608 260 l 608 87 l 694 87 l 694 0 z m 781 347 l 781 434 l 694 434 l 694 521 l 868 521 l 868 347 z m 174 608 l 174 781 l 347 781 l 347 694 l 260 694 l 260 608 z m 347 608 l 347 694 l 434 694 l 434 781 l 521 781 l 521 608 z "},"Ự":{"ha":1042,"x_min":0,"x_max":0,"o":"m 260 -260 l 260 -87 l 434 -87 l 434 -260 z m 781 434 l 781 521 l 868 521 l 868 434 z m 174 0 l 174 87 l 87 87 l 87 608 l 0 608 l 0 694 l 260 694 l 260 87 l 434 87 l 434 694 l 694 694 l 694 608 l 608 608 l 608 434 l 781 434 l 781 347 l 608 347 l 608 87 l 521 87 l 521 0 z m 868 521 l 868 608 l 781 608 l 781 694 l 955 694 l 955 521 z "},"ự":{"ha":955,"x_min":0,"x_max":0,"o":"m 260 -260 l 260 -87 l 434 -87 l 434 -260 z m 174 0 l 174 87 l 87 87 l 87 434 l 0 434 l 0 521 l 260 521 l 260 87 l 434 87 l 434 434 l 347 434 l 347 521 l 608 521 l 608 347 l 781 347 l 781 260 l 608 260 l 608 87 l 694 87 l 694 0 z m 781 347 l 781 434 l 694 434 l 694 521 l 868 521 l 868 347 z "},"Ỳ":{"ha":781,"x_min":0,"x_max":0,"o":"m 87 0 l 87 87 l 260 87 l 260 347 l 174 347 l 174 521 l 87 521 l 87 608 l 0 608 l 0 694 l 260 694 l 260 434 l 434 434 l 434 608 l 347 608 l 347 694 l 694 694 l 694 608 l 608 608 l 608 521 l 521 521 l 521 347 l 434 347 l 434 87 l 608 87 l 608 0 z m 347 781 l 347 868 l 434 868 l 434 781 z m 260 868 l 260 955 l 347 955 l 347 868 z "},"ỳ":{"ha":781,"x_min":0,"x_max":0,"o":"m 0 -260 l 0 -174 l 174 -174 l 174 0 l 260 0 l 260 87 l 174 87 l 174 260 l 87 260 l 87 434 l 0 434 l 0 521 l 347 521 l 347 434 l 260 434 l 260 174 l 347 174 l 347 347 l 434 347 l 434 521 l 694 521 l 694 434 l 608 434 l 608 347 l 521 347 l 521 174 l 434 174 l 434 0 l 347 0 l 347 -174 l 434 -174 l 434 -260 z m 347 608 l 347 694 l 434 694 l 434 608 z m 260 694 l 260 781 l 347 781 l 347 694 z "},"Ỵ":{"ha":781,"x_min":0,"x_max":0,"o":"m 260 -260 l 260 -87 l 434 -87 l 434 -260 z m 87 0 l 87 87 l 260 87 l 260 347 l 174 347 l 174 521 l 87 521 l 87 608 l 0 608 l 0 694 l 260 694 l 260 434 l 434 434 l 434 608 l 347 608 l 347 694 l 694 694 l 694 608 l 608 608 l 608 521 l 521 521 l 521 347 l 434 347 l 434 87 l 608 87 l 608 0 z "},"ỵ":{"ha":781,"x_min":0,"x_max":0,"o":"m 521 -260 l 521 -87 l 694 -87 l 694 -260 z m 0 -260 l 0 -174 l 174 -174 l 174 0 l 260 0 l 260 87 l 174 87 l 174 260 l 87 260 l 87 434 l 0 434 l 0 521 l 347 521 l 347 434 l 260 434 l 260 174 l 347 174 l 347 347 l 434 347 l 434 521 l 694 521 l 694 434 l 608 434 l 608 347 l 521 347 l 521 174 l 434 174 l 434 0 l 347 0 l 347 -174 l 434 -174 l 434 -260 z "},"Ỷ":{"ha":781,"x_min":0,"x_max":0,"o":"m 87 0 l 87 87 l 260 87 l 260 347 l 174 347 l 174 521 l 87 521 l 87 608 l 0 608 l 0 694 l 260 694 l 260 434 l 434 434 l 434 608 l 347 608 l 347 694 l 694 694 l 694 608 l 608 608 l 608 521 l 521 521 l 521 347 l 434 347 l 434 87 l 608 87 l 608 0 z m 347 781 l 347 868 l 434 868 l 434 781 z m 434 868 l 434 955 l 521 955 l 521 868 z m 260 955 l 260 1042 l 434 1042 l 434 955 z "},"ỷ":{"ha":781,"x_min":0,"x_max":0,"o":"m 0 -260 l 0 -174 l 174 -174 l 174 0 l 260 0 l 260 87 l 174 87 l 174 260 l 87 260 l 87 434 l 0 434 l 0 521 l 347 521 l 347 434 l 260 434 l 260 174 l 347 174 l 347 347 l 434 347 l 434 521 l 694 521 l 694 434 l 608 434 l 608 347 l 521 347 l 521 174 l 434 174 l 434 0 l 347 0 l 347 -174 l 434 -174 l 434 -260 z m 347 608 l 347 694 l 434 694 l 434 608 z m 434 694 l 434 781 l 521 781 l 521 694 z m 260 781 l 260 868 l 434 868 l 434 781 z "},"Ỹ":{"ha":781,"x_min":0,"x_max":0,"o":"m 87 0 l 87 87 l 260 87 l 260 347 l 174 347 l 174 521 l 87 521 l 87 608 l 0 608 l 0 694 l 260 694 l 260 434 l 434 434 l 434 608 l 347 608 l 347 694 l 694 694 l 694 608 l 608 608 l 608 521 l 521 521 l 521 347 l 434 347 l 434 87 l 608 87 l 608 0 z m 174 781 l 174 955 l 347 955 l 347 868 l 260 868 l 260 781 z m 347 781 l 347 868 l 434 868 l 434 955 l 521 955 l 521 781 z "},"ỹ":{"ha":781,"x_min":0,"x_max":0,"o":"m 0 -260 l 0 -174 l 174 -174 l 174 0 l 260 0 l 260 87 l 174 87 l 174 260 l 87 260 l 87 434 l 0 434 l 0 521 l 347 521 l 347 434 l 260 434 l 260 174 l 347 174 l 347 347 l 434 347 l 434 521 l 694 521 l 694 434 l 608 434 l 608 347 l 521 347 l 521 174 l 434 174 l 434 0 l 347 0 l 347 -174 l 434 -174 l 434 -260 z m 174 608 l 174 781 l 347 781 l 347 694 l 260 694 l 260 608 z m 347 608 l 347 694 l 434 694 l 434 781 l 521 781 l 521 608 z "},"Ỻ":{"ha":955,"x_min":0,"x_max":0,"o":"m 347 87 l 347 608 l 260 608 l 260 87 z m 0 0 l 0 87 l 87 87 l 87 608 l 0 608 l 0 694 l 608 694 l 608 608 l 521 608 l 521 87 l 781 87 l 781 174 l 868 174 l 868 0 z "}}}
